<svg xmlns="http://www.w3.org/2000/svg" viewBox="0 0 73.72 94.89"><defs><style>.cls-1{fill:#110f0d;}.cls-2{fill:#232221;}</style></defs><g id="" data-name="Layer 2"><g id="sheild-svg" data-name="Layer 1"><path id="sheild-outer" class="cls-1" d="M22.1,81.5C8.06,69.38,0,52.32,0,34.72V5.39L14.52,2.32a108.72,108.72,0,0,1,44.68,0L73.72,5.39V34.75c0,17.54-7.86,34.7-21.58,47.05L37.61,94.89Z"/><path id="sheild-light-right" class="cls-2" d="M68.72,9.44v25.3A54.11,54.11,0,0,1,68.09,43H37.14L36.8,5A103.79,103.79,0,0,1,58.17,7.22Z"/><path id="sheild-dark-left" class="cls-1" d="M37.14,43H5.65A53.14,53.14,0,0,1,5,34.72V9.44L15.55,7.22A102.64,102.64,0,0,1,36.8,5Z"/><path id="sheild-light-left"  class="cls-2" d="M37.54,88.23,25.37,77.72A57.67,57.67,0,0,1,5.65,43H37.14Z"/><path id="sheild-dark-right" class="cls-1" d="M68.09,43A59.2,59.2,0,0,1,48.8,78.09L37.54,88.23,37.14,43Z"/></g></g></svg>