<?xml version="1.0" encoding="UTF-8" standalone="no"?>
<!-- Created with Inkscape (http://www.inkscape.org/) -->

<svg
   xmlns:dc="http://purl.org/dc/elements/1.1/"
   xmlns:cc="http://creativecommons.org/ns#"
   xmlns:rdf="http://www.w3.org/1999/02/22-rdf-syntax-ns#"
   xmlns:svg="http://www.w3.org/2000/svg"
   xmlns="http://www.w3.org/2000/svg"
   xmlns:xlink="http://www.w3.org/1999/xlink"
   xmlns:sodipodi="http://sodipodi.sourceforge.net/DTD/sodipodi-0.dtd"
   xmlns:inkscape="http://www.inkscape.org/namespaces/inkscape"
   width="599"
   height="659"
   id="svg2"
   sodipodi:version="0.32"
   inkscape:version="0.48.0 r9654"
   version="1.0"
   sodipodi:docname="Coat of arms Hufflepuff.svg"
   inkscape:output_extension="org.inkscape.output.svg.inkscape">
  <defs
     id="defs4">
    <inkscape:perspective
       sodipodi:type="inkscape:persp3d"
       inkscape:vp_x="0 : 526.18109 : 1"
       inkscape:vp_y="0 : 1000 : 0"
       inkscape:vp_z="744.09448 : 526.18109 : 1"
       inkscape:persp3d-origin="372.04724 : 350.78739 : 1"
       id="perspective10" />
    <radialGradient
       gradientUnits="userSpaceOnUse"
       id="600ea50">
      <stop
         id="stop2732"
         stop-opacity="0.313726"
         stop-color="#fff"
         offset="0" />
      <stop
         id="stop2734"
         stop-opacity="0.25098"
         stop-color="#fff"
         offset="0.19" />
      <stop
         id="stop2736"
         stop-opacity="0.12549"
         stop-color="#6b6b6b"
         offset="0.6" />
      <stop
         id="stop2738"
         stop-opacity="0.12549"
         stop-color="#000"
         offset="1" />
    </radialGradient>
    <inkscape:perspective
       id="perspective2856"
       inkscape:persp3d-origin="372.04724 : 350.78739 : 1"
       inkscape:vp_z="744.09448 : 526.18109 : 1"
       inkscape:vp_y="0 : 1000 : 0"
       inkscape:vp_x="0 : 526.18109 : 1"
       sodipodi:type="inkscape:persp3d" />
    <radialGradient
       id="6ce0f10"
       xlink:href="#600ea50"
       cx="221.034"
       cy="215.55701"
       r="573.21198" />
    <radialGradient
       inkscape:collect="always"
       xlink:href="#600ea50"
       id="radialGradient3816"
       cx="221.034"
       cy="215.55701"
       r="573.21198"
       gradientTransform="translate(76,206.36219)" />
  </defs>
  <sodipodi:namedview
     id="base"
     pagecolor="#ffffff"
     bordercolor="#666666"
     borderopacity="1.0"
     inkscape:pageopacity="0.0"
     inkscape:pageshadow="2"
     inkscape:zoom="0.75480769"
     inkscape:cx="625"
     inkscape:cy="329.16175"
     inkscape:document-units="px"
     inkscape:current-layer="layer1"
     showgrid="false"
     inkscape:window-width="1461"
     inkscape:window-height="1084"
     inkscape:window-x="490"
     inkscape:window-y="0"
     inkscape:window-maximized="0" />
  <metadata
     id="metadata7">
    <rdf:RDF>
      <cc:Work
         rdf:about="">
        <dc:format>image/svg+xml</dc:format>
        <dc:type
           rdf:resource="http://purl.org/dc/dcmitype/StillImage" />
      </cc:Work>
    </rdf:RDF>
  </metadata>
  <g
     inkscape:label="Calque 1"
     inkscape:groupmode="layer"
     id="layer1"
     transform="translate(-75.5,-202.86218)">
    <path
       inkscape:connector-curvature="0"
       style="fill:#fcef3c;fill-rule:evenodd"
       d="m 375,860.86219 c 0,0 298.5,-112.32 298.5,-397.772 0,-285.4514 0,-258.55152 0,-258.55152 l -597,0 0,258.55152 c 0,285.452 298.5,397.772 298.5,397.772 z"
       id="path2742" />
    <g
       id="g2746"
       transform="translate(76,206.36219)">
      <path
         id="path2748"
         d="m 333.497,529.351 c 0,0 -12.679,5.154 -4.54,19.212 2.095,-5.956 8.283,-10.609 8.283,-10.609"
         style="fill:#ffffff;stroke:#000000"
         inkscape:connector-curvature="0" />
      <path
         id="path2750"
         d="m 334.818,540.268 c 0,0 -4.755,6.027 5.245,13.698 -2.483,-9.625 3.85,-12.943 3.85,-12.943"
         style="fill:#ffffff;stroke:#000000"
         inkscape:connector-curvature="0" />
      <path
         id="path2752"
         d="m 343.94,541.176 c 0,0 0.375,10.154 8.475,13.285 -3.919,-7.957 5.213,-16.235 5.213,-16.235"
         style="fill:#ffffff;stroke:#000000"
         inkscape:connector-curvature="0" />
      <path
         id="path2754"
         d="m 355.412,540.25 c 0,0 -0.306,8.076 7.543,11.567 -1.291,-7.32 0.674,-12.226 0.674,-12.226"
         style="fill:#ffffff;stroke:#000000"
         inkscape:connector-curvature="0" />
    </g>
    <g
       id="g2756"
       transform="translate(76,206.36219)"
       style="fill:#3d3d3d;fill-opacity:1">
      <path
         id="path2758"
         d="m 345.384,475.354 c 0,0 19.278,32.951 17.333,36.485 -3.861,0.68 -3.696,2.482 -6.009,3.657 -3.597,1.827 -3.545,2.046 -5.464,3.794 -7.012,6.389 -26.033,6.233 -20.919,14.223 6.51,10.173 33.443,8.033 50.222,-0.522 13.72,-30.092 22.931,-22.44 22.232,-31.75 -0.549,-7.318 -9.366,-6.874 -13.309,-13.063 -7.645,-11.996 -9.916,-36.616 -9.916,-36.616"
         style="fill:#3d3d3d;stroke:#000000;fill-opacity:1"
         inkscape:connector-curvature="0" />
      <path
         id="path2760"
         d="m 345.153,526.653 c 0,0 -10.667,8.171 -12.139,16.764 3.507,-0.619 7.561,0.078 11.383,0.351 -2.008,-7.822 6.326,-12.279 6.326,-12.279"
         style="fill:#3d3d3d;stroke:#000000;fill-opacity:1"
         inkscape:connector-curvature="0" />
      <path
         id="path2762"
         d="m 350.185,528.439 c 0,0 -10.413,8.645 -8.04,14.151 1.752,4.064 7.7,2.919 11.41,0.507 -2.071,-6.396 5.77,-11.867 5.77,-11.867"
         style="fill:#3d3d3d;stroke:#000000;fill-opacity:1"
         inkscape:connector-curvature="0" />
      <path
         id="path2764"
         d="m 360.742,530.351 c 0,0 -9.667,5.803 -7.357,10.889 2.232,4.913 5.841,2.524 11.038,1.069 5.228,-6.203 12.306,-7.451 12.306,-7.451"
         style="fill:#3d3d3d;stroke:#000000;fill-opacity:1"
         inkscape:connector-curvature="0" />
      <path
         id="path2766"
         d="m 389.514,492.888 c 0,0 8.323,7.966 4.519,12.253 -3.666,4.132 -9.472,-0.216 -9.472,-0.216"
         style="fill:#3d3d3d;stroke:#000000;fill-opacity:1"
         inkscape:connector-curvature="0" />
    </g>
    <g
       id="g2768"
       transform="translate(76,206.36219)">
      <path
         id="path2770"
         d="m 205.849,403.458 c 0,0 -6.53,-7.117 -19.217,2.073 10.285,-1.234 16.793,5.086 16.793,5.086"
         style="fill:#ffffff;stroke:#000000"
         inkscape:connector-curvature="0" />
      <path
         id="path2772"
         d="m 201.209,408.912 c 0,0 -12.747,-3.288 -14.6,10.3 8.007,-6.618 17.995,-1.908 17.995,-1.908"
         style="fill:#ffffff;stroke:#000000"
         inkscape:connector-curvature="0" />
      <path
         id="path2774"
         d="m 201.66,416.858 c 0,0 -11.933,1.418 -13.103,13.406 7.135,-6.636 15.716,-5.071 15.716,-5.071"
         style="fill:#ffffff;stroke:#000000"
         inkscape:connector-curvature="0" />
      <path
         id="path2776"
         d="m 203.557,427.619 c 0,0 -14.491,-1.075 -11.784,14.276 3.439,-6.787 14.942,-6.141 14.942,-6.141"
         style="fill:#ffffff;stroke:#000000"
         inkscape:connector-curvature="0" />
    </g>
    <g
       id="g2778"
       transform="translate(76,206.36219)"
       style="fill:#3d3d3d;fill-opacity:1">
      <path
         id="path2780"
         d="m 306.012,363.586 c 0,0 -30.15,2.142 -51.557,14.306 -2.528,1.436 12.662,5.207 9.937,5.973 -12.881,3.623 -27.119,12.719 -30.149,19.608 7.802,-1.761 15.565,-0.859 12.418,0.322 -15.592,4.68 2.934,19.163 -7.981,25.936 -9.047,5.614 -22.128,-26.198 -34.737,-29.413 -6.269,-1.599 -1.987,28.163 5.448,44.041 4.219,9.009 14.005,9.131 23.291,12.697 7.039,2.702 12.249,6.517 19.557,4.663 13.353,-3.387 14.912,-18.603 27.351,-24.523 18.81,-8.951 54.862,-8.708 54.862,-8.708"
         style="fill:#3d3d3d;stroke:#000000;fill-opacity:1"
         inkscape:connector-curvature="0" />
      <path
         id="path2782"
         d="m 215.169,416.88 c 0,0 -10.29,-13.444 -16.857,-10.161 -2.237,4.837 -1.381,6.396 0.494,9.377 2.676,4.252 11.756,6.425 11.756,6.425"
         style="fill:#3d3d3d;stroke:#000000;fill-opacity:1"
         inkscape:connector-curvature="0" />
      <path
         id="path2784"
         d="m 212.953,420.747 c 0,0 -11.774,-6.615 -13.298,-4.222 -2.682,4.212 -2.404,6.68 -0.116,9.88 4.441,6.213 15.429,5.769 15.429,5.769"
         style="fill:#3d3d3d;stroke:#000000;fill-opacity:1"
         inkscape:connector-curvature="0" />
      <path
         id="path2786"
         d="m 216.93,431.248 c 0,0 -14.207,-7.9 -16.339,-5.029 -1.657,2.233 -1.556,4.387 0.234,7.483 2.51,4.341 5.218,3.715 11.839,6.217"
         style="fill:#3d3d3d;stroke:#000000;fill-opacity:1"
         inkscape:connector-curvature="0" />
    </g>
    <g
       id="g2788"
       transform="translate(76,206.36219)">
      <path
         id="path2790"
         d="m 117.198,285.372 c 0,0 -11.4,-0.524 -16.317,6.971 6.15,-0.499 15.993,-1.065 15.993,-1.065"
         style="fill:#ffffff;stroke:#000000"
         inkscape:connector-curvature="0" />
      <path
         id="path2792"
         d="m 116.124,291.41 c 0,0 -16.1612,-0.301 -14.827,14.312 4.371,-5.06 16.661,-7.227 16.661,-7.227"
         style="fill:#ffffff;stroke:#000000"
         inkscape:connector-curvature="0" />
      <path
         id="path2794"
         d="m 114.282,297.584 c 0,0 -9.931,7.146 -1.958,19.192 2.036,-8.352 8.174,-12.685 8.174,-12.685"
         style="fill:#ffffff;stroke:#000000"
         inkscape:connector-curvature="0" />
      <path
         id="path2796"
         d="m 120.631,304.847 c 0,0 -3.372,8.39 6.648,19.88 -0.944,-13.091 2.85,-16.875 2.85,-16.875"
         style="fill:#ffffff;stroke:#000000"
         inkscape:connector-curvature="0" />
    </g>
    <path
       id="path2798"
       d="m 211.919,380.19719 c 0,0 -14.463,-3.034 -16.721,9.902 4.88,-4.241 11.488,-5.598 11.488,-5.598"
       style="fill:#ffffff;stroke:#000000"
       inkscape:connector-curvature="0" />
    <path
       id="path2800"
       d="m 206.548,386.30219 c 0,0 -10.737,0.357 -9.038,12.393 3.74,-5.561 10.449,-7.468 10.449,-7.468"
       style="fill:#ffffff;stroke:#000000"
       inkscape:connector-curvature="0" />
    <path
       id="path2802"
       d="m 209.518,392.85919 c 0,0 -9.945,5.384 -5.648,15.339 3.399,-7.499 9.801,-11.351 9.801,-11.351"
       style="fill:#ffffff;stroke:#000000"
       inkscape:connector-curvature="0" />
    <path
       id="path2804"
       d="m 214.98,401.70019 c 0,0 -8.639,6.607 -2.249,14.014 3.336,-7.851 6.713,-11.351 6.713,-11.351"
       style="fill:#ffffff;stroke:#000000"
       inkscape:connector-curvature="0" />
    <path
       id="path2806"
       d="m 383.373,269.76579 c 1.259,-8.6186 -13.059,-13.8717 -20.149,-11.5532 -8.279,2.7072 -12.86,12.455 -8.076,18.178 10.33,-5.3921 19.029,-10.4599 28.225,-6.6248 z"
       style="fill:#d9d9d9;stroke:#000000;fill-opacity:1"
       inkscape:connector-curvature="0" />
    <g
       id="g2808"
       transform="translate(76,206.36219)"
       style="fill:#969696;fill-opacity:1">
      <path
         id="path2810"
         d="m 235.903,184.331 c -15.237,-0.945 -13.591,11.475 -34.442,7.525 -12.665,-2.399 -46.659,-28.812 -72.432,-18.458 -1.136,1.321 -3.549,4.37 -1.211,5.487 8.072,5.105 29.974,12.583 40.009,21.988 7.161,6.712 9.075,13.89 16.477,20.336 19.532,17.009 32.191,12.662 59.13,35.692 23.088,-14.573 3.181,-64.823 -7.531,-72.57 z"
         style="fill:#969696;stroke:#000000;fill-opacity:1"
         inkscape:connector-curvature="0" />
      <path
         id="path2812"
         d="m 143.789,176.787 c 0,0 -18.882,0.142 -17.133,6.834 0.641,5.697 4.083,0.589 7.613,-0.071 4.612,-0.863 10.162,-1.065 10.162,-1.065"
         style="fill:#969696;stroke:#000000;fill-opacity:1"
         inkscape:connector-curvature="0" />
      <path
         id="path2814"
         d="m 146.71,180.993 c 0,0 -14.653,-0.67 -16.75,3.862 -2.761,5.966 0.786,8.576 4.494,9.012 2.798,0.328 4.813,-2.652 7.282,-4.008 4.703,-2.581 15.507,-1.645 15.507,-1.645"
         style="fill:#969696;stroke:#000000;fill-opacity:1"
         inkscape:connector-curvature="0" />
      <path
         id="path2816"
         d="m 158.227,186.588 c 0,0 -18.904,-1.889 -21.608,6.171 -1.621,4.833 1.282,8.661 6.348,9.23 3.794,0.426 4.013,-5.752 7.728,-6.628 9.302,1.265 18.23,6.59 18.23,6.59"
         style="fill:#969696;stroke:#000000;fill-opacity:1"
         inkscape:connector-curvature="0" />
    </g>
    <path
       id="path2818"
       d="m 316.758,398.24019 c -21.264,9.18 -28.087,24.674 -28.176,43.007 -0.008,1.771 7.331,-8.213 7.442,-6.392 1.172,19.373 2.472,61.491 7.932,82.371 0.579,2.215 5.281,-9.099 5.939,-6.815 1.154,4.004 2.002,21.383 3.397,25.494 0.527,1.552 3.938,-10.313 4.498,-8.758 1.589,4.405 3.543,16.986 5.403,21.294 0.753,1.744 5.692,-12.995 5.454,-11.124 -1.035,8.148 4.537,19.804 8.019,25.228 1.494,2.327 2.644,-15.232 3.261,-12.66 5.183,21.608 27.949,26.108 35.812,48.891 71.223,-37.654 -14.386,-201.672 -58.981,-200.536 z"
       style="fill:#3d3d3d;stroke:#000000;fill-opacity:1"
       inkscape:connector-curvature="0" />
    <path
       id="path2820"
       d="m 426.704,340.86419 c 0,0 14.547,17.912 7.34,17.859 -3.499,-0.026 -14.726,-12.349 -14.726,-12.349"
       style="fill:#3d3d3d;stroke:#000000"
       inkscape:connector-curvature="0" />
    <path
       id="path2822"
       d="m 426.819,356.32819 c 0,0 8.103,-2.428 10.619,-6.926 1.708,4.752 -2.708,10.32 -2.708,10.32"
       style="fill:#ffffff;stroke:#000000"
       inkscape:connector-curvature="0" />
    <path
       id="path2824"
       d="m 470.31,347.41619 c 11.697,-13.844 -16.625,-23.654 -31.178,-34.454 -12.455,-38.4613 -40.504,-50.9447 -66.722,-46.7199 -26.014,4.1919 -36.209,19.5403 -60.922,27.2059 7.795,4.0233 11.411,-1.1414 13.862,3.366 -1.999,5.0341 -9.335,17.693 -22.602,23.249 7.402,4.614 12.99,-0.666 12.952,2.163 -10.07,7.427 -18.934,17.137 -17.997,20.178 6.093,-4.393 9.977,-5.078 12.174,-4.302 -6.415,6.907 -9.599,23.398 -8.762,29.088 3.537,-6.546 7.243,-8.244 10.59,-7.855 -3.003,14.401 -1.576,18.544 -18.31,43.753 14.998,-4.13 18.749,-7.274 27.079,-1.442 -6.389,8.132 -7.411,19.721 -17.823,25.868 -1.511,0.892 13.461,-4.083 13.24,-2.335 -1.47,11.619 -10.465,33.826 -6.893,46.482 0.742,2.629 7.258,-7.933 8.171,-5.273 -1.214,47.229 11.155,31.466 9.351,58.466 6.559,-3.984 6.932,-13.816 6.943,-12.241 0.17,25.223 13.401,23.238 13.684,41.656 0.029,1.909 3.42,-8.275 3.937,-10.993 3.732,22.863 24.134,25.011 27.077,47.596 -0.386,3.763 -11.518,-0.122 -14.434,22.744 9.191,-5.05 13.78,-5.685 14.571,-4.293 -15.01,12.955 -11.609,22.452 -10.298,29.885 5.289,-9.78 13.6,-13.065 11.396,-8.715 -7.794,15.044 -5.313,25.501 -0.878,30.332 3.998,4.356 12.774,11.338 16.899,17.077 0.846,1.177 -0.367,-6.029 1.268,-9.598 13.553,5.766 19.045,11.24 24.148,29.319 0.707,2.503 0.108,-9.456 5.349,-12.075 11.553,4.74 12.878,5.777 17.733,18.897 -0.428,-10.707 -0.349,-14.661 -0.774,-16.694 6.913,2.27 9.305,6.475 14.96,11.493 2.214,-21.119 2.101,-30.153 2.587,-34.227 2.737,6.553 4.622,10.879 9.453,15.578 -1.034,-6.216 -0.10589,-4.1306 -0.32889,-11.8666 6.079,2.437 6.37589,11.3946 8.44489,16.9986 1.603,-4.789 1.98,-5.117 3.704,-6.162 3.773,5.56 2.64,12.464 4.489,16.852 5.398,-5.753 3.432,-13.938 3.682,-18.053 4.319,4.354 5.141,4.046 8.302,9.659 2.122,-15.61 -0.86924,-52.17678 -3.84378,-58.5969 3.26542,3.47616 2.19545,1.55502 3.91321,6.25554 15.53924,-31.26043 15.47833,-51.56938 10.51428,-78.60302 -5.74309,-21.26616 -13.26553,-28.85246 -20.21571,-40.01062 4.39448,0.76362 2.95113,1.84182 7.96871,3.24144 -11.64786,-12.16615 -21.42695,-22.41063 -27.61871,-25.18444 4.39229,-0.97061 8.49378,1.32536 14.33819,3.18401 -16.27884,-16.83513 -23.3809,-15.17415 -42.25847,-37.01629 6.75314,3.45318 8.31438,5.834 13.9278,7.72419 C 440.945,449.53857 415.569,442.39319 419.39,434.88319 c 7.206,5.398 4.471,3.198 10.862,4.552 -14.551,-9.471 -20.75849,-35.99134 -23.05249,-49.42634 -7.507,-18.14 -26.07051,-26.46966 -19.78451,-39.60066 10.07,-21.035 39.443,15.447 47.041,10.994 4.961,-2.17 11.634,-5.558 8.376,-8.183 -3.19,-2.571 -5.211,3.159 -10.138,1.979 -4.069,-0.974 -6.086,-5.004 -9.167,-9.592 2.838,-1.722 4.042,-2.209 6.494,-2.715 11.096,2.147 9.151,5.088 26.469,8.667 6.036,0.1 11.442,-1.328 13.82,-4.142 z"
       style="fill:#969696;fill-opacity:1;stroke:#000000"
       inkscape:connector-curvature="0"
       sodipodi:nodetypes="ccsccccccccccccscccccccccccsccccccccccccccccccccccccccsccccccc" />
    <path
       id="path2826"
       d="m 332.316,297.99459 c 20.418,-18.1572 34.178,-16.3384 54.936,-12.4333 12.9,2.4269 16.991,14.3044 29,19.6055 5.568,2.4584 11.392,0.8011 15.532,5.2624 7.739,8.34 5.148,10.24 7.488,14.812 3.389,6.624 14.945,8.683 10.015,14.339 -6.66,1.174 -15.339,5.089 -20.849,-5.801 -4.754,-0.539 -8.378,3.178 -12.708,1.142 -7.969,-3.747 -5.882,-14.607 -13.3,-19.352 -10.891,-6.968 -21.442,-2.676 -33.984,-5.818 -13.648,-3.4189 -14.788,-21.5623 -36.13,-11.7566 z"
       style="fill:#3d3d3d;stroke:#000000;fill-opacity:1"
       inkscape:connector-curvature="0" />
    <path
       id="path2828"
       d="m 400.84829,306.53538 c 10.7818,3.28734 19.47291,3.15753 25.70591,6.57153 6.172,3.38 3.2918,6.90928 9.2918,16.01428 -8.051,-0.986 -10.91,3.191 -16.405,0.42 -5.997,-3.023 -7.82798,-14.01504 -18.59271,-23.00581 z"
       style="fill:#d9d9d9;fill-opacity:1;stroke:#000000"
       inkscape:connector-curvature="0"
       sodipodi:nodetypes="ccccc" />
    <path
       id="path2830"
       d="m 417.191,318.51319 c 4.262,-0.751 4.657,-2.219 7.003,-1.014 2.342,1.203 3.069,1.85 3.039,6.331 -3.02,0.932 -4.205,1.411 -6.268,0.281 -2.082,-1.141 -4.723,-3.337 -3.774,-5.598 z"
       style="fill:#ffffff;stroke:#000000"
       inkscape:connector-curvature="0" />
    <path
       id="path2832"
       d="m 350.624,281.69089 c 7.284,-9.2722 38.304,-3.9514 32.254,10.0242 -4.127,-3.5961 -9.115,-6.3441 -13.146,-6.964 -2.627,-0.4039 -1.989,0.569 1.817,8.1375 -6.94,-5.0933 -9.73,-2.7973 -9.204,-1.5142 1.046,2.5588 5.217,4.3271 8.953,7.8757 -11.988,6.7828 -26.901,-9.6339 -20.674,-17.5592 z"
       style="fill:#d9d9d9;stroke:#000000;fill-opacity:1"
       inkscape:connector-curvature="0" />
    <path
       id="path2834"
       d="m 471.113,336.70019 c -1.999,-1.597 -6.795,0.325 -10.256,4.044 -3.523,3.786 -4.725,9.743 -3.189,10.549 2.007,1.054 9.766,-1.643 12.258,-4.35 1.489,-1.618 5.443,-6.842 1.187,-10.243 z"
       style="fill:#3d3d3d;stroke:#000000"
       inkscape:connector-curvature="0" />
    <path
       id="path2836"
       d="m 467.6,345.71819 c 0.124,0.705 -0.833,1.463 -2.139,1.694 -1.306,0.23 -2.465,-0.155 -2.589,-0.86 -0.125,-0.706 0.833,-1.464 2.139,-1.694 1.305,-0.23 2.465,0.155 2.589,0.86 0,0 0,0 0,0 z"
       style="fill:#000000;stroke:#000000"
       inkscape:connector-curvature="0" />
    <path
       id="path2838"
       d="m 422.441,317.04419 c -1.83347,0.36951 -2.67154,2.39453 -2.33169,4.02259 0.128,0.726 2.22956,3.63592 3.79069,3.26541 0.276,-0.063 1.49966,-2.67506 1.34766,-3.67506 -0.152,-1 -2.34466,-3.63594 -2.80666,-3.61294 z"
       style="stroke:#000000"
       inkscape:connector-curvature="0"
       sodipodi:nodetypes="cccsc" />
    <g
       id="g2840"
       transform="translate(76,206.36219)"
       style="fill:#969696;fill-opacity:1">
      <path
         id="path2842"
         d="m 245.834,216.809 c 0,0 -8.579,14.156 -16.739,19.027 -5.705,3.406 -11.055,1.066 -16.684,4.597 -4.717,2.959 -5.133,8.064 -9.887,10.963 -5.443,3.32 -14.244,2.951 -19.381,6.727 -19.463,14.306 -25.453,26.441 -37.038,29.935 -18.004,2.465 -13.062,-9.517 -32.07,-3.565 -2.266,3.236 -1.525,3.481 -0.715,5.327 18.988,0.434 21.935,28.437 40.455,28.327 5.037,-0.03 6.065,-6.46 10.912,-7.834 11.032,-3.127 18.676,-4.692 29.037,-9.612 12.376,-5.876 17.857,-15.183 30.819,-19.618 6.051,-2.071 11.24,1.242 16.98,-1.576 7.947,-3.9 16.105,-17.26 16.105,-17.26"
         style="fill:#969696;stroke:#000000;fill-opacity:1"
         inkscape:connector-curvature="0" />
      <path
         id="path2844"
         d="m 127.588,288.959 c 0,0 -13.742,-0.177 -17.411,2.361 -1.084,1.699 -0.075,6.185 1.617,7.279 10.75,-4.732 19.839,-2.789 19.839,-2.789"
         style="fill:#969696;stroke:#000000;fill-opacity:1"
         inkscape:connector-curvature="0" />
      <path
         id="path2846"
         d="m 132.173,292.169 c 0,0 -16.103,1.185 -19.596,4.165 -2.623,2.238 1.062,8.303 4.112,9.913 7.809,-2.323 18.464,-6.565 18.464,-6.565"
         style="fill:#969696;stroke:#000000;fill-opacity:1"
         inkscape:connector-curvature="0" />
      <path
         id="path2848"
         d="m 139.644,296.998 c 0,0 -23.062,1.466 -22.271,7.059 1.388,5.193 6.266,8.041 11.507,8.314 6.205,0.324 14.391,-8.211 14.391,-8.211"
         style="fill:#969696;stroke:#000000;fill-opacity:1"
         inkscape:connector-curvature="0" />
    </g>
    <path
       inkscape:connector-curvature="0"
       style="fill:url(#radialGradient3816);fill-rule:evenodd;stroke:#000000;stroke-width:2"
       d="m 375,860.86219 c 0,0 298.5,-112.32 298.5,-397.772 0,-285.4513 0,-258.55152 0,-258.55152 l -597,0 0,258.55152 c 0,285.452 298.5,397.772 298.5,397.772 z"
       id="path2851" />
  </g>
</svg>
