<?xml version="1.0" encoding="UTF-8" standalone="no"?>
<svg
   xmlns:dc="http://purl.org/dc/elements/1.1/"
   xmlns:cc="http://creativecommons.org/ns#"
   xmlns:rdf="http://www.w3.org/1999/02/22-rdf-syntax-ns#"
   xmlns:svg="http://www.w3.org/2000/svg"
   xmlns="http://www.w3.org/2000/svg"
   xmlns:xlink="http://www.w3.org/1999/xlink"
   xmlns:sodipodi="http://sodipodi.sourceforge.net/DTD/sodipodi-0.dtd"
   xmlns:inkscape="http://www.inkscape.org/namespaces/inkscape"
   height="660"
   width="600"
   version="1.0"
   id="svg2"
   sodipodi:version="0.32"
   inkscape:version="0.46"
   sodipodi:docname="Blason_Serdaigle.svg"
   sodipodi:docbase="C:\Documents and Settings\Alexandre\Mes documents\Mes images\Blason\A publier"
   inkscape:export-filename="C:\Users\Camille\Boulot\Wikipédia\2.png"
   inkscape:export-xdpi="144"
   inkscape:export-ydpi="144"
   inkscape:output_extension="org.inkscape.output.svg.inkscape"
   style="display:inline">
  <metadata
     id="metadata49">
    <rdf:RDF>
      <cc:Work
         rdf:about="">
        <dc:format>image/svg+xml</dc:format>
        <dc:type
           rdf:resource="http://purl.org/dc/dcmitype/StillImage" />
        <dc:title>Gabarit d'un blason en pointe pour le projet Blasons de Wikipédia</dc:title>
        <dc:date>03-AUG-2006</dc:date>
        <dc:creator>
          <cc:Agent>
            <dc:title>Jérôme BLUM (wagner51)</dc:title>
          </cc:Agent>
        </dc:creator>
        <cc:license
           rdf:resource="http://web.resource.org/cc/PublicDomain" />
        <dc:language>fr</dc:language>
        <dc:subject>
          <rdf:Bag>
            <rdf:li>gabarit modèle blason projet wikipédia</rdf:li>
          </rdf:Bag>
        </dc:subject>
      </cc:Work>
      <cc:License
         rdf:about="http://web.resource.org/cc/PublicDomain">
        <cc:permits
           rdf:resource="http://web.resource.org/cc/Reproduction" />
        <cc:permits
           rdf:resource="http://web.resource.org/cc/Distribution" />
        <cc:permits
           rdf:resource="http://web.resource.org/cc/DerivativeWorks" />
      </cc:License>
    </rdf:RDF>
  </metadata>
  <sodipodi:namedview
     inkscape:window-height="750"
     inkscape:window-width="1280"
     inkscape:pageshadow="2"
     inkscape:pageopacity="0.0"
     guidetolerance="10.0"
     gridtolerance="10.0"
     objecttolerance="10.0"
     borderopacity="1.0"
     bordercolor="#666666"
     pagecolor="#ffffff"
     id="base"
     showgrid="false"
     height="660px"
     inkscape:zoom="0.39"
     inkscape:cx="217.88089"
     inkscape:cy="351.98868"
     inkscape:window-x="-8"
     inkscape:window-y="-8"
     inkscape:current-layer="layer4"
     showguides="true"
     inkscape:guide-bbox="true" />
  <desc
     id="desc4">Flag of Canton of Valais (Wallis)</desc>
  <defs
     id="defs6">
    <inkscape:perspective
       sodipodi:type="inkscape:persp3d"
       inkscape:vp_x="0 : 330 : 1"
       inkscape:vp_y="0 : 1000 : 0"
       inkscape:vp_z="600 : 330 : 1"
       inkscape:persp3d-origin="300 : 220 : 1"
       id="perspective55" />
    <linearGradient
       id="linearGradient2893">
      <stop
         style="stop-color:white;stop-opacity:0.3137255;"
         offset="0"
         id="stop2895" />
      <stop
         id="stop2897"
         offset="0.19"
         style="stop-color:white;stop-opacity:0.25098041;" />
      <stop
         style="stop-color:#6b6b6b;stop-opacity:0.1254902;"
         offset="0.60000002"
         id="stop2901" />
      <stop
         style="stop-color:black;stop-opacity:0.1254902;"
         offset="1"
         id="stop2899" />
    </linearGradient>
    <linearGradient
       id="linearGradient2885">
      <stop
         id="stop2887"
         offset="0"
         style="stop-color:white;stop-opacity:1;" />
      <stop
         style="stop-color:white;stop-opacity:1;"
         offset="0.22857143"
         id="stop2891" />
      <stop
         id="stop2889"
         offset="1"
         style="stop-color:black;stop-opacity:1;" />
    </linearGradient>
    <linearGradient
       id="linearGradient2955">
      <stop
         id="stop2867"
         offset="0"
         style="stop-color:#fd0000;stop-opacity:1;" />
      <stop
         style="stop-color:#e77275;stop-opacity:0.65882355;"
         offset="0.5"
         id="stop2873" />
      <stop
         style="stop-color:black;stop-opacity:0.32291666;"
         offset="1"
         id="stop2959" />
    </linearGradient>
    <radialGradient
       inkscape:collect="always"
       xlink:href="#linearGradient2955"
       id="radialGradient2961"
       cx="225.52438"
       cy="218.90099"
       fx="225.52438"
       fy="218.90099"
       r="300"
       gradientTransform="matrix(-4.167939e-4,2.182867,-1.884232,-3.599562e-4,615.5972,-289.1214)"
       gradientUnits="userSpaceOnUse" />
    <polygon
       id="star"
       transform="scale(53,53)"
       points="0,-1 0.58778525,0.80901699 -0.95105652,-0.30901699 0.95105652,-0.30901699 -0.58778525,0.80901699 0,-1 " />
    <clipPath
       id="clip">
      <path
         d="M 0,-200 L 0,600 L 300,600 L 300,-200 L 0,-200 z"
         id="path10" />
    </clipPath>
    <radialGradient
       inkscape:collect="always"
       xlink:href="#linearGradient2955"
       id="radialGradient1911"
       gradientUnits="userSpaceOnUse"
       gradientTransform="matrix(-4.167939e-4,2.182867,-1.884232,-3.599562e-4,615.5972,-289.1214)"
       cx="225.52438"
       cy="218.90099"
       fx="225.52438"
       fy="218.90099"
       r="300" />
    <radialGradient
       inkscape:collect="always"
       xlink:href="#linearGradient2955"
       id="radialGradient2865"
       gradientUnits="userSpaceOnUse"
       gradientTransform="matrix(0,1.748721,-1.593162,-1.049767e-7,551.7876,-191.2898)"
       cx="225.52438"
       cy="218.90099"
       fx="225.52438"
       fy="218.90099"
       r="300" />
    <radialGradient
       inkscape:collect="always"
       xlink:href="#linearGradient2955"
       id="radialGradient2871"
       gradientUnits="userSpaceOnUse"
       gradientTransform="matrix(0,1.386237,-1.323286,-5.741131e-8,-158.0823,-109.5408)"
       cx="225.52438"
       cy="218.90099"
       fx="225.52438"
       fy="218.90099"
       r="300" />
    <radialGradient
       inkscape:collect="always"
       xlink:href="#linearGradient2893"
       id="radialGradient3163"
       gradientUnits="userSpaceOnUse"
       gradientTransform="matrix(1.353218,0,0,1.348928,-77.62935,-85.74693)"
       cx="221.44487"
       cy="226.33101"
       fx="221.44487"
       fy="226.33101"
       r="300" />
    <radialGradient
       r="300"
       fy="218.90099"
       fx="225.52438"
       cy="218.90099"
       cx="225.52438"
       gradientTransform="matrix(0,1.386237,-1.323286,-5.741131e-8,-158.0823,-109.5408)"
       gradientUnits="userSpaceOnUse"
       id="radialGradient2809"
       xlink:href="#linearGradient2955"
       inkscape:collect="always" />
    <radialGradient
       r="300"
       fy="218.90099"
       fx="225.52438"
       cy="218.90099"
       cx="225.52438"
       gradientTransform="matrix(0,1.748721,-1.593162,-1.049767e-7,551.7876,-191.2898)"
       gradientUnits="userSpaceOnUse"
       id="radialGradient2807"
       xlink:href="#linearGradient2955"
       inkscape:collect="always" />
    <radialGradient
       r="300"
       fy="218.90099"
       fx="225.52438"
       cy="218.90099"
       cx="225.52438"
       gradientTransform="matrix(-4.167939e-4,2.182867,-1.884232,-3.599562e-4,615.5972,-289.1214)"
       gradientUnits="userSpaceOnUse"
       id="radialGradient2805"
       xlink:href="#linearGradient2955"
       inkscape:collect="always" />
    <clipPath
       id="clipPath2801">
      <path
         id="path2803"
         d="M 0,-200 L 0,600 L 300,600 L 300,-200 L 0,-200 z" />
    </clipPath>
    <polygon
       points="0,-1 0.58778525,0.80901699 -0.95105652,-0.30901699 0.95105652,-0.30901699 -0.58778525,0.80901699 0,-1 "
       transform="scale(53,53)"
       id="polygon2799" />
    <radialGradient
       gradientUnits="userSpaceOnUse"
       gradientTransform="matrix(-4.167939e-4,2.182867,-1.884232,-3.599562e-4,615.5972,-289.1214)"
       r="300"
       fy="218.90099"
       fx="225.52438"
       cy="218.90099"
       cx="225.52438"
       id="radialGradient2797"
       xlink:href="#linearGradient2955"
       inkscape:collect="always" />
    <linearGradient
       id="linearGradient2789">
      <stop
         style="stop-color:#fd0000;stop-opacity:1;"
         offset="0"
         id="stop2791" />
      <stop
         id="stop2793"
         offset="0.5"
         style="stop-color:#e77275;stop-opacity:0.65882355;" />
      <stop
         id="stop2795"
         offset="1"
         style="stop-color:black;stop-opacity:0.32291666;" />
    </linearGradient>
    <linearGradient
       id="linearGradient2781">
      <stop
         style="stop-color:white;stop-opacity:1;"
         offset="0"
         id="stop2783" />
      <stop
         id="stop2785"
         offset="0.22857143"
         style="stop-color:white;stop-opacity:1;" />
      <stop
         style="stop-color:black;stop-opacity:1;"
         offset="1"
         id="stop2787" />
    </linearGradient>
    <linearGradient
       id="linearGradient2771">
      <stop
         id="stop2773"
         offset="0"
         style="stop-color:white;stop-opacity:0.3137255;" />
      <stop
         style="stop-color:white;stop-opacity:0.25098041;"
         offset="0.19"
         id="stop2775" />
      <stop
         id="stop2777"
         offset="0.60000002"
         style="stop-color:#6b6b6b;stop-opacity:0.1254902;" />
      <stop
         id="stop2779"
         offset="1"
         style="stop-color:black;stop-opacity:0.1254902;" />
    </linearGradient>
    <inkscape:perspective
       id="perspective49"
       inkscape:persp3d-origin="300 : 220 : 1"
       inkscape:vp_z="600 : 330 : 1"
       inkscape:vp_y="0 : 1000 : 0"
       inkscape:vp_x="0 : 330 : 1"
       sodipodi:type="inkscape:persp3d" />
    <linearGradient
       id="linearGradient1938">
      <stop
         style="stop-color:#ffffff;stop-opacity:0"
         offset="0"
         id="stop2965" />
      <stop
         style="stop-color:#000000;stop-opacity:0.64583331"
         offset="1"
         id="stop1941" />
    </linearGradient>
    <radialGradient
       cx="225.52438"
       cy="218.90099"
       r="300"
       fx="225.52438"
       fy="218.90099"
       id="radialGradient1943"
       xlink:href="#linearGradient2955"
       gradientUnits="userSpaceOnUse"
       gradientTransform="matrix(-4.167939e-4,2.182867,-1.884232,-3.599562e-4,615.5972,-289.1214)" />
    <polygon
       points="0,-1 0.58778525,0.80901699 -0.95105652,-0.30901699 0.95105652,-0.30901699 -0.58778525,0.80901699 0,-1 "
       transform="scale(53,53)"
       id="polygon1945" />
    <clipPath
       id="clipPath1947">
      <path
         d="M 0,-200 L 0,600 L 300,600 L 300,-200 L 0,-200 z"
         id="path1949" />
    </clipPath>
    <radialGradient
       cx="225.52438"
       cy="218.90099"
       r="300"
       fx="225.52438"
       fy="218.90099"
       id="radialGradient1951"
       xlink:href="#linearGradient2955"
       gradientUnits="userSpaceOnUse"
       gradientTransform="matrix(-4.167939e-4,2.182867,-1.884232,-3.599562e-4,1395.597,-309.1214)" />
    <radialGradient
       cx="-483.50824"
       cy="153.9283"
       r="300.00003"
       fx="-483.50824"
       fy="153.9283"
       id="radialGradient1357"
       xlink:href="#linearGradient2955"
       gradientUnits="userSpaceOnUse"
       gradientTransform="matrix(0,2.342476,-2.291353,0,562.9128,1323.77)" />
    <radialGradient
       cx="-483.50824"
       cy="153.9283"
       r="300.00003"
       fx="-483.50824"
       fy="153.9283"
       id="radialGradient13767"
       xlink:href="#linearGradient2955"
       gradientUnits="userSpaceOnUse"
       gradientTransform="matrix(0,2.342476,-2.291353,0,562.9128,1323.77)" />
    <radialGradient
       cx="-483.50824"
       cy="153.9283"
       r="300.00003"
       fx="-483.50824"
       fy="153.9283"
       id="radialGradient14758"
       xlink:href="#linearGradient2955"
       gradientUnits="userSpaceOnUse"
       gradientTransform="matrix(0,2.342476,-2.291353,0,562.9128,1323.77)" />
    <radialGradient
       r="300"
       fy="226.33101"
       fx="221.44487"
       cy="226.33101"
       cx="221.44487"
       gradientTransform="matrix(1.353218,0,0,1.348928,-77.62935,-85.74693)"
       gradientUnits="userSpaceOnUse"
       id="radialGradient3786"
       xlink:href="#linearGradient2893"
       inkscape:collect="always" />
    <radialGradient
       r="300"
       fy="218.90099"
       fx="225.52438"
       cy="218.90099"
       cx="225.52438"
       gradientTransform="matrix(0,1.386237,-1.323286,-5.741131e-8,-158.0823,-109.5408)"
       gradientUnits="userSpaceOnUse"
       id="radialGradient3784"
       xlink:href="#linearGradient2955"
       inkscape:collect="always" />
    <radialGradient
       r="300"
       fy="218.90099"
       fx="225.52438"
       cy="218.90099"
       cx="225.52438"
       gradientTransform="matrix(0,1.748721,-1.593162,-1.049767e-7,551.7876,-191.2898)"
       gradientUnits="userSpaceOnUse"
       id="radialGradient3782"
       xlink:href="#linearGradient2955"
       inkscape:collect="always" />
    <radialGradient
       r="300"
       fy="218.90099"
       fx="225.52438"
       cy="218.90099"
       cx="225.52438"
       gradientTransform="matrix(-4.167939e-4,2.182867,-1.884232,-3.599562e-4,615.5972,-289.1214)"
       gradientUnits="userSpaceOnUse"
       id="radialGradient3780"
       xlink:href="#linearGradient2955"
       inkscape:collect="always" />
    <clipPath
       id="clipPath3776">
      <path
         id="path3778"
         d="M 0,-200 L 0,600 L 300,600 L 300,-200 L 0,-200 z" />
    </clipPath>
    <polygon
       points="0,-1 0.58778525,0.80901699 -0.95105652,-0.30901699 0.95105652,-0.30901699 -0.58778525,0.80901699 0,-1 "
       transform="scale(53,53)"
       id="polygon3774" />
    <radialGradient
       gradientUnits="userSpaceOnUse"
       gradientTransform="matrix(-4.167939e-4,2.182867,-1.884232,-3.599562e-4,615.5972,-289.1214)"
       r="300"
       fy="218.90099"
       fx="225.52438"
       cy="218.90099"
       cx="225.52438"
       id="radialGradient3772"
       xlink:href="#linearGradient2955"
       inkscape:collect="always" />
    <linearGradient
       id="linearGradient3764">
      <stop
         style="stop-color:#fd0000;stop-opacity:1;"
         offset="0"
         id="stop3766" />
      <stop
         id="stop3768"
         offset="0.5"
         style="stop-color:#e77275;stop-opacity:0.65882355;" />
      <stop
         id="stop3770"
         offset="1"
         style="stop-color:black;stop-opacity:0.32291666;" />
    </linearGradient>
    <linearGradient
       id="linearGradient3756">
      <stop
         style="stop-color:white;stop-opacity:1;"
         offset="0"
         id="stop3758" />
      <stop
         id="stop3760"
         offset="0.22857143"
         style="stop-color:white;stop-opacity:1;" />
      <stop
         style="stop-color:black;stop-opacity:1;"
         offset="1"
         id="stop3762" />
    </linearGradient>
    <linearGradient
       id="linearGradient3746">
      <stop
         id="stop3748"
         offset="0"
         style="stop-color:white;stop-opacity:0.3137255;" />
      <stop
         style="stop-color:white;stop-opacity:0.25098041;"
         offset="0.19"
         id="stop3750" />
      <stop
         id="stop3752"
         offset="0.60000002"
         style="stop-color:#6b6b6b;stop-opacity:0.1254902;" />
      <stop
         id="stop3754"
         offset="1"
         style="stop-color:black;stop-opacity:0.1254902;" />
    </linearGradient>
    <inkscape:perspective
       id="perspective56"
       inkscape:persp3d-origin="300 : 220 : 1"
       inkscape:vp_z="600 : 330 : 1"
       inkscape:vp_y="0 : 1000 : 0"
       inkscape:vp_x="0 : 330 : 1"
       sodipodi:type="inkscape:persp3d" />
    <inkscape:perspective
       id="perspective2514"
       inkscape:persp3d-origin="209 : 169 : 1"
       inkscape:vp_z="418 : 253.5 : 1"
       inkscape:vp_y="0 : 1000 : 0"
       inkscape:vp_x="0 : 253.5 : 1"
       sodipodi:type="inkscape:persp3d" />
    <inkscape:perspective
       id="perspective2545"
       inkscape:persp3d-origin="372.04724 : 350.78739 : 1"
       inkscape:vp_z="744.09448 : 526.18109 : 1"
       inkscape:vp_y="0 : 1000 : 0"
       inkscape:vp_x="0 : 526.18109 : 1"
       sodipodi:type="inkscape:persp3d" />
    <inkscape:perspective
       id="perspective2659"
       inkscape:persp3d-origin="77.116447 : 63.402817 : 1"
       inkscape:vp_z="154.23289 : 95.104225 : 1"
       inkscape:vp_y="0 : 1000 : 0"
       inkscape:vp_x="0 : 95.104225 : 1"
       sodipodi:type="inkscape:persp3d" />
  </defs>
  <g
     inkscape:groupmode="layer"
     id="layer3"
     inkscape:label="Fond écu"
     style="display:inline">
    <path
       id="path2855"
       style="fill:#2b5df2;fill-opacity:1;fill-rule:evenodd;stroke:none;stroke-width:1px;stroke-linecap:butt;stroke-linejoin:miter;stroke-opacity:1"
       d="M 300,658.5 C 300,658.5 598.50001,546.17969 598.50001,260.72817 C 598.50001,-24.723354 598.50001,2.1764765 598.50001,2.1764765 L 1.5,2.1764765 L 1.5,260.72817 C 1.5,546.17969 300,658.5 300,658.5 z"
       sodipodi:nodetypes="cccccc" />
  </g>
  <g
     inkscape:groupmode="layer"
     id="layer4"
     inkscape:label="Aigle2"
     style="display:inline"
     sodipodi:insensitive="true">
    <g
       id="g2662"
       transform="matrix(2.7829735,0,0,2.8335304,82.886989,33.644055)"
       style="fill:#f7d55d">
      <g
         transform="translate(1.0695675,-8.4625)"
         id="g12835"
         style="fill:#f7d55d">
        <g
           id="g12736"
           transform="translate(-2.204334,0)"
           style="fill:#f7d55d">
          <g
             id="g12726"
             style="fill:#f7d55d">
            <g
               id="g12720"
               transform="translate(-1.1754014e-2,0)"
               style="fill:#f7d55d">
              <path
                 sodipodi:nodetypes="ccccccccccsssssssssssssssssssssssssccssssscssssssssssssscssssssssscsssssssssssssscssssssssscsscsssssssssssscssssssssssccsssssssssssscscssssscssssssssssssscsssssssscsssssscsscssssssssssssscsccsssssssssssssssssssccscssssssssssscsssssssssssssssscsssssssssssssscsssssssssssscsscssssssssssssssssccscscscscsccssssssssssssssscsscssssssssssscsssssssssssscsssscsssssssssssssssscssssssssssscsccssssssssssssssssssccscssssssssssssscsscsssssscsssssssscssssssssssssscssssscscssssssssssssccsssssssssscsssssssssssscsscssssssssscsssssssssssssscssssssssscssssssssssssscsssssccsssssssssssssssssssssssssccscccccccccc"
                 id="path2392"
                 transform="translate(2.216088,0)"
                 d="M 89.875,8.8125 C 86.209622,17.932525 76.032516,8.3931076 66,13.28125 C 63.905228,15.019582 65.49568,17.301846 65.53125,19.5 C 69.038005,21.592134 73.256901,23.220712 76.78125,25.28125 L 78.75,34.5 L 80.03125,33.75 C 81.799096,43.03001 62.043151,59.480141 57.71875,48.8125 C 55.384624,54.291693 62.037949,58.228029 67.78125,54.65625 L 69.375,58.0625 L 63.53125,58.03125 C 63.147895,57.732871 62.612582,57.364953 61.875,57.03125 C 60.908498,56.593977 59.72854,56.21875 58.5625,56.21875 C 55.886928,56.218749 53.61154,57.246372 51.40625,58.25 C 49.200958,59.253627 47.06898,60.25 44.6875,60.25 C 38.271708,60.249998 33.84375,55.123009 33.84375,49.03125 C 33.843738,45.488434 35.88209,43.240632 37.9375,41.3125 C 38.965208,40.348433 39.99625,39.448423 40.78125,38.53125 C 41.566248,37.614076 42.09375,36.65415 42.09375,35.53125 C 42.093748,33.815252 41.22841,32.401626 39.875,31.21875 C 38.521588,30.035873 36.69211,29.070334 34.71875,28.25 C 31.999758,27.119708 29.02511,25.365182 27.5,23.28125 C 26.73744,22.239285 26.32635,21.139893 26.46875,19.96875 C 26.61115,18.797608 27.30523,17.540493 28.78125,16.25 C 28.79315,16.241184 28.80368,16.230652 28.8125,16.21875 C 28.82769,16.200668 28.8384,16.179253 28.84375,16.15625 C 28.84484,16.145863 28.84484,16.135388 28.84375,16.125 C 28.8384,16.101998 28.82769,16.080583 28.8125,16.0625 C 28.80368,16.050599 28.79315,16.040067 28.78125,16.03125 C 28.77243,16.019349 28.7619,16.008817 28.75,16 C 28.73961,15.998913 28.72914,15.998912 28.71875,16 C 28.70836,15.998913 28.69789,15.998912 28.6875,16 C 28.67711,15.998913 28.66664,15.998912 28.65625,16 C 28.63008,16.003849 28.61969,16.027182 28.59375,16.03125 C 26.65989,16.334495 25.33421,17.234162 24.59375,18.46875 C 23.84335,19.719902 23.69934,21.263482 24,22.84375 C 24.43709,25.141032 25.87338,27.460985 28,28.9375 C 21.93592,26.691652 18.069481,23.18189 14.53125,19.375 C 14.51317,19.35981 14.49175,19.349102 14.46875,19.34375 C 14.45836,19.342663 14.44789,19.342662 14.4375,19.34375 C 13.63497,19.156684 12.96579,19.242637 12.4375,19.59375 C 11.90921,19.944864 11.53433,20.543827 11.34375,21.28125 C 10.96259,22.756097 11.26482,24.858399 12.28125,27.125 C 13.80341,30.519349 16.95815,34.297162 22.125,36.8125 C 15.79557,35.33042 10.14821,32.4859 7.46875,28.71875 C 7.45993,28.706849 7.4494,28.696317 7.4375,28.6875 C 7.42868,28.675599 7.41815,28.665067 7.40625,28.65625 C 7.39586,28.655163 7.38539,28.655162 7.375,28.65625 C 7.36461,28.655163 7.35414,28.655162 7.34375,28.65625 C 7.33336,28.655163 7.32289,28.655162 7.3125,28.65625 C 7.30211,28.655163 7.29164,28.655162 7.28125,28.65625 C 7.27086,28.655163 7.26039,28.655162 7.25,28.65625 C 7.23481,28.674334 7.2241,28.695747 7.21875,28.71875 C 7.20685,28.727568 7.19632,28.738098 7.1875,28.75 C 7.18641,28.760389 7.18641,28.770862 7.1875,28.78125 C 7.18688,28.804054 7.21868,28.851462 7.21875,28.875 C 7.22236,30.113749 8.1524404,32.336003 10.65625,34.6875 C 12.64129,36.55179 15.62672,38.46148 19.875,39.9375 C 17.47911,39.602064 15.14375,39.160102 13.03125,38.5625 C 9.2271705,37.48637 6.1071699,35.902475 4.5,33.65625 C 4.49118,33.644347 4.48065,33.633817 4.46875,33.625 C 4.45836,33.623911 4.44789,33.623912 4.4375,33.625 C 4.43859,33.614611 4.43859,33.604138 4.4375,33.59375 C 3.75086,33.368174 3.15488,33.403378 2.65625,33.625 C 2.15762,33.846621 1.76682,34.274942 1.5,34.78125 C 0.96636997,35.793864 0.87886996,37.187179 1.28125,38.4375 C 2.13782,41.09913 4.8032699,44.298647 8.5625,46.65625 C 10.532609,47.891804 12.79187,48.879423 15.25,49.4375 C 13.38979,49.49999 11.34136,49.474778 9.34375,49.3125 C 5.2405595,48.979173 1.32393,48.041073 -0.46875,46.1875 C -0.47757003,46.175597 -0.4881,46.165067 -0.5,46.15625 C -0.51039003,46.155161 -0.52086,46.155162 -0.53125,46.15625 C -0.54164003,46.155161 -0.55211,46.155162 -0.5625,46.15625 C -0.57289003,46.155161 -0.58336,46.155162 -0.59375,46.15625 C -0.60414003,46.155161 -0.61461,46.155162 -0.625,46.15625 C -0.63539003,46.155161 -0.64586,46.155162 -0.65625,46.15625 C -0.66815003,46.165066 -0.67868,46.175598 -0.6875,46.1875 C -0.70269003,46.205582 -0.7134,46.226997 -0.71875,46.25 C -0.71984003,46.260387 -0.71984,46.270862 -0.71875,46.28125 C -0.71984003,46.291637 -0.71984,46.302112 -0.71875,46.3125 C -0.71392003,46.345443 -0.69298,46.373479 -0.6875,46.40625 C -0.26772003,48.916766 2.0424601,50.910727 5.8125,52.03125 C 8.69007,52.886515 12.418289,53.249377 16.84375,52.9375 C 14.298409,54.146471 11.68834,54.883667 9.34375,55.1875 C 7.3530096,55.445478 5.5679299,55.402722 4.15625,55.09375 C 2.74457,54.784777 1.7187,54.222358 1.28125,53.46875 C 1.27243,53.456847 1.2619,53.446317 1.25,53.4375 C 1.24118,53.425597 1.23065,53.415067 1.21875,53.40625 C 1.20067,53.391058 1.17925,53.380352 1.15625,53.375 C 1.13325,53.380351 1.11183,53.391059 1.09375,53.40625 C 1.08336,53.405161 1.07289,53.405162 1.0625,53.40625 C 1.0506,53.415066 1.04007,53.425598 1.03125,53.4375 C 1.03016,53.447887 1.03016,53.458362 1.03125,53.46875 C -0.23214003,56.206149 -0.076040044,58.406082 1.0625,60.03125 C 2.20104,61.656418 4.28631,62.696478 6.84375,63.25 C 9.85586,63.901932 13.537339,63.857756 17.125,63.21875 C 11.131679,66.851184 3.95545,68.382398 1.125,68.78125 C 1.11461,68.780163 1.10414,68.780162 1.09375,68.78125 C 1.08185,68.790068 1.07132,68.800598 1.0625,68.8125 C 1.0506,68.821318 1.04007,68.831848 1.03125,68.84375 C 1.01935,68.852568 1.00882,68.863098 1,68.875 C 0.99891001,68.885389 0.99891,68.895862 1,68.90625 C 0.99891001,68.916639 0.99891,68.927112 1,68.9375 C 0.99891001,68.947889 0.99891,68.958362 1,68.96875 C 1.00882,68.980653 1.01935,68.991183 1.03125,69 C 1.04007,69.011903 1.0506,69.022433 1.0625,69.03125 C 2.09858,70.060348 3.8665001,70.400039 6,70.28125 C 8.1335,70.162462 10.61492,69.564382 13.09375,68.71875 C 15.39421,67.933971 17.68291,66.910987 19.65625,65.8125 C 16.95612,68.202191 14.00298,69.914988 11.21875,71.09375 C 6.7996605,72.964666 2.78394,73.476222 1,73.1875 C 0.98960997,73.186413 0.97914,73.186412 0.96875,73.1875 C 0.95835997,73.186413 0.94789,73.186412 0.9375,73.1875 C 0.91449997,73.192853 0.89308,73.203559 0.875,73.21875 C 0.86309997,73.227568 0.85257,73.238098 0.84375,73.25 C 0.84265997,73.260389 0.84266,73.270862 0.84375,73.28125 C 0.60786997,74.063329 0.71473996,74.813338 1.09375,75.5 C 1.47276,76.186663 2.11817,76.803115 2.9375,77.3125 C 4.5761699,78.33127 6.9513,78.961161 9.46875,78.90625 C 12.634639,78.837195 16.24031,78.043322 19.5625,76.65625 C 14.862509,81.159339 8.7076801,84.413772 4.625,85.8125 C 4.6130999,85.821317 4.60257,85.831848 4.59375,85.84375 C 4.5818499,85.852567 4.57132,85.863098 4.5625,85.875 C 4.5614099,85.885388 4.56141,85.895862 4.5625,85.90625 C 4.5505999,85.915067 4.54007,85.925598 4.53125,85.9375 C 4.53016,85.947888 4.53016,85.958362 4.53125,85.96875 C 4.53016,85.979138 4.53016,85.989612 4.53125,86 C 4.5366,86.023003 4.54731,86.044417 4.5625,86.0625 C 4.5713199,86.074402 4.58185,86.084933 4.59375,86.09375 C 4.6041399,86.094838 4.61461,86.094838 4.625,86.09375 C 4.6338199,86.105652 4.64435,86.116183 4.65625,86.125 C 4.6666399,86.126088 4.67711,86.126088 4.6875,86.125 C 4.6978699,86.124728 4.70838,86.125289 4.71875,86.125 C 11.00233,85.949988 17.06755,82.660951 21.8125,78.9375 C 20.65098,80.309024 19.42429,81.691323 18.125,83 C 13.361249,87.798153 7.83393,91.794291 3.03125,92.4375 C 3.00825,92.442852 2.98683,92.453559 2.96875,92.46875 C 2.96766,92.479138 2.96766,92.489612 2.96875,92.5 C 2.40484,93.051142 2.12068,93.668182 2.125,94.28125 C 2.12932,94.894316 2.40311,95.486061 2.90625,96 C 3.91254,97.02788 5.8088699,97.75 8.3125,97.75 C 14.327709,97.75 20.66854,93.614539 26.03125,88.5625 C 21.17767,95.046986 14.88695,102.16302 8.59375,106.34375 C 8.5818496,106.35257 8.57132,106.3631 8.5625,106.375 C 8.5473096,106.39308 8.5366,106.4145 8.53125,106.4375 C 8.5301596,106.44789 8.53016,106.45836 8.53125,106.46875 C 8.5301596,106.47914 8.53016,106.48961 8.53125,106.5 C 8.5400696,106.5119 8.5506,106.52243 8.5625,106.53125 C 8.5614096,106.54164 8.56141,106.55211 8.5625,106.5625 C 8.5713196,106.5744 8.58185,106.58493 8.59375,106.59375 C 8.6118296,106.60894 8.63325,106.61965 8.65625,106.625 C 8.6666396,106.62609 8.67711,106.62609 8.6875,106.625 C 8.7153796,106.62618 8.75306,106.59325 8.78125,106.59375 C 10.357459,106.62187 12.39722,105.62862 14.75,103.9375 C 17.144861,102.21613 19.85125,99.793919 22.59375,97.03125 C 24.35033,95.261753 26.11647,93.35761 27.84375,91.40625 C 23.23775,99.190562 18.776821,105.37806 13.625,109.5 C 11.35016,111.32009 9.50837,112.06711 8.21875,112.59375 C 7.5739396,112.85707 7.08508,113.04866 6.71875,113.34375 C 6.3524199,113.63884 6.125,114.04929 6.125,114.59375 C 6.1249899,115.50292 6.84596,116.35134 7.90625,117 C 8.96654,117.64866 10.38137,118.09375 11.875,118.09375 C 16.768111,118.09375 22.74397,114.54555 27.9375,109.84375 C 32.02706,106.14139 36.72831,100.05097 40.65625,93.78125 C 42.964688,90.096548 45.00911,86.363906 46.5,83 C 45.412618,88.318207 43.58946,93.751569 42.0625,96.90625 C 41.037788,99.023269 38.91851,103.07227 38,104.84375 C 37.641368,105.53543 36.89533,106.34623 36.21875,107.0625 C 35.880458,107.42063 35.54896,107.73428 35.3125,108.03125 C 35.076038,108.32822 34.90625,108.58527 34.90625,108.84375 C 34.906248,109.54104 35.12598,110.24399 35.6875,110.75 C 36.249018,111.25601 37.13639,111.5597 38.4375,111.5 C 39.187888,111.5 40.1782,111.11396 41.40625,110.40625 C 42.634298,109.69854 44.07955,108.64368 45.78125,107.28125 C 50.915538,103.17061 56.69683,94.265197 59.125,78.4375 C 59.123888,81.230974 59.01151,84.447489 58.78125,87.4375 C 58.479088,91.36116 57.95399,94.918591 57.21875,96.65625 C 57.217658,96.666642 57.21766,96.67711 57.21875,96.6875 C 57.217658,96.697892 57.21766,96.70836 57.21875,96.71875 C 57.217658,96.729142 57.21766,96.73961 57.21875,96.75 C 57.224098,96.773012 57.23481,96.79442 57.25,96.8125 C 57.258818,96.824412 57.26935,96.83493 57.28125,96.84375 C 57.291638,96.844842 57.30211,96.84484 57.3125,96.84375 C 57.321318,96.855662 57.33185,96.86618 57.34375,96.875 C 57.354138,96.876092 57.36461,96.87609 57.375,96.875 C 57.385388,96.876092 57.39586,96.87609 57.40625,96.875 C 58.673688,96.526842 59.61784,95.306659 60.3125,93.65625 C 61.007158,92.005846 61.47085,89.885842 61.78125,87.625 C 61.839572,87.200208 61.858579,86.774642 61.90625,86.34375 C 63.377806,90.1564 64.71875,93.786598 64.71875,96.75 C 64.718747,97.522131 64.25743,98.38679 63.5,99.3125 L 63.78125,100.4375 C 63.613167,100.70013 63.411816,100.9446 63.1875,101.21875 C 62.430068,102.14446 61.39067,103.11979 60.25,104.125 C 57.968658,106.13542 55.29737,108.25619 53.84375,110.34375 C 53.387038,110.99964 52.90456,112.08775 52.3125,113.375 C 51.720438,114.66225 51.03519,116.13888 50.1875,117.53125 C 48.492118,120.31599 46.20182,122.75 42.875,122.75 C 41.748748,122.75 40.88215,122.43557 40.3125,121.90625 C 39.742848,121.37693 39.45068,120.62761 39.5,119.78125 C 39.501088,119.77086 39.50109,119.76039 39.5,119.75 C 39.501088,119.73961 39.50109,119.72914 39.5,119.71875 C 39.491178,119.70685 39.48065,119.69632 39.46875,119.6875 C 39.459928,119.6756 39.4494,119.66507 39.4375,119.65625 C 39.419418,119.64106 39.398,119.63035 39.375,119.625 C 39.364608,119.62391 39.35414,119.62391 39.34375,119.625 C 39.333358,119.62391 39.32289,119.62391 39.3125,119.625 C 39.300598,119.63382 39.29007,119.64435 39.28125,119.65625 C 39.270858,119.65516 39.26039,119.65516 39.25,119.65625 C 38.126488,120.60985 37.77612,122.24706 38.34375,123.65625 C 38.911378,125.06544 40.41972,126.25 43,126.25 C 45.090478,126.25 46.89455,125.5674 48.4375,124.65625 L 52.75,131.34375 C 53.339438,131.14808 54.0651,130.94177 54.8125,130.71875 C 56.232688,130.29497 57.72348,129.74424 58.625,128.6875 C 58.794768,129.12457 58.98486,129.54713 59.21875,129.9375 C 59.975108,131.19989 61.1335,132.14969 62.96875,132.40625 C 62.979138,132.40733 62.98961,132.40734 63,132.40625 C 63.010388,132.40733 63.02086,132.40734 63.03125,132.40625 C 63.054248,132.40089 63.07567,132.39019 63.09375,132.375 C 63.105648,132.36617 63.11618,132.35565 63.125,132.34375 C 63.126088,132.33335 63.12609,132.32289 63.125,132.3125 C 63.126088,132.3021 63.12609,132.29164 63.125,132.28125 C 63.126088,132.27085 63.12609,132.26039 63.125,132.25 C 63.126088,132.2396 63.12609,132.22914 63.125,132.21875 C 62.282878,128.21383 62.47934,124.99553 63.375,122.65625 C 64.061602,120.86299 66.277091,118.5525 68.09375,117.40625 C 68.236353,118.72007 68.168721,120.58013 67.875,122.75 C 67.503027,125.49797 66.79768,128.6514 65.71875,131.5 C 64.639817,134.34859 63.20635,136.8969 61.4375,138.46875 C 59.66865,140.04059 57.56431,140.63719 55.09375,139.625 C 55.08336,139.6239 55.07289,139.62391 55.0625,139.625 C 55.05211,139.6239 55.04164,139.62391 55.03125,139.625 C 55.02086,139.6239 55.01039,139.62391 55,139.625 C 54.9881,139.63381 54.97757,139.64435 54.96875,139.65625 C 54.95836,139.65515 54.94789,139.65516 54.9375,139.65625 C 54.93641,139.66663 54.93641,139.67711 54.9375,139.6875 C 54.9256,139.69631 54.91507,139.70685 54.90625,139.71875 C 54.90516,139.72913 54.90516,139.73961 54.90625,139.75 C 54.90516,139.76038 54.90516,139.77086 54.90625,139.78125 C 54.90516,139.79163 54.90516,139.80211 54.90625,139.8125 C 55.68463,142.99744 58.53078,144.625 61.40625,144.625 C 63.79764,144.62499 65.75768,143.6105 67.28125,142 C 67.331227,141.94716 67.38839,141.89784 67.4375,141.84375 C 67.093387,143.35431 66.41163,145.17322 65.15625,146.75 C 63.520577,148.80442 60.90643,150.4375 56.71875,150.4375 C 53.76977,150.43749 50.9244,151.05314 49.25,153.1875 C 48.53818,154.09485 47.98406,155.52062 47.875,157.0625 C 47.76594,158.60437 48.11087,160.29307 49.25,161.625 C 49.26808,161.64018 49.2895,161.6509 49.3125,161.65625 C 49.32289,161.65733 49.33336,161.65734 49.34375,161.65625 C 49.35414,161.65733 49.36461,161.65734 49.375,161.65625 C 49.38539,161.65733 49.39586,161.65734 49.40625,161.65625 C 49.42925,161.65089 49.45067,161.64019 49.46875,161.625 C 49.48394,161.60691 49.49465,161.5855 49.5,161.5625 C 49.50109,161.5521 49.50109,161.54164 49.5,161.53125 C 49.57612,160.25092 50.09807,159.16629 51.15625,158.40625 C 52.21443,157.6462 53.83097,157.21875 56.15625,157.21875 C 60.17927,157.21873 63.83741,155.72506 66.46875,153.125 C 65.503877,155.4743 63.94842,158.01116 62.09375,160.15625 C 60.09998,162.46222 57.5662,164.14026 55.3125,164.8125 C 54.18565,165.14861 53.13299,165.20439 52.25,165 C 51.36701,164.7956 50.65869,164.3263 50.1875,163.5 C 50.17868,163.48809 50.16815,163.47757 50.15625,163.46875 C 50.14743,163.45684 50.1369,163.44632 50.125,163.4375 C 50.11461,163.4364 50.10414,163.43641 50.09375,163.4375 C 50.08336,163.4364 50.07289,163.43641 50.0625,163.4375 C 49.30218,163.34636 48.71038,163.58064 48.3125,164.03125 C 47.91462,164.48185 47.7013,165.11586 47.65625,165.8125 C 47.56615,167.20577 48.1017,168.84489 49.1875,169.78125 C 50.10898,170.57589 51.42933,171.03751 52.75,171.1875 C 53.78876,171.30546 54.73505,171.07001 55.625,170.8125 C 47.9912,175.83218 39.9375,170.92885 39.9375,165.40625 C 39.9375,164.14946 40.4003,162.61349 41.21875,161.53125 C 42.0372,160.449 43.16976,159.8138 44.59375,160.25 C 44.60257,160.26189 44.6131,160.27243 44.625,160.28125 C 44.63539,160.28233 44.64586,160.28234 44.65625,160.28125 C 44.66815,160.27242 44.67868,160.2619 44.6875,160.25 C 44.69789,160.25108 44.70836,160.25109 44.71875,160.25 C 44.73065,160.24117 44.74118,160.23065 44.75,160.21875 C 44.7619,160.20992 44.77243,160.1994 44.78125,160.1875 C 44.78234,160.1771 44.78234,160.16664 44.78125,160.15625 C 44.78234,160.14585 44.78234,160.13539 44.78125,160.125 C 44.78234,160.1146 44.78234,160.10414 44.78125,160.09375 C 44.78234,160.08335 44.78234,160.07289 44.78125,160.0625 C 44.76395,160.02144 44.70588,160.00929 44.6875,159.96875 C 44.06904,158.60485 42.88894,157.5 41.1875,157.5 C 38.87291,157.49999 36.75918,158.7628 35.25,160.65625 C 33.74082,162.54969 32.8125,165.09721 32.8125,167.6875 C 32.81251,170.88243 33.92639,174.12986 36.375,176.59375 C 38.82361,179.05763 42.62551,180.71875 47.9375,180.71875 C 51.14986,180.71874 54.04437,179.64954 56.65625,177.9375 C 51.60974,188.11599 60.51702,195.26423 66.3125,189.46875 C 60.819967,188.91301 62.11797,182.50374 66.09375,179.875 C 70.028387,177.27346 72.1573,173.81353 73.1875,169.96875 C 72.752647,178.44311 72.32584,186.38638 68.28125,192.15625 C 67.069037,193.88556 69.38778,194.84375 72.28125,194.84375 C 72.338767,196.67268 74.39693,198.3125 76.40625,198.3125 C 78.415577,198.3125 80.47373,196.67268 80.53125,194.84375 C 83.424727,194.84375 85.74346,193.88556 84.53125,192.15625 C 80.486657,186.38638 80.05985,178.44311 79.625,169.96875 C 80.655207,173.81353 82.78411,177.27346 86.71875,179.875 C 90.694527,182.50374 91.99251,188.91301 86.5,189.46875 C 92.295477,195.26423 101.20275,188.11599 96.15625,177.9375 C 98.771139,179.65412 101.68909,180.71875 104.90625,180.71875 C 110.21824,180.71874 114.02014,179.05764 116.46875,176.59375 C 118.91736,174.12985 120,170.88244 120,167.6875 C 119.99999,165.0972 119.07167,162.5497 117.5625,160.65625 C 116.05333,158.76279 113.97085,157.5 111.65625,157.5 C 109.95515,157.49999 108.77484,158.60525 108.15625,159.96875 C 108.13773,160.00955 108.07992,160.02117 108.0625,160.0625 C 108.0506,160.07131 108.04007,160.08185 108.03125,160.09375 C 108.03016,160.10413 108.03016,160.11461 108.03125,160.125 C 108.03016,160.13538 108.03016,160.14586 108.03125,160.15625 C 108.04007,160.16814 108.0506,160.17868 108.0625,160.1875 C 108.06141,160.19788 108.06141,160.20836 108.0625,160.21875 C 108.07132,160.23064 108.08185,160.24118 108.09375,160.25 C 108.10414,160.25108 108.11461,160.25109 108.125,160.25 C 108.14308,160.26518 108.1645,160.2759 108.1875,160.28125 C 108.1994,160.27242 108.20993,160.2619 108.21875,160.25 C 109.64274,159.81379 110.80655,160.44901 111.625,161.53125 C 112.44345,162.61348 112.90625,164.14947 112.90625,165.40625 C 112.90625,170.93004 104.82275,175.83762 97.1875,170.8125 C 98.083479,171.0768 99.04388,171.30673 100.09375,171.1875 C 101.41442,171.0375 102.70352,170.5759 103.625,169.78125 C 104.7108,168.84488 105.24635,167.20578 105.15625,165.8125 C 105.1112,165.11585 104.92913,164.48186 104.53125,164.03125 C 104.13337,163.58063 103.51032,163.34637 102.75,163.4375 C 102.73961,163.4364 102.72914,163.43641 102.71875,163.4375 C 102.70685,163.44631 102.69632,163.45685 102.6875,163.46875 C 102.6756,163.47756 102.66507,163.4881 102.65625,163.5 C 102.18506,164.32629 101.47674,164.79561 100.59375,165 C 99.710756,165.20438 98.658092,165.14862 97.53125,164.8125 C 95.277537,164.14025 92.74378,162.46223 90.75,160.15625 C 88.895337,158.01115 87.33987,155.47431 86.375,153.125 C 89.006327,155.72505 92.66447,157.21874 96.6875,157.21875 C 99.012769,157.21874 100.62932,157.64621 101.6875,158.40625 C 102.74568,159.16628 103.26764,160.25093 103.34375,161.53125 C 103.34266,161.54163 103.34266,161.55211 103.34375,161.5625 C 103.34266,161.57288 103.34266,161.58336 103.34375,161.59375 C 103.35257,161.60564 103.3631,161.61618 103.375,161.625 C 103.38382,161.63689 103.39435,161.64743 103.40625,161.65625 C 103.41664,161.65733 103.42711,161.65734 103.4375,161.65625 C 103.44789,161.65733 103.45836,161.65734 103.46875,161.65625 C 103.47914,161.65733 103.48961,161.65734 103.5,161.65625 C 103.51039,161.65733 103.52086,161.65734 103.53125,161.65625 C 103.54315,161.64742 103.55368,161.6369 103.5625,161.625 C 103.57289,161.62608 103.58336,161.62609 103.59375,161.625 C 104.73289,160.29306 105.07781,158.60438 104.96875,157.0625 C 104.85969,155.52061 104.30557,154.09486 103.59375,153.1875 C 101.91935,151.05313 99.073982,150.4375 96.125,150.4375 C 91.937317,150.43749 89.32316,148.80443 87.6875,146.75 C 86.432127,145.17321 85.75036,143.35432 85.40625,141.84375 C 85.455357,141.89783 85.51252,141.94717 85.5625,142 C 87.086067,143.61049 89.0461,144.625 91.4375,144.625 C 94.312967,144.62499 97.159108,142.99745 97.9375,139.8125 C 97.938589,139.8021 97.93859,139.79164 97.9375,139.78125 C 97.938589,139.77085 97.93859,139.76039 97.9375,139.75 C 97.938589,139.7396 97.93859,139.72914 97.9375,139.71875 C 97.928679,139.70684 97.91815,139.69632 97.90625,139.6875 C 97.897429,139.67559 97.8869,139.66507 97.875,139.65625 C 97.866179,139.64434 97.85565,139.63382 97.84375,139.625 C 97.833359,139.6239 97.82289,139.62391 97.8125,139.625 C 97.802108,139.6239 97.79164,139.62391 97.78125,139.625 C 97.770858,139.6239 97.76039,139.62391 97.75,139.625 C 97.739608,139.6239 97.72914,139.62391 97.71875,139.625 C 95.248187,140.63718 93.17511,140.0406 91.40625,138.46875 C 89.637387,136.89689 88.20393,134.3486 87.125,131.5 C 86.046067,128.65139 85.34072,125.49797 84.96875,122.75 C 84.754384,121.16638 84.667214,119.76386 84.6875,118.59375 C 86.441407,119.14518 87.890322,120.49257 88.71875,122.65625 C 89.61441,124.99553 89.810872,128.21383 88.96875,132.21875 C 88.96766,132.22914 88.967662,132.2396 88.96875,132.25 C 88.96766,132.26039 88.967662,132.27085 88.96875,132.28125 C 88.96766,132.29164 88.967662,132.3021 88.96875,132.3125 C 88.96766,132.32289 88.967662,132.33335 88.96875,132.34375 C 88.97757,132.35565 88.988102,132.36617 89,132.375 C 89.01808,132.39019 89.039502,132.40089 89.0625,132.40625 C 89.07289,132.40734 89.083362,132.40733 89.09375,132.40625 C 89.10414,132.40734 89.114612,132.40733 89.125,132.40625 C 90.96025,132.14969 92.118642,131.19989 92.875,129.9375 C 93.10889,129.54713 93.298982,129.12457 93.46875,128.6875 C 94.37027,129.74424 95.861062,130.29497 97.28125,130.71875 C 98.02865,130.94177 98.969899,131.57925 99.559336,131.77492 L 103.87184,125.08742 C 105.41479,125.99857 107.00327,126.25 109.09375,126.25 C 111.67403,126.25 113.18237,125.06544 113.75,123.65625 C 114.31763,122.24706 113.96726,120.60985 112.84375,119.65625 C 112.83336,119.65516 112.82289,119.65516 112.8125,119.65625 C 112.80368,119.64435 112.79315,119.63382 112.78125,119.625 C 112.77086,119.62391 112.76039,119.62391 112.75,119.625 C 112.73961,119.62391 112.72914,119.62391 112.71875,119.625 C 112.69575,119.63035 112.67433,119.64106 112.65625,119.65625 C 112.64435,119.66507 112.63382,119.6756 112.625,119.6875 C 112.6131,119.69632 112.60257,119.70685 112.59375,119.71875 C 112.59266,119.72914 112.59266,119.73961 112.59375,119.75 C 112.59266,119.76039 112.59266,119.77086 112.59375,119.78125 C 112.64307,120.62761 112.3509,121.37693 111.78125,121.90625 C 111.2116,122.43557 110.345,122.75 109.21875,122.75 C 105.89193,122.75 103.60163,120.31599 101.90625,117.53125 C 101.05856,116.13888 100.37331,114.66225 99.78125,113.375 C 99.18919,112.08775 98.706713,110.99964 98.25,110.34375 C 96.79638,108.25619 94.125092,106.13542 91.84375,104.125 C 90.70308,103.11979 89.663682,102.14446 88.90625,101.21875 L 87.53125,99.09375 C 86.575497,98.143211 86,97.25613 86,96.5 C 85.999997,90.158672 86.995844,85.591211 89.78125,79.6875 C 89.827116,82.170484 89.945235,84.949997 90.3125,87.625 C 90.6229,89.885842 91.086592,92.005846 91.78125,93.65625 C 92.47591,95.306659 93.420062,96.526843 94.6875,96.875 C 94.69789,96.87609 94.708362,96.876093 94.71875,96.875 C 94.72914,96.87609 94.739612,96.876093 94.75,96.875 C 94.7619,96.86618 94.772432,96.855663 94.78125,96.84375 C 94.79164,96.84484 94.802112,96.844843 94.8125,96.84375 C 94.8244,96.83493 94.834932,96.824413 94.84375,96.8125 C 94.85894,96.79442 94.869652,96.773013 94.875,96.75 C 94.87609,96.73961 94.876092,96.729143 94.875,96.71875 C 94.87609,96.70836 94.876092,96.697893 94.875,96.6875 C 94.87609,96.67711 94.876092,96.666643 94.875,96.65625 C 94.13976,94.918591 93.614662,91.36116 93.3125,87.4375 C 93.08224,84.447489 92.969862,81.230974 92.96875,78.4375 C 95.39692,94.265197 101.17821,103.17061 106.3125,107.28125 C 108.0142,108.64368 109.45945,109.69854 110.6875,110.40625 C 111.91555,111.11396 112.90586,111.5 113.65625,111.5 C 114.95736,111.5597 115.84473,111.25601 116.40625,110.75 C 116.96777,110.24399 117.1875,109.54104 117.1875,108.84375 C 117.1875,108.58527 117.01771,108.32822 116.78125,108.03125 C 116.54479,107.73428 116.21329,107.42063 115.875,107.0625 C 115.19842,106.34623 114.45238,105.53543 114.09375,104.84375 C 113.17524,103.07227 111.05596,99.02327 110.03125,96.90625 C 108.50429,93.751569 106.68113,88.318207 105.59375,83 C 107.08464,86.363906 109.12906,90.096548 111.4375,93.78125 C 115.36544,100.05097 120.06669,106.14139 124.15625,109.84375 C 129.34978,114.54555 135.32563,118.09375 140.21875,118.09375 C 141.71238,118.09375 143.12721,117.64866 144.1875,117 C 145.24779,116.35134 145.96876,115.50292 145.96875,114.59375 C 145.96875,114.04929 145.74133,113.63884 145.375,113.34375 C 145.00867,113.04866 144.51981,112.85707 143.875,112.59375 C 142.58538,112.06711 140.74359,111.32009 138.46875,109.5 C 133.31693,105.37806 128.856,99.190562 124.25,91.40625 C 125.97728,93.35761 127.74341,95.261754 129.5,97.03125 C 132.2425,99.793919 134.94888,102.21613 137.34375,103.9375 C 139.69653,105.62862 141.73629,106.62187 143.3125,106.59375 C 143.34069,106.59325 143.37837,106.62618 143.40625,106.625 C 143.41664,106.62609 143.42711,106.62609 143.4375,106.625 C 143.4605,106.61965 143.48192,106.60894 143.5,106.59375 C 143.5119,106.58493 143.52243,106.5744 143.53125,106.5625 C 143.53234,106.55211 143.53234,106.54164 143.53125,106.53125 C 143.54315,106.52243 143.55368,106.5119 143.5625,106.5 C 143.56359,106.48961 143.56359,106.47914 143.5625,106.46875 C 143.56359,106.45836 143.56359,106.44789 143.5625,106.4375 C 143.55715,106.4145 143.54644,106.39308 143.53125,106.375 C 143.52243,106.3631 143.5119,106.35257 143.5,106.34375 C 137.2068,102.16302 130.91608,95.046986 126.0625,88.5625 C 131.42521,93.614539 137.76604,97.750001 143.78125,97.75 C 146.28488,97.75 148.18121,97.027881 149.1875,96 C 149.69064,95.486061 149.96443,94.894316 149.96875,94.28125 C 149.97307,93.668182 149.68891,93.051142 149.125,92.5 C 149.12609,92.489612 149.12609,92.479138 149.125,92.46875 C 149.10692,92.453559 149.0855,92.442852 149.0625,92.4375 C 144.25982,91.794291 138.7325,87.798153 133.96875,83 C 132.66946,81.691323 131.44276,80.309024 130.28125,78.9375 C 135.0262,82.660951 141.09142,85.949988 147.375,86.125 C 147.38537,86.125289 147.39588,86.124728 147.40625,86.125 C 147.41664,86.126088 147.42711,86.126088 147.4375,86.125 C 147.4494,86.116183 147.45993,86.105652 147.46875,86.09375 C 147.47914,86.094838 147.48961,86.094838 147.5,86.09375 C 147.5119,86.084933 147.52243,86.074402 147.53125,86.0625 C 147.54644,86.044417 147.55715,86.023003 147.5625,86 C 147.56359,85.989612 147.56359,85.979138 147.5625,85.96875 C 147.56359,85.958362 147.56359,85.947888 147.5625,85.9375 C 147.55368,85.925598 147.54315,85.915067 147.53125,85.90625 C 147.53234,85.895862 147.53234,85.885388 147.53125,85.875 C 147.52243,85.863098 147.5119,85.852567 147.5,85.84375 C 147.49118,85.831848 147.48065,85.821317 147.46875,85.8125 C 143.38607,84.413772 137.23124,81.159339 132.53125,76.65625 C 135.85344,78.043322 139.45911,78.837195 142.625,78.90625 C 145.14245,78.961161 147.51758,78.33127 149.15625,77.3125 C 149.97558,76.803115 150.62099,76.186663 151,75.5 C 151.37901,74.813338 151.48588,74.063329 151.25,73.28125 C 151.25109,73.270862 151.25109,73.260389 151.25,73.25 C 151.24118,73.238098 151.23065,73.227568 151.21875,73.21875 C 151.20067,73.203559 151.17925,73.192853 151.15625,73.1875 C 151.14586,73.186412 151.13539,73.186413 151.125,73.1875 C 151.11461,73.186412 151.10414,73.186413 151.09375,73.1875 C 149.30981,73.476222 145.29409,72.964666 140.875,71.09375 C 138.09077,69.914988 135.13762,68.202191 132.4375,65.8125 C 134.41084,66.910987 136.69954,67.933971 139,68.71875 C 141.47883,69.564382 143.96025,70.162462 146.09375,70.28125 C 148.22725,70.400039 149.99517,70.060348 151.03125,69.03125 C 151.04315,69.022433 151.05368,69.011903 151.0625,69 C 151.0744,68.991183 151.08493,68.980653 151.09375,68.96875 C 151.09484,68.958362 151.09484,68.947889 151.09375,68.9375 C 151.09484,68.927112 151.09484,68.916639 151.09375,68.90625 C 151.09484,68.895862 151.09484,68.885389 151.09375,68.875 C 151.08493,68.863098 151.0744,68.852568 151.0625,68.84375 C 151.05368,68.831848 151.04315,68.821318 151.03125,68.8125 C 151.02243,68.800598 151.0119,68.790068 151,68.78125 C 150.98961,68.780162 150.97914,68.780163 150.96875,68.78125 C 148.1383,68.382398 140.96207,66.851185 134.96875,63.21875 C 138.55641,63.857756 142.23789,63.901933 145.25,63.25 C 147.80744,62.696478 149.89271,61.656419 151.03125,60.03125 C 152.16979,58.406082 152.32589,56.20615 151.0625,53.46875 C 151.06359,53.458362 151.06359,53.447888 151.0625,53.4375 C 151.05368,53.425598 151.04315,53.415067 151.03125,53.40625 C 151.02086,53.405162 151.01039,53.405162 151,53.40625 C 150.98192,53.391059 150.9605,53.380352 150.9375,53.375 C 150.9145,53.380352 150.89308,53.391059 150.875,53.40625 C 150.8631,53.415067 150.85257,53.425598 150.84375,53.4375 C 150.83185,53.446317 150.82132,53.456848 150.8125,53.46875 C 150.37505,54.222358 149.34918,54.784778 147.9375,55.09375 C 146.52582,55.402722 144.74074,55.445479 142.75,55.1875 C 140.40541,54.883667 137.79534,54.146472 135.25,52.9375 C 139.67546,53.249377 143.40368,52.886516 146.28125,52.03125 C 150.05129,50.910727 152.36147,48.916767 152.78125,46.40625 C 152.78673,46.373479 152.80767,46.345444 152.8125,46.3125 C 152.81359,46.302112 152.81359,46.291638 152.8125,46.28125 C 152.81359,46.270862 152.81359,46.260388 152.8125,46.25 C 152.80715,46.226997 152.79644,46.205583 152.78125,46.1875 C 152.77243,46.175598 152.7619,46.165067 152.75,46.15625 C 152.73961,46.155162 152.72914,46.155162 152.71875,46.15625 C 152.70836,46.155162 152.69789,46.155162 152.6875,46.15625 C 152.67711,46.155162 152.66664,46.155162 152.65625,46.15625 C 152.64586,46.155162 152.63539,46.155162 152.625,46.15625 C 152.61461,46.155162 152.60414,46.155162 152.59375,46.15625 C 152.58185,46.165067 152.57132,46.175598 152.5625,46.1875 C 150.76982,48.041073 146.85319,48.979174 142.75,49.3125 C 140.75239,49.474778 138.70396,49.499991 136.84375,49.4375 C 139.30188,48.879423 141.56114,47.891805 143.53125,46.65625 C 147.29048,44.298647 149.95593,41.099131 150.8125,38.4375 C 151.21488,37.187179 151.12738,35.793865 150.59375,34.78125 C 150.32693,34.274942 149.93613,33.846622 149.4375,33.625 C 148.93887,33.403378 148.34289,33.368175 147.65625,33.59375 C 147.65516,33.604138 147.65516,33.614612 147.65625,33.625 C 147.64586,33.623912 147.63539,33.623912 147.625,33.625 C 147.6131,33.633817 147.60257,33.644348 147.59375,33.65625 C 145.98658,35.902475 142.86658,37.486371 139.0625,38.5625 C 136.95,39.160102 134.61463,39.602065 132.21875,39.9375 C 136.46703,38.46148 139.45246,36.551791 141.4375,34.6875 C 143.94131,32.336003 144.87139,30.11375 144.875,28.875 C 144.87507,28.851462 144.90687,28.804055 144.90625,28.78125 C 144.90734,28.770862 144.90734,28.76039 144.90625,28.75 C 144.89743,28.738098 144.8869,28.727569 144.875,28.71875 C 144.86965,28.695747 144.85894,28.674335 144.84375,28.65625 C 144.83336,28.655162 144.82289,28.655164 144.8125,28.65625 C 144.80211,28.655162 144.79164,28.655164 144.78125,28.65625 C 144.77086,28.655162 144.76039,28.655164 144.75,28.65625 C 144.73961,28.655162 144.72914,28.655164 144.71875,28.65625 C 144.70836,28.655162 144.69789,28.655164 144.6875,28.65625 C 144.6756,28.665067 144.66507,28.6756 144.65625,28.6875 C 144.64435,28.696317 144.63382,28.70685 144.625,28.71875 C 141.94554,32.4859 136.29817,35.330421 129.96875,36.8125 C 135.1356,34.297162 138.29034,30.51935 139.8125,27.125 C 140.82893,24.858399 141.13116,22.756098 140.75,21.28125 C 140.55942,20.543827 140.18454,19.944865 139.65625,19.59375 C 139.12796,19.242637 138.45878,19.156685 137.65625,19.34375 C 137.64586,19.342662 137.63539,19.342664 137.625,19.34375 C 137.602,19.349102 137.58058,19.359811 137.5625,19.375 C 134.02427,23.18189 130.15783,26.691653 124.09375,28.9375 C 126.22037,27.460985 127.65665,25.141033 128.09375,22.84375 C 128.39441,21.263482 128.2504,19.719903 127.5,18.46875 C 126.75954,17.234162 125.43386,16.334496 123.5,16.03125 C 123.47406,16.027182 123.46367,16.00385 123.4375,16 C 123.42711,15.998912 123.41664,15.998914 123.40625,16 C 123.39586,15.998912 123.38539,15.998914 123.375,16 C 123.36461,15.998912 123.35414,15.998914 123.34375,16 C 123.33185,16.008817 123.32132,16.01935 123.3125,16.03125 C 123.3006,16.040067 123.29007,16.0506 123.28125,16.0625 C 123.26606,16.080583 123.25535,16.101999 123.25,16.125 C 123.24891,16.135388 123.24891,16.145864 123.25,16.15625 C 123.25535,16.179253 123.26606,16.200669 123.28125,16.21875 C 123.29007,16.230652 123.3006,16.241185 123.3125,16.25 C 124.78852,17.540493 125.4826,18.797609 125.625,19.96875 C 125.7674,21.139893 125.35631,22.239286 124.59375,23.28125 C 123.06864,25.365182 120.09399,27.119709 117.375,28.25 C 115.40164,29.070334 113.57216,30.035874 112.21875,31.21875 C 110.86534,32.401626 110,33.815253 110,35.53125 C 110,36.65415 110.5275,37.614077 111.3125,38.53125 C 112.0975,39.448423 113.12854,40.348434 114.15625,41.3125 C 116.21166,43.240632 118.25001,45.488435 118.25,49.03125 C 118.25,55.123009 113.82204,60.249999 107.40625,60.25 C 105.02477,60.25 102.89279,59.253628 100.6875,58.25 C 98.48221,57.246372 96.206822,56.21875 93.53125,56.21875 C 92.36521,56.21875 91.185252,56.593978 90.21875,57.03125 C 89.320759,57.437526 88.660133,57.905891 88.3125,58.21875 L 85.03125,58.1875 C 85.265571,58.001195 85.478375,57.814277 85.65625,57.59375 C 88.650476,53.881548 90.230362,48.653231 89.59375,45.3125 C 93.94453,54.832019 95.245085,51.995901 99.5,52.3125 C 96.505228,51.170951 94.496873,49.436793 93.8125,45.625 C 96.1226,45.390229 97.530883,43.253593 97.1875,41 C 92.629974,46.904544 95.256299,36.020795 92.53125,33.96875 C 94.842512,35.381691 97.205512,35.411239 98.625,32.0625 C 92.152947,34.386689 93.992938,25.80365 90.28125,22.75 C 94.065646,25.503776 96.562001,25.37624 98.1875,21.84375 C 90.480482,24.74361 91.981877,16.431748 87.4375,15.71875 C 92.29617,14.496504 91.525281,10.869492 89.875,8.8125 z"
                 style="fill:#f7d55d;fill-opacity:1;fill-rule:nonzero;stroke:#000000;stroke-width:0.69999999;stroke-linecap:round;stroke-linejoin:round;stroke-miterlimit:4;stroke-dasharray:none;stroke-dashoffset:0;stroke-opacity:1" />
              <path
                 sodipodi:nodetypes="ccsssccssssssssccssssssscsssccsssssscsssssccsscscc"
                 style="fill:#f7d55d;fill-opacity:1;fill-rule:nonzero;stroke:#000000;stroke-width:0.69999999;stroke-linecap:round;stroke-linejoin:round;stroke-miterlimit:4;stroke-dasharray:none;stroke-dashoffset:0;stroke-opacity:1"
                 d="M 51.013149,124.82832 C 47.710339,130.03481 41.058089,136.7748 33.606899,143.60957 C 32.305659,144.44991 30.404779,144.96909 28.981899,144.95332 C 27.843829,144.9407 26.464259,144.29385 25.075649,143.64082 C 23.687039,142.98778 22.290819,142.32832 21.044399,142.32832 C 20.210249,142.32831 19.407269,142.56768 18.794399,142.98457 L 17.700649,145.70332 C 17.957639,147.23776 19.106799,148.20332 20.481899,148.20332 C 20.993249,148.20331 21.454159,147.92109 21.919399,147.67207 C 22.384639,147.42304 22.852259,147.20332 23.356899,147.20332 C 23.665799,147.20331 23.979709,147.4054 24.325649,147.67207 C 24.671589,147.93873 25.019439,148.2669 25.481899,148.39082 C 25.715429,148.45339 25.984819,148.49459 26.263149,148.51582 C 26.160689,148.5374 26.049609,148.5622 25.950649,148.57832 C 24.820859,148.76231 22.570229,148.39082 20.544399,148.39082 C 19.639779,148.39081 18.898819,148.85121 18.419399,149.48457 L 18.169399,152.67207 C 18.280909,152.91356 18.405209,153.14812 18.575649,153.35957 C 19.083229,153.98925 19.870939,154.45332 20.856899,154.45332 C 21.434059,154.45331 21.867429,154.26864 22.200649,154.01582 C 22.533869,153.76299 22.768389,153.43016 22.950649,153.10957 C 23.132909,152.78897 23.275519,152.4835 23.419399,152.26582 C 23.563279,152.04813 23.681159,151.95332 23.856899,151.95332 C 24.426859,151.95331 24.887759,152.0534 25.388149,152.14082 C 25.727699,152.20013 26.074649,152.23744 26.481899,152.23457 C 26.102529,152.4615 25.732449,152.69846 25.356899,152.92207 C 24.254699,153.57834 23.190779,154.22511 22.356899,154.89082 C 21.523019,155.55652 20.904129,156.25725 20.700649,157.01582 C 20.627499,157.28853 20.621559,157.55453 20.638149,157.82832 L 22.606899,161.26582 C 23.111629,161.75647 23.895499,162.10799 24.700649,162.14082 C 25.505799,162.17364 26.334849,161.89381 26.888149,161.14082 C 27.574499,160.20677 27.700769,158.86399 27.856899,157.60957 C 28.013029,156.35514 28.219899,155.20709 29.013149,154.54707 C 29.861679,153.84105 30.642209,153.52467 31.481899,153.32832 C 32.321589,153.13196 33.222669,153.06056 34.263149,152.82832 C 36.044239,152.43077 37.629079,151.23899 38.888149,149.04707 C 39.754819,148.7201 41.037289,148.53262 41.888149,149.04707 C 42.331859,149.31534 42.776589,149.86042 43.294399,150.35957 C 43.812209,150.85871 44.439019,151.32832 45.231899,151.32832 C 46.019269,151.32831 46.891429,151.03316 47.575649,150.51582 C 48.259869,149.99847 48.731899,149.24058 48.731899,148.29707 C 48.731899,148.15053 48.710099,148.00604 48.700649,147.85957 L 47.200649,144.14082 C 46.607639,143.53821 45.851899,143.14082 44.981899,143.14082 C 44.220589,143.14081 43.127149,143.57543 42.013149,144.10957 C 41.293069,144.45482 40.700549,144.82822 40.075649,145.20332 C 43.873979,141.16957 49.988269,136.67186 54.075649,132.14082 C 54.281829,131.91226 54.736209,131.71149 55.325649,131.51582 L 51.013149,124.82832 z"
                 id="path2203" />
            </g>
            <path
               style="fill:#f7d55d;fill-opacity:1;fill-rule:nonzero;stroke:#000000;stroke-width:0.5;stroke-linecap:round;stroke-linejoin:round;stroke-miterlimit:4;stroke-dasharray:none;stroke-dashoffset:0;stroke-opacity:1"
               d="M 16.185214,142.36896 C 13.619374,142.47341 11.656274,145.39616 14.466464,147.61896 C 14.063394,145.89159 15.964484,144.67137 17.997714,146.18146 C 18.827994,145.83285 19.400934,144.23714 18.810214,143.33771 C 17.976614,142.61598 17.040494,142.33414 16.185214,142.36896 z M 140.34146,142.36896 C 139.48618,142.33414 138.55006,142.61598 137.71646,143.33771 C 137.12573,144.23714 137.69868,145.83285 138.52896,146.18146 C 140.56219,144.67137 142.46328,145.89159 142.06021,147.61896 C 144.8704,145.39616 142.9073,142.47341 140.34146,142.36896 z M 48.685214,143.71271 C 47.910654,143.76894 47.133924,143.97278 46.435214,144.33771 C 45.095494,145.60854 45.650334,148.00438 47.435214,148.65021 C 49.012644,146.62315 51.856664,147.6215 51.747714,149.90021 C 53.769814,147.76301 53.399004,145.74096 52.091464,144.65021 C 51.231274,143.93264 49.976144,143.61899 48.685214,143.71271 z M 107.06021,143.71271 C 106.04507,143.77123 105.09211,144.07615 104.40396,144.65021 C 103.09642,145.74096 102.75687,147.76301 104.77896,149.90021 C 104.67001,147.6215 107.51404,146.62315 109.09146,148.65021 C 110.87634,148.00438 111.43118,145.60854 110.09146,144.33771 C 109.15985,143.85113 108.07535,143.65419 107.06021,143.71271 z M 16.685214,149.33771 C 16.482814,149.33325 16.282874,149.35387 16.091464,149.36896 C 14.815384,149.46955 13.787154,150.0296 13.122714,150.93146 C 12.112714,152.30234 12.368374,155.08762 14.841464,155.68146 C 13.942714,153.74434 15.732734,151.71363 18.497714,152.99396 C 19.389804,152.37895 19.539144,150.5965 18.622714,149.68146 C 17.943094,149.47019 17.292414,149.35109 16.685214,149.33771 z M 139.62271,149.36896 C 139.07663,149.40176 138.50807,149.49367 137.90396,149.68146 C 136.98755,150.5965 137.13687,152.37895 138.02896,152.99396 C 140.79393,151.71363 142.55271,153.74434 141.65396,155.68146 C 144.12705,155.08762 144.41396,152.30234 143.40396,150.93146 C 142.60664,149.84922 141.26096,149.27057 139.62271,149.36896 z M 21.403964,157.27521 C 19.416074,157.95851 18.079544,159.67397 17.966464,161.46271 C 17.859024,163.16207 19.274274,165.27328 21.778964,164.96271 C 20.049814,163.47462 21.285044,160.74496 23.841464,160.99396 C 24.600184,159.25406 23.247914,157.17666 21.403964,157.27521 z M 135.12271,157.27521 C 133.27876,157.17666 131.92649,159.25406 132.68521,160.99396 C 135.24162,160.74496 136.47686,163.47462 134.74771,164.96271 C 137.25239,165.27328 138.66765,163.16207 138.56021,161.46271 C 138.44713,159.67397 137.11059,157.95851 135.12271,157.27521 z"
               id="path2396" />
          </g>
          <g
             transform="translate(-5.8877512,-11.18198)"
             id="g2374"
             style="fill:#f7d55d">
            <path
               style="fill:#f7d55d;fill-opacity:1;fill-rule:nonzero;stroke:#000000;stroke-width:0.5;stroke-linecap:round;stroke-linejoin:round;stroke-miterlimit:4;stroke-dasharray:none;stroke-dashoffset:0;stroke-opacity:1"
               d="M 84.491836,132.88418 L 84.491836,152.38418"
               id="path2361" />
            <path
               style="fill:#f7d55d;fill-opacity:1;fill-rule:nonzero;stroke:#000000;stroke-width:0.5;stroke-linecap:round;stroke-linejoin:round;stroke-miterlimit:4;stroke-dasharray:none;stroke-dashoffset:0;stroke-opacity:1"
               d="M 72.932035,179.62531 C 71.777828,180.6736 70.553627,181.85364 69.241836,183.16543 C 56.180797,196.22647 67.500673,207.65659 74.398086,200.75918 C 68.905558,200.20344 70.203553,193.79417 74.179336,191.16543 C 78.113976,188.56389 80.242881,185.10396 81.273086,181.25918 C 80.838233,189.73354 80.411429,197.67681 76.366836,203.44668 C 75.154622,205.17599 77.473362,206.13418 80.366836,206.13418 C 80.424353,207.96311 82.482511,209.60293 84.491836,209.60293 C 86.501161,209.60293 88.559313,207.96311 88.616836,206.13418 C 91.51031,206.13418 93.829044,205.17599 92.616836,203.44668 C 88.572243,197.67681 88.145433,189.73354 87.710586,181.25918 C 88.740791,185.10396 90.86969,188.56389 94.804336,191.16543 C 98.780116,193.79417 100.07809,200.20344 94.585586,200.75918 C 101.48299,207.65659 112.80287,196.22647 99.741834,183.16543 C 98.355767,181.77936 97.067488,180.54039 95.856243,179.44851"
               id="path2363"
               sodipodi:nodetypes="cccscscscscsccs" />
            <path
               style="fill:#f7d55d;fill-opacity:1;fill-rule:nonzero;stroke:#000000;stroke-width:0.5;stroke-linecap:round;stroke-linejoin:round;stroke-miterlimit:4;stroke-dasharray:none;stroke-dashoffset:0;stroke-opacity:1"
               d="M 75.684021,160.87498 C 75.340944,163.93554 73.157262,168.20109 70.279428,171.52955 C 66.257079,176.18175 60.092039,178.31029 58.127203,174.8647 C 55.244001,174.51914 55.299866,179.18225 57.374874,180.97167 C 59.154143,182.50606 62.484943,182.7693 64.425364,181.88743 C 56.538401,187.66512 47.864595,182.52558 47.864595,176.70401 C 47.864595,174.11757 49.749393,170.49886 52.720819,171.40908 C 52.139246,170.029 50.943771,168.95058 49.255634,168.95058 C 44.735061,168.95058 41.046399,173.86008 41.046399,178.96846 C 41.046399,185.28887 45.437205,191.86072 55.998968,191.86072 C 69.501929,191.86072 77.794007,173.37174 80.477312,163.27163"
               id="path2365"
               sodipodi:nodetypes="cscscscsssc" />
            <path
               sodipodi:nodetypes="cscscscsssc"
               id="path2368"
               d="M 93.299646,160.87498 C 93.642723,163.93554 95.826406,168.20109 98.704239,171.52955 C 102.72659,176.18175 108.89163,178.31029 110.85646,174.8647 C 113.73967,174.51914 113.6838,179.18225 111.60879,180.97167 C 109.82952,182.50606 106.49872,182.7693 104.5583,181.88743 C 112.44527,187.66512 121.11907,182.52558 121.11907,176.70401 C 121.11907,174.11757 119.23427,170.49886 116.26285,171.40908 C 116.84442,170.029 118.0399,168.95058 119.72803,168.95058 C 124.24861,168.95058 127.93727,173.86008 127.93727,178.96846 C 127.93727,185.28887 123.54646,191.86072 112.9847,191.86072 C 99.481744,191.86072 91.18966,173.37174 88.506356,163.27163"
               style="fill:#f7d55d;fill-opacity:1;fill-rule:nonzero;stroke:#000000;stroke-width:0.5;stroke-linecap:round;stroke-linejoin:round;stroke-miterlimit:4;stroke-dasharray:none;stroke-dashoffset:0;stroke-opacity:1" />
            <path
               style="fill:#f7d55d;fill-opacity:1;fill-rule:nonzero;stroke:#000000;stroke-width:0.5;stroke-linecap:round;stroke-linejoin:round;stroke-miterlimit:4;stroke-dasharray:none;stroke-dashoffset:0;stroke-opacity:1"
               d="M 75.735695,152.73123 C 75.040468,156.22749 72.565833,161.87823 64.7875,161.87823 C 61.859785,161.87823 59.069169,162.50076 57.437048,164.58122 C 56.061115,166.33512 55.21233,170.20904 57.430356,172.80247 C 57.586734,170.17205 59.5406,168.3436 64.230141,168.3436 C 71.373938,168.3436 77.315796,163.67209 78.387067,156.30463"
               id="path2370"
               sodipodi:nodetypes="csscsc" />
            <path
               sodipodi:nodetypes="csscsc"
               id="path2372"
               d="M 93.238557,152.68346 C 93.920703,156.17575 96.382306,161.87823 104.19617,161.87823 C 107.12388,161.87823 109.9145,162.50076 111.54662,164.58122 C 112.92255,166.33512 113.77134,170.20904 111.55331,172.80247 C 111.39693,170.17205 109.44306,168.3436 104.75352,168.3436 C 97.609729,168.3436 91.667872,163.67209 90.596601,156.30463"
               style="fill:#f7d55d;fill-opacity:1;fill-rule:nonzero;stroke:#000000;stroke-width:0.5;stroke-linecap:round;stroke-linejoin:round;stroke-miterlimit:4;stroke-dasharray:none;stroke-dashoffset:0;stroke-opacity:1" />
          </g>
        </g>
        <path
           style="fill:#f7d55d;fill-opacity:1;fill-rule:nonzero;stroke:#000000;stroke-width:0.5;stroke-linecap:round;stroke-linejoin:round;stroke-miterlimit:4;stroke-dasharray:none;stroke-dashoffset:0;stroke-opacity:1"
           d="M 76.046878,192.11612 L 76.046878,173.61179"
           id="path2957" />
      </g>
      <path
         sodipodi:nodetypes="ccsssccssssssssccssssssscsssccsssssscsssssccsscscc"
         style="fill:#f7d55d;fill-opacity:1;fill-rule:nonzero;stroke:#000000;stroke-width:0.69999999;stroke-linecap:round;stroke-linejoin:round;stroke-miterlimit:4;stroke-dasharray:none;stroke-dashoffset:0;stroke-opacity:1"
         d="M 104.87468,116.36582 C 108.17749,121.57231 114.82974,128.3123 122.28093,135.14707 C 123.58217,135.98741 125.48305,136.50659 126.90593,136.49082 C 128.044,136.4782 129.42357,135.83135 130.81218,135.17832 C 132.20079,134.52528 133.59701,133.86582 134.84343,133.86582 C 135.67758,133.86581 136.48056,134.10518 137.09343,134.52207 L 138.18718,137.24082 C 137.93019,138.77526 136.78103,139.74082 135.40593,139.74082 C 134.89458,139.74081 134.43367,139.45859 133.96843,139.20957 C 133.50319,138.96054 133.03557,138.74082 132.53093,138.74082 C 132.22203,138.74081 131.90812,138.9429 131.56218,139.20957 C 131.21624,139.47623 130.86839,139.8044 130.40593,139.92832 C 130.1724,139.99089 129.90301,140.03209 129.62468,140.05332 C 129.72714,140.0749 129.83822,140.0997 129.93718,140.11582 C 131.06697,140.29981 133.3176,139.92832 135.34343,139.92832 C 136.24805,139.92831 136.98901,140.38871 137.46843,141.02207 L 137.71843,144.20957 C 137.60692,144.45106 137.48262,144.68562 137.31218,144.89707 C 136.8046,145.52675 136.01689,145.99082 135.03093,145.99082 C 134.45377,145.99081 134.0204,145.80614 133.68718,145.55332 C 133.35396,145.30049 133.11944,144.96766 132.93718,144.64707 C 132.75492,144.32647 132.61231,144.021 132.46843,143.80332 C 132.32455,143.58563 132.20667,143.49082 132.03093,143.49082 C 131.46097,143.49081 131.00007,143.5909 130.49968,143.67832 C 130.16013,143.73763 129.81318,143.77494 129.40593,143.77207 C 129.7853,143.999 130.15538,144.23596 130.53093,144.45957 C 131.63313,145.11584 132.69705,145.76261 133.53093,146.42832 C 134.36481,147.09402 134.9837,147.79475 135.18718,148.55332 C 135.26033,148.82603 135.26627,149.09203 135.24968,149.36582 L 133.28093,152.80332 C 132.7762,153.29397 131.99233,153.64549 131.18718,153.67832 C 130.38203,153.71114 129.55298,153.43131 128.99968,152.67832 C 128.31333,151.74427 128.18706,150.40149 128.03093,149.14707 C 127.8748,147.89264 127.66793,146.74459 126.87468,146.08457 C 126.02615,145.37855 125.24562,145.06217 124.40593,144.86582 C 123.56624,144.66946 122.66516,144.59806 121.62468,144.36582 C 119.84359,143.96827 118.25875,142.77649 116.99968,140.58457 C 116.13301,140.2576 114.85054,140.07012 113.99968,140.58457 C 113.55597,140.85284 113.11124,141.39792 112.59343,141.89707 C 112.07562,142.39621 111.44881,142.86582 110.65593,142.86582 C 109.86856,142.86581 108.9964,142.57066 108.31218,142.05332 C 107.62796,141.53597 107.15593,140.77808 107.15593,139.83457 C 107.15593,139.68803 107.17773,139.54354 107.18718,139.39707 L 108.68718,135.67832 C 109.28019,135.07571 110.03593,134.67832 110.90593,134.67832 C 111.66724,134.67831 112.76068,135.11293 113.87468,135.64707 C 114.59476,135.99232 115.18728,136.36572 115.81218,136.74082 C 112.01385,132.70707 105.89956,128.20936 101.81218,123.67832 C 101.606,123.44976 101.15162,123.24899 100.56218,123.05332 L 104.87468,116.36582 z"
         id="path2205" />
      <g
         transform="translate(1.0695675,-9.491215)"
         id="g12799"
         style="fill:#f7d55d">
        <g
           id="g12753"
           transform="translate(0,-0.5808487)"
           style="fill:#f7d55d">
          <g
             transform="translate(19.978024,-159.44)"
             id="g4688"
             style="fill:#f7d55d">
            <path
               style="fill:#f7d55d;fill-opacity:1;fill-rule:nonzero;stroke:none;stroke-width:0.5;stroke-linecap:round;stroke-linejoin:round;stroke-miterlimit:4;stroke-dasharray:none;stroke-dashoffset:0;stroke-opacity:1"
               d="M -1.7110898,188.68918 C -1.7731118,188.69967 -1.8289038,188.73314 -1.8673398,188.78293 C -1.8806308,188.8022 -1.8911498,188.82324 -1.8985898,188.84543 C -1.9197478,188.88365 -1.9305228,188.92675 -1.9298398,188.97043 C -1.9257638,189.00345 -1.9151398,189.03532 -1.8985898,189.06418 C -1.8816338,189.08856 -1.8604698,189.10973 -1.8360898,189.12668 C 1.2353317,192.17023 4.6845037,194.01893 8.9139101,195.25168 C 8.9139111,195.25168 9.6639101,194.50168 9.6639101,194.50168 C 5.4723907,193.27997 1.4925637,191.74075 -1.4923398,188.78293 C -1.5018138,188.77161 -1.5122708,188.76116 -1.5235898,188.75168 C -1.5428578,188.73839 -1.5638968,188.72787 -1.5860898,188.72043 C -1.6243108,188.69927 -1.6674088,188.6885 -1.7110898,188.68918 z M -10.39859,201.28293 C -10.460612,201.29342 -10.516404,201.32689 -10.55484,201.37668 C -10.568131,201.39595 -10.57865,201.41699 -10.58609,201.43918 C -10.60264,201.46804 -10.613264,201.49991 -10.61734,201.53293 C -10.623142,201.60136 -10.60054,201.66917 -10.55484,201.72043 C -7.5922178,204.86898 -2.3582188,206.59504 4.0389107,206.25168 C 4.0389107,206.25168 4.9451607,205.40793 4.9451607,205.40793 C -1.3539338,205.74603 -7.3824618,204.34962 -10.17984,201.37668 C -10.189314,201.36536 -10.199771,201.35491 -10.21109,201.34543 C -10.230358,201.33214 -10.251397,201.32162 -10.27359,201.31418 C -10.311811,201.29302 -10.354909,201.28225 -10.39859,201.28293 z M 2.0701607,216.50168 C -0.069189324,218.15224 -3.1483258,219.29323 -5.9298398,219.72043 C -8.7113538,220.14763 -11.301628,220.09788 -12.64859,219.81418 C -12.67956,219.80827 -12.71137,219.80827 -12.74234,219.81418 C -12.800081,219.81634 -12.855293,219.83842 -12.89859,219.87668 C -12.94429,219.92795 -12.966892,219.99575 -12.96109,220.06418 C -12.957014,220.0972 -12.94639,220.12907 -12.92984,220.15793 C -12.890725,220.227 -12.821138,220.27339 -12.74234,220.28293 C -11.287348,220.58938 -8.5772858,220.84334 -5.7423398,220.40793 C -2.9073938,219.97253 0.32579568,218.92077 2.2576607,217.40793 C 2.2576607,217.40793 2.0701607,216.50168 2.0701607,216.50168 z M 7.8514102,225.31418 C 7.8514112,225.31418 6.8201607,225.40793 6.8201607,225.40793 C 3.2046367,229.86897 -1.4587358,233.48261 -7.8048398,234.84543 C -7.8161588,234.8549 -7.8266158,234.86536 -7.8360898,234.87668 C -7.8582828,234.88412 -7.8793218,234.89464 -7.8985898,234.90793 C -7.9099088,234.9174 -7.9203658,234.92786 -7.9298398,234.93918 C -7.9681018,234.98247 -7.9901868,235.03769 -7.9923398,235.09543 C -7.9981418,235.16386 -7.9755398,235.23166 -7.9298398,235.28293 C -7.9105718,235.29622 -7.8895328,235.30674 -7.8673398,235.31418 C -7.8384798,235.33073 -7.8066078,235.34135 -7.7735898,235.34543 C -7.7426198,235.35134 -7.7107998,235.35139 -7.6798398,235.34543 C -1.1115978,234.08004 4.2112177,230.31297 7.8826602,225.78293 C 7.8826602,225.78293 7.8514102,225.31418 7.8514102,225.31418 z M 12.63266,231.93918 C 8.7502302,239.46551 2.9877237,244.61074 -2.9923398,249.65793 C -3.0036588,249.6674 -3.0141158,249.67786 -3.0235898,249.68918 C -3.0692898,249.74044 -3.0918918,249.80825 -3.0860898,249.87668 C -3.0820138,249.9097 -3.0713898,249.94157 -3.0548398,249.97043 C -3.0473998,249.99262 -3.0368808,250.01366 -3.0235898,250.03293 C -2.9802928,250.07119 -2.9250808,250.09327 -2.8673398,250.09543 C -2.8263448,250.10601 -2.7833348,250.10601 -2.7423398,250.09543 C -2.7179598,250.07847 -2.6967958,250.05731 -2.6798398,250.03293 C 3.3004237,244.98557 9.5403041,240.03832 13.47641,232.40793 C 13.476411,232.40793 12.63266,231.93918 12.63266,231.93918 z M 32.88266,234.97043 C 32.577546,243.93951 30.173195,251.70447 25.88266,258.56418 C 25.882008,258.57459 25.882008,258.58502 25.88266,258.59543 C 25.861502,258.63365 25.850727,258.67675 25.85141,258.72043 C 25.855486,258.75345 25.86611,258.78532 25.88266,258.81418 C 25.907715,258.86968 25.952162,258.91412 26.00766,258.93918 C 26.048655,258.94976 26.091665,258.94976 26.13266,258.93918 C 26.165678,258.9351 26.19755,258.92448 26.22641,258.90793 C 26.248603,258.90049 26.269642,258.88997 26.28891,258.87668 C 26.302201,258.85741 26.31272,258.83637 26.32016,258.81418 C 30.651943,251.88852 33.449577,244.05809 33.75766,235.00168 C 33.757662,235.00168 32.88266,234.97043 32.88266,234.97043 z M 21.28891,235.53293 C 18.688877,247.64591 12.356435,255.95589 3.4764107,265.78292 C 3.4307107,265.83418 3.4081087,265.90199 3.4139107,265.97042 C 3.4179867,266.00344 3.4286107,266.03531 3.4451607,266.06417 C 3.4526007,266.08636 3.4631197,266.1074 3.4764107,266.12667 C 3.5024987,266.15437 3.5345627,266.17574 3.5701607,266.18917 C 3.6011307,266.19508 3.6329407,266.19508 3.6639107,266.18917 C 3.7216517,266.18702 3.7768637,266.16493 3.8201607,266.12667 C 3.8314797,266.1172 3.8410207,266.10591 3.8514107,266.09542 C 10.93582,258.94615 19.873801,248.68131 22.32016,235.65793 C 22.320159,235.65793 21.28891,235.53293 21.28891,235.53293 z"
               id="path2713"
               sodipodi:nodetypes="csssscscsssccssssccsssccsssssscscccccsssssssscccssssssscscccssssssscsccsssssssssc" />
            <path
               sodipodi:nodetypes="cc"
               id="path2715"
               d="M 4.9301957,212.56849 C -0.072694324,215.54998 2.7945187,221.32634 7.0036892,218.41063"
               style="fill:#f7d55d;fill-opacity:1;fill-rule:nonzero;stroke:#000000;stroke-width:0.49999997;stroke-linecap:round;stroke-linejoin:round;stroke-miterlimit:4;stroke-dasharray:none;stroke-dashoffset:0;stroke-opacity:1" />
            <path
               style="fill:#f7d55d;fill-opacity:1;fill-rule:nonzero;stroke:#000000;stroke-width:0.5;stroke-linecap:round;stroke-linejoin:round;stroke-miterlimit:4;stroke-dasharray:none;stroke-dashoffset:0;stroke-opacity:1"
               d="M 5.6484747,219.03494 C 1.4512747,223.43274 6.0411147,228.07157 9.4535741,223.98198"
               id="path2717"
               sodipodi:nodetypes="cc" />
            <path
               sodipodi:nodetypes="cc"
               id="path2719"
               d="M 9.1212301,223.50749 C 5.5331437,228.41491 10.688535,232.41583 13.538757,227.91629"
               style="fill:#f7d55d;fill-opacity:1;fill-rule:nonzero;stroke:#000000;stroke-width:0.5;stroke-linecap:round;stroke-linejoin:round;stroke-miterlimit:4;stroke-dasharray:none;stroke-dashoffset:0;stroke-opacity:1" />
            <path
               style="fill:#f7d55d;fill-opacity:1;fill-rule:nonzero;stroke:#000000;stroke-width:0.49999997;stroke-linecap:round;stroke-linejoin:round;stroke-miterlimit:4;stroke-dasharray:none;stroke-dashoffset:0;stroke-opacity:1"
               d="M 13.492534,227.07459 C 9.0184441,232.5933 15.446852,237.09259 19.000877,232.03257"
               id="path2721"
               sodipodi:nodetypes="cc" />
            <path
               style="fill:#f7d55d;fill-opacity:1;fill-rule:nonzero;stroke:#000000;stroke-width:0.49999997;stroke-linecap:round;stroke-linejoin:round;stroke-miterlimit:4;stroke-dasharray:none;stroke-dashoffset:0;stroke-opacity:1"
               d="M 7.1199252,204.89867 C 0.51135868,206.08921 1.0563477,213.63802 6.2124947,212.13777"
               id="path2723"
               sodipodi:nodetypes="cc" />
            <path
               sodipodi:nodetypes="cc"
               id="path2725"
               d="M 7.1199252,204.89867 C 3.4653627,204.80728 5.4594857,199.25815 8.9992901,199.82013"
               style="fill:#f7d55d;fill-opacity:1;fill-rule:nonzero;stroke:#000000;stroke-width:0.49999997;stroke-linecap:round;stroke-linejoin:round;stroke-miterlimit:4;stroke-dasharray:none;stroke-dashoffset:0;stroke-opacity:1" />
            <path
               style="fill:#f7d55d;fill-opacity:1;fill-rule:nonzero;stroke:#000000;stroke-width:0.49999997;stroke-linecap:round;stroke-linejoin:round;stroke-miterlimit:4;stroke-dasharray:none;stroke-dashoffset:0;stroke-opacity:1"
               d="M 12.024687,194.86621 C 9.1735141,193.04304 6.1688887,198.07581 8.9992901,199.82013"
               id="path2727"
               sodipodi:nodetypes="cc" />
            <path
               sodipodi:nodetypes="cc"
               id="path2729"
               d="M 19.902166,229.63845 C 15.428076,235.15716 21.856484,239.65644 25.410509,234.59642"
               style="fill:#f7d55d;fill-opacity:1;fill-rule:nonzero;stroke:#000000;stroke-width:0.49999997;stroke-linecap:round;stroke-linejoin:round;stroke-miterlimit:4;stroke-dasharray:none;stroke-dashoffset:0;stroke-opacity:1" />
            <path
               style="fill:#f7d55d;fill-opacity:1;fill-rule:nonzero;stroke:#000000;stroke-width:0.5;stroke-linecap:round;stroke-linejoin:round;stroke-miterlimit:4;stroke-dasharray:none;stroke-dashoffset:0;stroke-opacity:1"
               d="M 26.93954,230.08433 C 22.748971,235.60304 28.770014,240.10233 32.098822,235.04231"
               id="path2731"
               sodipodi:nodetypes="cc" />
            <path
               sodipodi:nodetypes="cc"
               id="path2733"
               d="M 33.221134,229.74992 C 29.63972,234.60229 34.182587,238.57167 37.79148,235.21204"
               style="fill:#f7d55d;fill-opacity:1;fill-rule:nonzero;stroke:#000000;stroke-width:0.5;stroke-linecap:round;stroke-linejoin:round;stroke-miterlimit:4;stroke-dasharray:none;stroke-dashoffset:0;stroke-opacity:1" />
            <path
               style="fill:#f7d55d;fill-opacity:1;fill-rule:nonzero;stroke:#000000;stroke-width:0.5;stroke-linecap:round;stroke-linejoin:round;stroke-miterlimit:4;stroke-dasharray:none;stroke-dashoffset:0;stroke-opacity:1"
               d="M 38.125896,229.74992 C 34.69247,234.40179 38.725788,238.24213 42.244726,235.59142"
               id="path2735"
               sodipodi:nodetypes="cs" />
          </g>
        </g>
        <g
           id="g12769"
           transform="matrix(-1,0,0,1,152.1092,-0.5808482)"
           style="fill:#f7d55d">
          <g
             transform="translate(19.978024,-159.44)"
             id="g12773"
             style="fill:#f7d55d">
            <path
               style="fill:#f7d55d;fill-opacity:1;fill-rule:nonzero;stroke:none;stroke-width:0.5;stroke-linecap:round;stroke-linejoin:round;stroke-miterlimit:4;stroke-dasharray:none;stroke-dashoffset:0;stroke-opacity:1"
               d="M -1.7110898,188.68918 C -1.7731118,188.69967 -1.8289038,188.73314 -1.8673398,188.78293 C -1.8806308,188.8022 -1.8911498,188.82324 -1.8985898,188.84543 C -1.9197478,188.88365 -1.9305228,188.92675 -1.9298398,188.97043 C -1.9257638,189.00345 -1.9151398,189.03532 -1.8985898,189.06418 C -1.8816338,189.08856 -1.8604698,189.10973 -1.8360898,189.12668 C 1.2353317,192.17023 4.6845037,194.01893 8.9139101,195.25168 C 8.9139111,195.25168 9.6639101,194.50168 9.6639101,194.50168 C 5.4723907,193.27997 1.4925637,191.74075 -1.4923398,188.78293 C -1.5018138,188.77161 -1.5122708,188.76116 -1.5235898,188.75168 C -1.5428578,188.73839 -1.5638968,188.72787 -1.5860898,188.72043 C -1.6243108,188.69927 -1.6674088,188.6885 -1.7110898,188.68918 z M -10.39859,201.28293 C -10.460612,201.29342 -10.516404,201.32689 -10.55484,201.37668 C -10.568131,201.39595 -10.57865,201.41699 -10.58609,201.43918 C -10.60264,201.46804 -10.613264,201.49991 -10.61734,201.53293 C -10.623142,201.60136 -10.60054,201.66917 -10.55484,201.72043 C -7.5922178,204.86898 -2.3582188,206.59504 4.0389107,206.25168 C 4.0389107,206.25168 4.9451607,205.40793 4.9451607,205.40793 C -1.3539338,205.74603 -7.3824618,204.34962 -10.17984,201.37668 C -10.189314,201.36536 -10.199771,201.35491 -10.21109,201.34543 C -10.230358,201.33214 -10.251397,201.32162 -10.27359,201.31418 C -10.311811,201.29302 -10.354909,201.28225 -10.39859,201.28293 z M 2.0701607,216.50168 C -0.069189324,218.15224 -3.1483258,219.29323 -5.9298398,219.72043 C -8.7113538,220.14763 -11.301628,220.09788 -12.64859,219.81418 C -12.67956,219.80827 -12.71137,219.80827 -12.74234,219.81418 C -12.800081,219.81634 -12.855293,219.83842 -12.89859,219.87668 C -12.94429,219.92795 -12.966892,219.99575 -12.96109,220.06418 C -12.957014,220.0972 -12.94639,220.12907 -12.92984,220.15793 C -12.890725,220.227 -12.821138,220.27339 -12.74234,220.28293 C -11.287348,220.58938 -8.5772858,220.84334 -5.7423398,220.40793 C -2.9073938,219.97253 0.32579568,218.92077 2.2576607,217.40793 C 2.2576607,217.40793 2.0701607,216.50168 2.0701607,216.50168 z M 7.8514102,225.31418 C 7.8514112,225.31418 6.8201607,225.40793 6.8201607,225.40793 C 3.2046367,229.86897 -1.4587358,233.48261 -7.8048398,234.84543 C -7.8161588,234.8549 -7.8266158,234.86536 -7.8360898,234.87668 C -7.8582828,234.88412 -7.8793218,234.89464 -7.8985898,234.90793 C -7.9099088,234.9174 -7.9203658,234.92786 -7.9298398,234.93918 C -7.9681018,234.98247 -7.9901868,235.03769 -7.9923398,235.09543 C -7.9981418,235.16386 -7.9755398,235.23166 -7.9298398,235.28293 C -7.9105718,235.29622 -7.8895328,235.30674 -7.8673398,235.31418 C -7.8384798,235.33073 -7.8066078,235.34135 -7.7735898,235.34543 C -7.7426198,235.35134 -7.7107998,235.35139 -7.6798398,235.34543 C -1.1115978,234.08004 4.2112177,230.31297 7.8826602,225.78293 C 7.8826602,225.78293 7.8514102,225.31418 7.8514102,225.31418 z M 12.63266,231.93918 C 8.7502302,239.46551 2.9877237,244.61074 -2.9923398,249.65793 C -3.0036588,249.6674 -3.0141158,249.67786 -3.0235898,249.68918 C -3.0692898,249.74044 -3.0918918,249.80825 -3.0860898,249.87668 C -3.0820138,249.9097 -3.0713898,249.94157 -3.0548398,249.97043 C -3.0473998,249.99262 -3.0368808,250.01366 -3.0235898,250.03293 C -2.9802928,250.07119 -2.9250808,250.09327 -2.8673398,250.09543 C -2.8263448,250.10601 -2.7833348,250.10601 -2.7423398,250.09543 C -2.7179598,250.07847 -2.6967958,250.05731 -2.6798398,250.03293 C 3.3004237,244.98557 9.5403041,240.03832 13.47641,232.40793 C 13.476411,232.40793 12.63266,231.93918 12.63266,231.93918 z M 32.88266,234.97043 C 32.577546,243.93951 30.173195,251.70447 25.88266,258.56418 C 25.882008,258.57459 25.882008,258.58502 25.88266,258.59543 C 25.861502,258.63365 25.850727,258.67675 25.85141,258.72043 C 25.855486,258.75345 25.86611,258.78532 25.88266,258.81418 C 25.907715,258.86968 25.952162,258.91412 26.00766,258.93918 C 26.048655,258.94976 26.091665,258.94976 26.13266,258.93918 C 26.165678,258.9351 26.19755,258.92448 26.22641,258.90793 C 26.248603,258.90049 26.269642,258.88997 26.28891,258.87668 C 26.302201,258.85741 26.31272,258.83637 26.32016,258.81418 C 30.651943,251.88852 33.449577,244.05809 33.75766,235.00168 C 33.757662,235.00168 32.88266,234.97043 32.88266,234.97043 z M 21.28891,235.53293 C 18.688877,247.64591 12.356435,255.95589 3.4764107,265.78292 C 3.4307107,265.83418 3.4081087,265.90199 3.4139107,265.97042 C 3.4179867,266.00344 3.4286107,266.03531 3.4451607,266.06417 C 3.4526007,266.08636 3.4631197,266.1074 3.4764107,266.12667 C 3.5024987,266.15437 3.5345627,266.17574 3.5701607,266.18917 C 3.6011307,266.19508 3.6329407,266.19508 3.6639107,266.18917 C 3.7216517,266.18702 3.7768637,266.16493 3.8201607,266.12667 C 3.8314797,266.1172 3.8410207,266.10591 3.8514107,266.09542 C 10.93582,258.94615 19.873801,248.68131 22.32016,235.65793 C 22.320159,235.65793 21.28891,235.53293 21.28891,235.53293 z"
               id="path12775"
               sodipodi:nodetypes="csssscscsssccssssccsssccsssssscscccccsssssssscccssssssscscccssssssscsccsssssssssc" />
            <path
               sodipodi:nodetypes="cc"
               id="path12777"
               d="M 4.9301957,212.56849 C -0.072694324,215.54998 2.7945187,221.32634 7.0036892,218.41063"
               style="fill:#f7d55d;fill-opacity:1;fill-rule:nonzero;stroke:#000000;stroke-width:0.49999997;stroke-linecap:round;stroke-linejoin:round;stroke-miterlimit:4;stroke-dasharray:none;stroke-dashoffset:0;stroke-opacity:1" />
            <path
               style="fill:#f7d55d;fill-opacity:1;fill-rule:nonzero;stroke:#000000;stroke-width:0.5;stroke-linecap:round;stroke-linejoin:round;stroke-miterlimit:4;stroke-dasharray:none;stroke-dashoffset:0;stroke-opacity:1"
               d="M 5.6484747,219.03494 C 1.4512747,223.43274 6.0411147,228.07157 9.4535741,223.98198"
               id="path12779"
               sodipodi:nodetypes="cc" />
            <path
               sodipodi:nodetypes="cc"
               id="path12781"
               d="M 9.1212301,223.50749 C 5.5331437,228.41491 10.688535,232.41583 13.538757,227.91629"
               style="fill:#f7d55d;fill-opacity:1;fill-rule:nonzero;stroke:#000000;stroke-width:0.5;stroke-linecap:round;stroke-linejoin:round;stroke-miterlimit:4;stroke-dasharray:none;stroke-dashoffset:0;stroke-opacity:1" />
            <path
               style="fill:#f7d55d;fill-opacity:1;fill-rule:nonzero;stroke:#000000;stroke-width:0.49999997;stroke-linecap:round;stroke-linejoin:round;stroke-miterlimit:4;stroke-dasharray:none;stroke-dashoffset:0;stroke-opacity:1"
               d="M 13.492534,227.07459 C 9.0184441,232.5933 15.446852,237.09259 19.000877,232.03257"
               id="path12783"
               sodipodi:nodetypes="cc" />
            <path
               style="fill:#f7d55d;fill-opacity:1;fill-rule:nonzero;stroke:#000000;stroke-width:0.49999997;stroke-linecap:round;stroke-linejoin:round;stroke-miterlimit:4;stroke-dasharray:none;stroke-dashoffset:0;stroke-opacity:1"
               d="M 7.1199252,204.89867 C 0.51135868,206.08921 1.0563477,213.63802 6.2124947,212.13777"
               id="path12785"
               sodipodi:nodetypes="cc" />
            <path
               sodipodi:nodetypes="cc"
               id="path12787"
               d="M 7.1199252,204.89867 C 3.4653627,204.80728 5.4594857,199.25815 8.9992901,199.82013"
               style="fill:#f7d55d;fill-opacity:1;fill-rule:nonzero;stroke:#000000;stroke-width:0.49999997;stroke-linecap:round;stroke-linejoin:round;stroke-miterlimit:4;stroke-dasharray:none;stroke-dashoffset:0;stroke-opacity:1" />
            <path
               style="fill:#f7d55d;fill-opacity:1;fill-rule:nonzero;stroke:#000000;stroke-width:0.49999997;stroke-linecap:round;stroke-linejoin:round;stroke-miterlimit:4;stroke-dasharray:none;stroke-dashoffset:0;stroke-opacity:1"
               d="M 12.024687,194.86621 C 9.1735141,193.04304 6.1688887,198.07581 8.9992901,199.82013"
               id="path12789"
               sodipodi:nodetypes="cc" />
            <path
               sodipodi:nodetypes="cc"
               id="path12791"
               d="M 19.902166,229.63845 C 15.428076,235.15716 21.856484,239.65644 25.410509,234.59642"
               style="fill:#f7d55d;fill-opacity:1;fill-rule:nonzero;stroke:#000000;stroke-width:0.49999997;stroke-linecap:round;stroke-linejoin:round;stroke-miterlimit:4;stroke-dasharray:none;stroke-dashoffset:0;stroke-opacity:1" />
            <path
               style="fill:#f7d55d;fill-opacity:1;fill-rule:nonzero;stroke:#000000;stroke-width:0.5;stroke-linecap:round;stroke-linejoin:round;stroke-miterlimit:4;stroke-dasharray:none;stroke-dashoffset:0;stroke-opacity:1"
               d="M 26.93954,230.08433 C 22.748971,235.60304 28.770014,240.10233 32.098822,235.04231"
               id="path12793"
               sodipodi:nodetypes="cc" />
            <path
               sodipodi:nodetypes="cc"
               id="path12795"
               d="M 33.221134,229.74992 C 29.63972,234.60229 34.182587,238.57167 37.79148,235.21204"
               style="fill:#f7d55d;fill-opacity:1;fill-rule:nonzero;stroke:#000000;stroke-width:0.5;stroke-linecap:round;stroke-linejoin:round;stroke-miterlimit:4;stroke-dasharray:none;stroke-dashoffset:0;stroke-opacity:1" />
            <path
               style="fill:#f7d55d;fill-opacity:1;fill-rule:nonzero;stroke:#000000;stroke-width:0.5;stroke-linecap:round;stroke-linejoin:round;stroke-miterlimit:4;stroke-dasharray:none;stroke-dashoffset:0;stroke-opacity:1"
               d="M 38.125896,229.74992 C 34.69247,234.40179 38.725788,238.24213 42.244726,235.59142"
               id="path12797"
               sodipodi:nodetypes="cs" />
          </g>
        </g>
      </g>
      <g
         transform="translate(74.15834,62.811419)"
         id="g11626"
         style="fill:#f7d55d">
        <path
           sodipodi:nodetypes="cssccssc"
           id="path11628"
           d="M -21.099326,-41.666485 C -19.813267,-40.439558 -18.283773,-39.257935 -15.573536,-39.14121 C -11.916665,-38.983717 -6.2427281,-43.537085 -1.8916891,-43.349695 C 1.7209799,-43.194105 4.4818909,-41.354041 6.2829339,-39.753365 L 5.5150819,-35.276225 C 4.4311099,-36.661812 1.7799259,-39.983781 -1.8903751,-40.141853 C -5.9226193,-40.315513 -10.848446,-36.259906 -15.076127,-36.441983 C -18.468533,-36.588087 -20.852498,-39.884597 -21.099326,-41.666485 z"
           style="fill:#f7d55d;fill-opacity:1;fill-rule:nonzero;stroke:#000000;stroke-width:0.5;stroke-linecap:round;stroke-linejoin:round;stroke-miterlimit:4;stroke-dasharray:none;stroke-dashoffset:0;stroke-opacity:1" />
        <path
           style="fill:#f7d55d;fill-opacity:1;fill-rule:evenodd;stroke:#000000;stroke-width:0.5;stroke-linecap:butt;stroke-linejoin:miter;stroke-miterlimit:4;stroke-dasharray:none;stroke-opacity:1"
           d="M -7.5517577,-52.856691 C -11.585397,-53.719319 -18.291368,-48.892656 -13.514263,-42.410955 C -12.65334,-46.816374 -7.3040001,-47.70925 -5.1817721,-45.67335 C -0.56403119,-46.198363 5.5621792,-44.999686 5.2965037,-38.402511 C 0.44988492,-38.560444 -7.3621037,-38.321701 -8.5439605,-32.802858 C -2.706192,-35.091545 7.6451195,-30.519934 7.4332556,-36.331417 C 6.9787627,-35.275758 6.7222923,-35.552185 6.4885894,-35.842386 C 6.9811589,-37.908431 9.4638256,-40.79946 7.5495259,-42.278088 C 2.34142,-46.300891 -0.49405985,-47.825628 -7.5517577,-52.856691 z"
           id="path11632"
           sodipodi:nodetypes="cccccccsc" />
        <path
           style="fill:#f7d55d;fill-opacity:1;fill-rule:evenodd;stroke:#000000;stroke-width:0.5;stroke-linecap:butt;stroke-linejoin:miter;stroke-miterlimit:4;stroke-dasharray:none;stroke-opacity:1"
           d="M -7.4773741,-52.901756 C -2.3181851,-52.377656 2.6137523,-53.631283 7.5210801,-54.589508 C 5.3756587,-54.345817 1.2416646,-53.257491 -0.077471617,-51.794055 C -0.8818531,-50.901682 -2.2040997,-50.028914 -3.1463624,-50.571031 C -3.8458566,-50.973475 -4.3432412,-52.046959 -4.9666842,-52.370289 C -5.5901272,-52.69362 -6.3396285,-52.266797 -7.4773741,-52.901756 L -7.4773741,-52.901756 z"
           id="path11634"
           sodipodi:nodetypes="ccssscc" />
      </g>
    </g>
  </g>
  <g
     inkscape:groupmode="layer"
     id="layer2"
     inkscape:label="Reflet final"
     style="display:inline"
     sodipodi:insensitive="true">
    <path
       sodipodi:nodetypes="cccccc"
       d="M 300.00001,658.5 C 300.00001,658.5 598.50001,546.17969 598.50001,260.72817 C 598.50001,-24.723334 598.50001,2.1764865 598.50001,2.1764865 L 1.5,2.1764865 L 1.5,260.72817 C 1.5,546.17969 300.00001,658.5 300.00001,658.5 z"
       style="opacity:1;fill:url(#radialGradient3163);fill-opacity:1;fill-rule:evenodd;stroke:#000000;stroke-width:2;stroke-linecap:butt;stroke-linejoin:miter;stroke-miterlimit:4;stroke-dasharray:none;stroke-opacity:1"
       id="path2875"
       inkscape:export-xdpi="144"
       inkscape:export-ydpi="144" />
  </g>
</svg>
