<?xml version="1.0" encoding="UTF-8" standalone="no"?>
<svg
   xmlns:dc="http://purl.org/dc/elements/1.1/"
   xmlns:cc="http://creativecommons.org/ns#"
   xmlns:rdf="http://www.w3.org/1999/02/22-rdf-syntax-ns#"
   xmlns:svg="http://www.w3.org/2000/svg"
   xmlns="http://www.w3.org/2000/svg"
   xmlns:xlink="http://www.w3.org/1999/xlink"
   xmlns:sodipodi="http://sodipodi.sourceforge.net/DTD/sodipodi-0.dtd"
   xmlns:inkscape="http://www.inkscape.org/namespaces/inkscape"
   height="660"
   width="600"
   version="1.0"
   id="svg2"
   sodipodi:version="0.32"
   inkscape:version="0.92.2 (5c3e80d, 2017-08-06)"
   sodipodi:docname="Blason_Serpentard.svg"
   inkscape:export-filename="E:\Alter\Blasons\Hogwarts\serpentard.png"
   inkscape:export-xdpi="144"
   inkscape:export-ydpi="144"
   inkscape:output_extension="org.inkscape.output.svg.inkscape"
   style="display:inline">
  <metadata
     id="metadata49">
    <rdf:RDF>
      <cc:Work
         rdf:about="">
        <dc:format>image/svg+xml</dc:format>
        <dc:type
           rdf:resource="http://purl.org/dc/dcmitype/StillImage" />
        <dc:title />
        <dc:date>09-OCT-2017</dc:date>
        <dc:creator>
          <cc:Agent>
            <dc:title>Denis Arnaud (Bibar)</dc:title>
          </cc:Agent>
        </dc:creator>
        <cc:license
           rdf:resource="http://creativecommons.org/publicdomain/zero/1.0/" />
        <dc:language>en</dc:language>
        <dc:subject>
          <rdf:Bag />
        </dc:subject>
        <dc:description>Vert a snake argent</dc:description>
      </cc:Work>
      <cc:License
         rdf:about="http://creativecommons.org/publicdomain/zero/1.0/">
        <cc:permits
           rdf:resource="http://creativecommons.org/ns#Reproduction" />
        <cc:permits
           rdf:resource="http://creativecommons.org/ns#Distribution" />
        <cc:permits
           rdf:resource="http://creativecommons.org/ns#DerivativeWorks" />
      </cc:License>
    </rdf:RDF>
  </metadata>
  <sodipodi:namedview
     inkscape:window-height="962"
     inkscape:window-width="1280"
     inkscape:pageshadow="2"
     inkscape:pageopacity="0.0"
     guidetolerance="10.0"
     gridtolerance="10.0"
     objecttolerance="10.0"
     borderopacity="1.0"
     bordercolor="#666666"
     pagecolor="#ffffff"
     id="base"
     showgrid="false"
     height="660px"
     inkscape:zoom="0.86267027"
     inkscape:cx="140.32573"
     inkscape:cy="217.47188"
     inkscape:window-x="-8"
     inkscape:window-y="-8"
     inkscape:current-layer="layer4"
     showguides="true"
     inkscape:guide-bbox="true"
     inkscape:window-maximized="1">
    <sodipodi:guide
       position="298.36066,404.91803"
       orientation="1,0"
       id="guide915"
       inkscape:locked="false" />
  </sodipodi:namedview>
  <desc
     id="desc4">Flag of Canton of Valais (Wallis)</desc>
  <defs
     id="defs6">
    <linearGradient
       id="linearGradient2893">
      <stop
         style="stop-color:white;stop-opacity:0.3137255;"
         offset="0"
         id="stop2895" />
      <stop
         id="stop2897"
         offset="0.19"
         style="stop-color:white;stop-opacity:0.25098041;" />
      <stop
         style="stop-color:#6b6b6b;stop-opacity:0.1254902;"
         offset="0.60000002"
         id="stop2901" />
      <stop
         style="stop-color:black;stop-opacity:0.1254902;"
         offset="1"
         id="stop2899" />
    </linearGradient>
    <radialGradient
       inkscape:collect="always"
       xlink:href="#linearGradient2893"
       id="radialGradient3163"
       gradientUnits="userSpaceOnUse"
       gradientTransform="matrix(1.353218,0,0,1.348928,-77.62935,-85.74693)"
       cx="221.44487"
       cy="226.33101"
       fx="221.44487"
       fy="226.33101"
       r="300" />
  </defs>
  <g
     inkscape:groupmode="layer"
     id="layer3"
     inkscape:label="Fond écu"
     style="display:inline"
     sodipodi:insensitive="true">
    <path
       id="path2855"
       style="fill:#5ab532;fill-opacity:1;fill-rule:evenodd;stroke:none;stroke-width:1px;stroke-linecap:butt;stroke-linejoin:miter;stroke-opacity:1"
       d="m 300,658.5 c 0,0 298.50001,-112.32031 298.50001,-397.77183 0,-285.451524 0,-258.5516935 0,-258.5516935 H 1.5 V 260.72817 C 1.5,546.17969 300,658.5 300,658.5 Z"
       sodipodi:nodetypes="cccccc"
       inkscape:connector-curvature="0" />
  </g>
  <g
     inkscape:groupmode="layer"
     id="layer4"
     inkscape:label="diapry">
    <path
       id="path6673-9-6-2"
       style="display:inline;fill:none;fill-rule:evenodd;stroke:#cdcdcd;stroke-width:2.38700008;stroke-linecap:round;stroke-linejoin:round;stroke-miterlimit:4;stroke-dasharray:2.387, 4.774;stroke-dashoffset:0;stroke-opacity:1"
       d="m 511.24004,471.38224 c 1.1844,-0.9712 -0.5721,-2.2865 -1.4259,-2.2285 -2.3136,0.1573 -3.1304,3.3322 -2.5111,5.4568 1.1077,3.8005 5.2134,4.9653 8.2147,3.4571 4.4044,-2.2134 5.6727,-8.5039 3.5964,-13.1421 -2.7674,-6.182 -9.8203,-7.8929 -15.0035,-4.6856 -6.5225,4.0361 -9.997,13.57148 -4.6816,20.8273 5.6914,7.76909 13.5793,8.24621 20.9228,3.30601 8.6541,-8.14018 10.32081,-17.2411 5.18731,-26.7738 -8.24518,-9.26712 -19.3739,-11.50882 -27.13201,-6.27331 -5.4701,3.8501 -9.1206,10.3382 -10.2976,17.7004 -1.1605,7.2592 -4.8575,13.6047 -10.2508,17.4007 -9.4969,6.6845 -22.6541,3.8632 -28.581,-7.1427 -5.1335,-9.5328 -2.8871,-22.6908 5.7669,-28.5126 7.3435,-4.9402 17.4362,-2.6751 21.7923,5.9141 3.5966,7.092 1.8409,16.7913 -4.6817,20.8274 -5.1832,3.2073 -12.236,1.4964 -15.0034,-4.6856 -2.0763,-4.6382 -0.8081,-10.9287 3.5964,-13.1421 3.0012,-1.5082 7.1069,-0.3434 8.2146,3.457 0.6193,2.1247 -0.1974,5.2996 -2.5111,5.4568 -0.8538,0.058 -2.6103,-1.2572 -1.4259,-2.2284 m 78.8176,-54.7302 c 6.9483,-5.0021 3.992,-15.2002 -2.4978,-15.2586 -5.8459,-0.053 -12.8805,3.9544 -12.7128,11.3885 0.2517,11.1555 3.7644,16.5422 14.5896,17.225 11.5566,0.729 26.2415,-17.3059 12.375,-34.40872 -15.6905,-19.35257 -48.3213,-10.53549 -64.235,15.79782 -1.1113,1.839 -2.1392,3.7425 -3.0794,5.6999 m -54.9912,24.2254 c -3.1809,-7.0306 6.8024,-8.3227 10.3224,-5.985 9.5389,6.3349 6.9451,21.8369 0.2514,29.3559 -11.9733,13.4496 -31.6594,8.3482 -41.5407,-5.4157 -14.5014,-20.1992 -7.874,-50.0567 9.8193,-64.69687 23.5824,-19.51298 56.8456,-9.51694 72.7592,16.81637 1.1113,1.839 2.1392,3.7425 3.0794,5.6999 m -19.291,9.3878 c 1.4924,0.1911 0.9638,-2.1829 0.2806,-2.8078 -1.8516,-1.6934 -4.4122,0.076 -5.2412,2.1727 -1.483,3.7513 0.9199,7.8517 4.1191,9.0588 4.6948,1.7714 9.5027,-2.0076 10.7629,-7.1534 1.6797,-6.8584 -2.6254,-13.6822 -8.5187,-15.3096 -7.4162,-2.048 -14.6779,3.9354 -16.2847,12.1339 -1.946,9.9295 4.3266,19.5553 12.9183,21.5606 10.1251,2.3631 19.8735,-5.8601 21.8064,-17.1146 0.8314,-4.8405 0.2225,-9.9258 -1.6538,-14.3701 m 20.0709,13.0112 c -1.4943,0.1704 -0.9401,-2.1962 -0.2501,-2.8116 1.8697,-1.6676 4.411,0.1368 5.2173,2.2453 1.4422,3.7715 -1.0049,7.8383 -4.2168,9.001 -4.7136,1.7062 -9.4803,-2.1392 -10.6848,-7.302 -1.6053,-6.8813 2.7732,-13.6448 8.6837,-15.1905 7.4377,-1.945 14.6342,4.1386 16.1522,12.3588 1.8385,9.9557 -4.5378,19.4939 -13.1505,21.3799 -10.1499,2.2225 -19.8086,-6.1351 -21.6197,-17.4155 -0.779,-4.8517 -0.1151,-9.9282 1.8092,-14.3461 m -55.6003,90.8695 c -3.1809,7.0307 6.8024,8.3227 10.3224,5.985 9.5389,-6.3349 6.9451,-21.8369 0.2514,-29.3559 -11.9733,-13.4496 -31.6594,-8.3483 -41.5407,5.4157 -14.5014,20.1992 -8.7245,51.1502 9.8193,64.6969 12.85986,9.08028 44.38422,9.80673 67.25312,-16.2368 m -10.70552,-15.6673 c 1.4924,-0.1911 0.9638,2.183 0.2806,2.8078 -1.8516,1.6934 -4.4122,-0.076 -5.2412,-2.1727 -1.483,-3.7513 0.9199,-7.8517 4.1191,-9.0588 4.6948,-1.7714 9.5027,2.0076 10.7629,7.1534 1.6797,6.8584 -2.6254,13.6822 -8.5187,15.3096 -7.4162,2.048 -14.6779,-3.9354 -16.2847,-12.1339 -1.946,-9.9295 4.3266,-19.5553 12.9183,-21.5606 10.1251,-2.3631 19.8735,5.8601 21.8064,17.1146 0.8314,4.8405 -5.37718,13.7636 -9.13718,18.2079 m -113.41302,71.02084 c 6.0789,-5.0021 -2.2484,-14.85481 -6.4409,-15.38221 -9.53898,-1.1998 -18.6218,10.756 -13.08248,21.7679 1.99482,3.9656 13.63209,12.5196 27.04129,5.109 16.28,-8.9971 13.29829,-33.7739 1.85849,-42.859 -23.9694,-19.03573 -56.84554,-9.517 -72.75923,16.8164 -1.1113,1.8389 -2.13915,3.7424 -3.07934,5.6998 m 18.66854,10.5696 c -1.49428,0.1703 -0.94009,-2.1962 -0.25014,-2.8116 1.86974,-1.6676 4.41102,0.1367 5.21732,2.2452 1.44228,3.7716 -1.00483,7.8384 -4.21676,9.001 -4.71364,1.7063 -9.48029,-2.1391 -10.68477,-7.302 -1.60538,-6.8812 2.77317,-13.6448 8.68366,-15.1904 7.43775,-1.945 14.63421,4.1385 16.15222,12.3587 1.83851,9.9558 -4.53781,19.4939 -13.15056,21.3799 -10.14983,2.2226 -19.8086,-6.1351 -21.61967,-17.4155 -0.77894,-4.8517 -0.11511,-9.9282 1.80917,-14.3461 M 276.56519,471.38223 c -1.18437,-0.97118 0.57209,-2.28647 1.42588,-2.22846 2.3137,0.15726 3.13041,3.33218 2.51113,5.45681 -1.10771,3.8005 -5.21338,4.96526 -8.21465,3.45703 -4.40447,-2.21335 -5.67271,-8.50386 -3.5964,-13.14207 2.76741,-6.18198 9.82022,-7.89291 15.00344,-4.68559 6.52256,4.0361 8.27831,13.73542 4.68166,20.82734 -4.35603,8.58928 -14.44873,10.85434 -21.79223,5.91418 -8.65406,-5.82182 -10.90044,-18.97989 -5.76692,-28.51261 5.92686,-11.00591 19.08412,-13.82721 28.58102,-7.14274 5.47011,3.85017 9.12063,10.33819 10.29756,17.70038 1.16049,7.25925 4.85756,13.6047 10.2508,17.40077 9.4969,6.68447 22.65417,3.86316 28.58102,-7.14276 5.13351,-9.53273 2.88716,-22.69078 -5.76692,-28.51259 -7.3435,-4.94015 -17.43619,-2.67511 -21.79222,5.91417 -3.59666,7.09192 -1.84091,16.79123 4.68165,20.82732 5.18321,3.20734 12.23604,1.49641 15.00344,-4.6856 2.07632,-4.6382 0.80808,-10.9287 -3.59639,-13.14207 -3.00126,-1.50819 -7.10693,-0.34344 -8.21467,3.45704 -0.61926,2.12463 0.19744,5.29955 2.51114,5.45681 0.85379,0.058 2.61026,-1.25728 1.42588,-2.22846 M 244.8312,436.31026 c -3.18092,-7.03066 6.80233,-8.32272 10.32233,-5.98505 9.53897,6.33493 6.94512,21.83697 0.25148,29.3559 -11.97336,13.4496 -31.65939,8.34828 -41.54078,-5.41568 -14.50134,-20.19916 -7.87396,-50.05672 9.81936,-64.69686 23.58242,-19.51298 56.84555,-9.51694 72.75924,16.81642 1.1113,1.83894 2.13915,3.74243 3.07934,5.69985 m 54.99124,24.22542 c 3.18092,-7.03066 -6.80233,-8.32272 -10.32233,-5.98505 -9.53897,6.33493 -6.94512,21.83697 -0.25148,29.3559 11.97336,13.4496 31.65939,8.34828 41.54078,-5.41568 14.50134,-20.19916 7.87396,-50.05672 -9.81936,-64.69686 -23.58242,-19.51298 -56.84555,-9.51694 -72.75924,16.81642 -1.1113,1.83894 -2.13915,3.74243 -3.07934,5.69985 m 19.29095,9.38785 c -1.49232,0.19107 -0.96378,-2.18299 -0.28053,-2.80787 1.85156,-1.69339 4.41216,0.0756 5.24121,2.17273 1.48296,3.75131 -0.91998,7.85167 -4.1191,9.05876 -4.69482,1.77146 -9.50271,-2.00757 -10.76293,-7.15333 -1.67969,-6.85848 2.62538,-13.68222 8.51871,-15.30966 7.41615,-2.04797 14.67787,3.93539 16.28467,12.13393 1.94605,9.92954 -4.32662,19.55532 -12.91833,21.56056 -10.12504,2.3631 -19.87347,-5.86006 -21.80641,-17.11454 -0.83135,-4.84052 -0.22247,-9.92583 1.65388,-14.37008 m -20.07093,13.01115 c 1.49428,0.17037 0.94009,-2.19619 0.25014,-2.81155 -1.86974,-1.6676 -4.41102,0.13672 -5.21732,2.24521 -1.44228,3.77159 1.00483,7.83834 4.21676,9.001 4.71364,1.70625 9.48029,-2.13914 10.68477,-7.30198 1.60538,-6.88126 -2.77317,-13.64481 -8.68366,-15.19044 -7.43775,-1.94503 -14.63421,4.13854 -16.15222,12.35874 -1.83851,9.95576 4.53781,19.49389 13.15056,21.37989 10.14983,2.22258 19.8086,-6.13509 21.61967,-17.41551 0.77894,-4.85169 0.11511,-9.92818 -1.80917,-14.34608 m -54.08196,90.86951 c -3.18092,7.03067 6.80233,8.32273 10.32233,5.98506 9.53897,-6.33494 6.94512,-21.83698 0.25148,-29.35592 -11.97336,-13.4496 -31.65939,-8.34828 -41.54078,5.41569 -14.50134,20.19917 -7.87396,50.05672 9.81936,64.69686 23.58242,19.51299 56.84555,9.51695 72.75924,-16.81642 1.1113,-1.83894 2.13915,-3.74243 3.07934,-5.69985 m 54.99124,-24.22542 c 3.18092,7.03067 -6.80233,8.32273 -10.32233,5.98506 -9.53897,-6.33494 -6.94512,-21.83698 -0.25148,-29.35592 11.97336,-13.4496 31.65939,-8.34828 41.54078,5.41569 14.50134,20.19917 7.87396,50.05672 -9.81936,64.69686 -23.58242,19.51299 -56.84555,9.51695 -72.75924,-16.81642 -1.1113,-1.83894 -2.13915,-3.74243 -3.07934,-5.69985 m 19.29095,-9.38784 c -1.49232,-0.19107 -0.96378,2.18299 -0.28053,2.80787 1.85156,1.69338 4.41216,-0.0756 5.24121,-2.17273 1.48296,-3.75132 -0.91998,-7.85167 -4.1191,-9.05876 -4.69482,-1.77146 -9.50271,2.00757 -10.76293,7.15333 -1.67969,6.85847 2.62538,13.68221 8.51871,15.30965 7.41615,2.04797 14.67787,-3.93539 16.28467,-12.13392 1.94605,-9.92954 -4.32662,-19.55533 -12.91833,-21.56057 -10.12504,-2.3631 -19.87347,5.86006 -21.80641,17.11455 -0.83135,4.84052 -0.22247,9.92582 1.65388,14.37007 m -20.07093,-13.01114 c 1.49428,-0.17038 0.94009,2.19619 0.25014,2.81155 -1.86974,1.6676 -4.41102,-0.13672 -5.21732,-2.24521 -1.44228,-3.77159 1.00483,-7.83834 4.21676,-9.001 4.71364,-1.70625 9.48029,2.13914 10.68477,7.30198 1.60538,6.88126 -2.77317,13.6448 -8.68366,15.19043 -7.43775,1.94503 -14.63421,-4.13854 -16.15222,-12.35873 -1.83851,-9.95576 4.53781,-19.4939 13.15056,-21.3799 10.14983,-2.22258 19.8086,6.1351 21.61967,17.41552 0.77894,4.85169 0.11511,9.92817 -1.80917,14.34607 M 87.804277,471.38223 c -1.18437,-0.97118 0.57208,-2.28647 1.42588,-2.22846 2.31369,0.15726 3.13041,3.33218 2.51113,5.45681 -1.10772,3.8005 -5.21339,4.96526 -8.21466,3.45703 -4.40447,-2.21335 -5.67271,-8.50386 -3.59639,-13.14207 2.7674,-6.18198 9.82022,-7.89291 15.00343,-4.68559 6.522563,4.0361 10.596693,8.22926 7.000033,15.32118 -4.35602,8.58928 -12.999721,14.04212 -20.343221,9.10196 -8.65407,-5.82182 -14.667812,-16.66151 -9.534292,-26.19423 5.92686,-11.00591 19.08411,-13.82721 28.581013,-7.14274 5.47011,3.85017 9.12063,10.33819 10.29756,17.70038 1.16049,7.25925 4.85756,13.6047 10.25079,17.40077 9.4969,6.68447 22.65417,3.86316 28.58102,-7.14276 5.13351,-9.53273 2.88715,-22.69078 -5.76692,-28.51259 -7.3435,-4.94015 -17.4362,-2.67511 -21.79223,5.91417 -3.59665,7.09192 -1.8409,16.79123 4.68166,20.82732 5.18321,3.20734 12.23604,1.49641 15.00344,-4.6856 2.07631,-4.6382 0.80808,-10.9287 -3.5964,-13.14207 -3.00126,-1.50819 -7.10692,-0.34344 -8.21466,3.45704 -0.61926,2.12463 0.19744,5.29955 2.51114,5.45681 0.85379,0.058 2.61026,-1.25728 1.42588,-2.22846 M 55.200893,411.64096 c -6.948302,-5.00207 -3.991989,-15.20022 2.497778,-15.25858 5.845881,-0.0526 12.880522,3.95436 12.712788,11.38843 -0.2517,11.15552 -3.7644,16.5422 -14.589579,17.22504 -11.556618,0.72897 -26.241525,-17.30589 -12.375027,-34.40873 15.690526,-19.35257 48.321364,-10.53549 64.235047,15.79787 1.11131,1.83894 2.13916,3.74243 3.07935,5.69985 m 54.99122,24.22542 c 3.18092,-7.03066 -6.80233,-8.32272 -10.32233,-5.98505 -9.53897,6.33493 -6.94512,21.83697 -0.25148,29.3559 11.97336,13.4496 31.65939,8.34828 41.54078,-5.41568 14.50134,-20.19916 7.87396,-50.05672 -9.81936,-64.69686 -23.58242,-19.51298 -56.84555,-9.51694 -72.75923,16.81642 -1.1113,1.83894 -2.13915,3.74243 -3.07934,5.69985 m 19.29095,9.38785 c -1.49232,0.19107 -0.96378,-2.18299 -0.28053,-2.80787 1.85156,-1.69339 4.41216,0.0756 5.24121,2.17273 1.48296,3.75131 -0.91998,7.85167 -4.1191,9.05876 -4.69482,1.77146 -9.50271,-2.00757 -10.76293,-7.15333 -1.67969,-6.85848 2.62538,-13.68222 8.51871,-15.30966 7.41615,-2.04797 14.67787,3.93539 16.28467,12.13393 1.94605,9.92954 -4.32662,19.55532 -12.91833,21.56056 -10.12504,2.3631 -19.87346,-5.86006 -21.8064,-17.11454 -0.83135,-4.84052 -0.22247,-9.92583 1.65388,-14.37008 m -20.070923,13.01115 c 1.49427,0.17037 0.94009,-2.19619 0.25013,-2.81155 -1.86973,-1.6676 -4.41101,0.13672 -5.21731,2.24521 -1.44228,3.77159 1.00483,7.83834 4.21676,9.001 4.71364,1.70625 9.480283,-2.13914 10.684763,-7.30198 1.60538,-6.88126 -2.773166,-13.64481 -8.683653,-15.19044 -7.43775,-1.94503 -14.63421,4.13854 -16.15222,12.35874 -1.83851,9.95576 4.5378,19.49389 13.15056,21.37989 10.149823,2.22258 19.808593,-6.13509 21.619663,-17.41551 0.77894,-4.85169 0.11511,-9.92818 -1.80917,-14.34608 m 55.60023,90.86951 c 3.18092,7.03067 -6.80233,8.32273 -10.32233,5.98506 -9.53897,-6.33493 -6.94512,-21.83697 -0.25148,-29.35592 11.97336,-13.4496 31.65939,-8.34828 41.54078,5.41569 14.50134,20.19917 8.68956,51.10249 -9.81936,64.69687 -18.8732,13.86193 -44.67404,7.8506 -69.7888,-17.25113 m 13.24118,-14.65299 c -1.49232,-0.19107 -0.96378,2.18299 -0.28053,2.80787 1.85156,1.69338 4.41216,-0.0756 5.24121,-2.17273 1.48296,-3.75131 -0.91998,-7.85167 -4.1191,-9.05876 -4.69482,-1.77146 -9.50271,2.00757 -10.76293,7.15333 -1.67969,6.85847 2.62538,13.68221 8.51871,15.30965 7.41615,2.04797 14.67787,-3.93539 16.28467,-12.13392 1.94605,-9.92954 -4.32662,-19.55533 -12.91833,-21.56057 -10.12504,-2.3631 -19.87346,5.86007 -21.8064,17.11455 -0.83135,4.84052 2.84148,12.74932 6.60152,17.19357 m 116.23848,71.45554 c -6.0789,-5.00207 0.50967,-15.72421 4.70216,-16.25155 9.53897,-1.19981 18.04219,10.75601 12.50287,21.7679 -1.99482,3.96561 -13.34234,11.93996 -26.75152,4.5294 -16.27995,-8.99708 -11.55946,-31.74539 -0.11968,-40.83047 23.96938,-19.03565 56.84555,-9.51695 72.75924,16.81642 1.1113,1.83894 2.13915,3.74243 3.07934,5.69985 m -18.66854,10.56951 c 1.49428,0.17037 0.94009,-2.19619 0.25014,-2.81155 -1.86974,-1.6676 -4.41102,0.13672 -5.21732,2.24521 -1.44228,3.7716 1.00483,7.83835 4.21676,9.00101 4.71364,1.70625 9.48029,-2.13914 10.68477,-7.30199 1.60538,-6.88126 -2.77317,-13.64481 -8.68366,-15.19044 -7.43775,-1.94503 -14.63421,4.13854 -16.15222,12.35874 -1.83851,9.95577 4.53781,19.4939 13.15056,21.3799 10.14983,2.22258 19.8086,-6.13509 21.61967,-17.41552 0.77894,-4.85169 0.11511,-9.92818 -1.80917,-14.34608 M 275.14793,106.72761 c -1.18437,-0.97118 0.57209,-2.28647 1.42588,-2.22846 2.3137,0.15726 3.13041,3.33218 2.51113,5.45681 -1.10771,3.80048 -5.21338,4.96524 -8.21465,3.45703 -4.40447,-2.21335 -5.67271,-8.50386 -3.5964,-13.14207 2.76741,-6.18198 9.82022,-7.89291 15.00344,-4.68559 6.52256,4.0361 8.27831,13.73542 4.68166,20.82732 -4.35603,8.58928 -14.44873,10.85434 -21.79223,5.91418 -8.65406,-5.82182 -10.90044,-18.97987 -5.76692,-28.51259 5.92686,-11.00591 19.08412,-13.82721 28.58102,-7.14274 5.47011,3.85017 9.12063,10.33819 10.29756,17.70038 1.16049,7.25925 4.85756,13.60468 10.2508,17.40075 9.4969,6.68447 22.65417,3.86317 28.58102,-7.14275 5.13351,-9.53272 2.88716,-22.69077 -5.76692,-28.51258 -7.3435,-4.94015 -17.43619,-2.67511 -21.79222,5.91417 -3.59666,7.09192 -1.84091,16.79123 4.68165,20.82732 5.18321,3.20733 12.23604,1.4964 15.00344,-4.6856 2.07632,-4.6382 0.80808,-10.9287 -3.59639,-13.14207 -3.00126,-1.50819 -7.10693,-0.34344 -8.21467,3.45704 -0.61926,2.12463 0.19744,5.29955 2.51114,5.45681 0.85379,0.058 2.61026,-1.25728 1.42588,-2.22846 M 243.41394,71.65564 c -3.18092,-7.03066 6.80233,-8.32272 10.32233,-5.98505 9.53897,6.33493 6.94512,21.83697 0.25148,29.3559 -11.97336,13.4496 -31.65939,8.34828 -41.54078,-5.41568 -14.50134,-20.19916 -7.87396,-50.05672 9.81936,-64.69686 23.58242,-19.51299 56.84555,-9.51695 72.75924,16.81642 1.1113,1.83894 2.13915,3.74243 3.07934,5.69985 m 54.99124,24.22542 c 3.18092,-7.03066 -6.80233,-8.32272 -10.32233,-5.98505 -9.53897,6.33493 -6.94512,21.83697 -0.25148,29.3559 11.97336,13.4496 31.65939,8.34828 41.54078,-5.41568 14.50134,-20.19916 7.87396,-50.05672 -9.81936,-64.69686 -23.58242,-19.51299 -56.84555,-9.51695 -72.75924,16.81642 -1.1113,1.83894 -2.13915,3.74243 -3.07934,5.69985 m 19.29095,9.38785 c -1.49232,0.19107 -0.96378,-2.18299 -0.28053,-2.80787 1.85156,-1.69339 4.41216,0.0756 5.24121,2.17273 1.48296,3.75131 -0.91998,7.85167 -4.1191,9.05876 -4.69482,1.77146 -9.50271,-2.00757 -10.76293,-7.15333 -1.67969,-6.85848 2.62538,-13.68222 8.51871,-15.30966 7.41615,-2.04797 14.67787,3.93539 16.28467,12.13393 1.94605,9.92954 -4.32662,19.55532 -12.91833,21.56056 -10.12504,2.3631 -19.87347,-5.86006 -21.80641,-17.11454 -0.83135,-4.84052 -0.22247,-9.92583 1.65388,-14.37008 m -20.07093,13.01115 c 1.49428,0.17037 0.94009,-2.19619 0.25014,-2.81155 -1.86974,-1.6676 -4.41102,0.13672 -5.21732,2.24521 -1.44228,3.77159 1.00483,7.83834 4.21676,9.001 4.71364,1.70625 9.48029,-2.13914 10.68477,-7.30198 1.60538,-6.88126 -2.77317,-13.64481 -8.68366,-15.19044 -7.43775,-1.94503 -14.63421,4.13854 -16.15222,12.35874 -1.83851,9.95576 4.53781,19.49389 13.15056,21.37989 10.14983,2.22258 19.8086,-6.13509 21.61967,-17.41551 0.77894,-4.85169 0.11511,-9.92818 -1.80917,-14.34608 m -54.08196,90.8695 c -3.18092,7.03066 6.80233,8.32272 10.32233,5.98505 9.53897,-6.33493 6.94512,-21.83697 0.25148,-29.3559 -11.97336,-13.4496 -31.65939,-8.34828 -41.54078,5.41568 -14.50134,20.19916 -7.87396,50.05672 9.81936,64.69686 23.58242,19.51299 56.84555,9.51695 72.75924,-16.81642 1.1113,-1.83894 2.13915,-3.74243 3.07934,-5.69985 m 54.99124,-24.22542 c 3.18092,7.03066 -6.80233,8.32272 -10.32233,5.98505 -9.53897,-6.33493 -6.94512,-21.83697 -0.25148,-29.3559 11.97336,-13.4496 31.65939,-8.34828 41.54078,5.41568 14.50134,20.19916 7.87396,50.05672 -9.81936,64.69686 -23.58242,19.51299 -56.84555,9.51695 -72.75924,-16.81642 -1.1113,-1.83894 -2.13915,-3.74243 -3.07934,-5.69985 m 19.29095,-9.38785 c -1.49232,-0.19107 -0.96378,2.18299 -0.28053,2.80787 1.85156,1.69339 4.41216,-0.0756 5.24121,-2.17273 1.48296,-3.75131 -0.91998,-7.85167 -4.1191,-9.05876 -4.69482,-1.77146 -9.50271,2.00757 -10.76293,7.15333 -1.67969,6.85848 2.62538,13.68222 8.51871,15.30966 7.41615,2.04797 14.67787,-3.93539 16.28467,-12.13393 1.94605,-9.92954 -4.32662,-19.55532 -12.91833,-21.56056 -10.12504,-2.3631 -19.87347,5.86006 -21.80641,17.11454 -0.83135,4.84052 -0.22247,9.92583 1.65388,14.37008 m -20.07093,-13.01115 c 1.49428,-0.17037 0.94009,2.19619 0.25014,2.81155 -1.86974,1.6676 -4.41102,-0.13672 -5.21732,-2.24521 -1.44228,-3.77159 1.00483,-7.83834 4.21676,-9.001 4.71364,-1.70625 9.48029,2.13914 10.68477,7.30198 1.60538,6.88126 -2.77317,13.64481 -8.68366,15.19044 -7.43775,1.94503 -14.63421,-4.13854 -16.15222,-12.35874 -1.83851,-9.95576 4.53781,-19.49389 13.15056,-21.37989 10.14983,-2.22258 19.8086,6.13509 21.61967,17.41551 0.77894,4.85169 0.11511,9.92818 -1.80917,14.34608 M 86.387003,106.72761 c -1.184367,-0.97118 0.572087,-2.28647 1.425883,-2.22846 2.313694,0.15726 3.130407,3.33218 2.511131,5.45681 -1.107718,3.80048 -5.213386,4.96524 -8.214655,3.45703 -4.404473,-2.21335 -5.672711,-8.50386 -3.596395,-13.14207 2.767401,-6.18198 9.820218,-7.89291 15.003435,-4.68559 6.522558,4.0361 8.278308,13.73542 4.681659,20.82732 -4.356029,8.58928 -14.448728,10.85434 -21.792224,5.91418 -8.654067,-5.82182 -10.900442,-18.97987 -5.766923,-28.51259 5.926859,-11.00591 19.084117,-13.82721 28.581021,-7.14274 5.470105,3.85017 9.120625,10.33819 10.297555,17.70038 1.16049,7.25925 4.85756,13.60468 10.2508,17.40075 9.4969,6.68447 22.65417,3.86317 28.58102,-7.14275 5.13351,-9.53272 2.88715,-22.69077 -5.76692,-28.51258 -7.3435,-4.94015 -17.4362,-2.67511 -21.79223,5.91417 -3.59665,7.09192 -1.8409,16.79123 4.68166,20.82732 5.18321,3.20733 12.23604,1.4964 15.00344,-4.6856 2.07631,-4.6382 0.80808,-10.9287 -3.5964,-13.14207 -3.00126,-1.50819 -7.10692,-0.34344 -8.21466,3.45704 -0.61926,2.12463 0.19744,5.29955 2.51114,5.45681 0.85379,0.058 2.61026,-1.25728 1.42588,-2.22846 M 54.653016,71.65564 c -3.180924,-7.03066 6.802327,-8.32272 10.322323,-5.98505 9.538975,6.33493 6.945126,21.83697 0.251481,29.3559 -11.973361,13.4496 -31.65939,8.34828 -41.540779,-5.41568 C 9.1847012,69.41165 15.812079,39.55409 33.505406,24.91395 57.087826,5.40096 90.350949,15.397 106.26463,41.73037 c 1.11131,1.83894 2.13916,3.74243 3.07935,5.69985 m 54.99123,24.22542 c 3.18092,-7.03066 -6.80233,-8.32272 -10.32233,-5.98505 -9.53897,6.33493 -6.94512,21.83697 -0.25148,29.3559 11.97336,13.4496 31.65939,8.34828 41.54078,-5.41568 14.50134,-20.19916 7.87396,-50.05672 -9.81936,-64.69686 C 161.9004,5.40096 128.63727,15.397 112.72358,41.73037 c -1.1113,1.83894 -2.13915,3.74243 -3.07934,5.69985 m 19.29096,9.38785 c -1.49232,0.19107 -0.96378,-2.18299 -0.28053,-2.80787 1.85156,-1.69339 4.41216,0.0756 5.24121,2.17273 1.48296,3.75131 -0.91998,7.85167 -4.1191,9.05876 -4.69482,1.77146 -9.50271,-2.00757 -10.76293,-7.15333 -1.67969,-6.85848 2.62538,-13.68222 8.51871,-15.30966 7.41615,-2.04797 14.67787,3.93539 16.28467,12.13393 1.94605,9.92954 -4.32662,19.55532 -12.91833,21.56056 -10.12504,2.3631 -19.87347,-5.86006 -21.80641,-17.11454 -0.83135,-4.84052 -0.22247,-9.92583 1.65388,-14.37008 M 90.675444,57.99972 c 1.494277,0.17037 0.940092,-2.19619 0.250138,-2.81155 -1.869734,-1.6676 -4.411012,0.13672 -5.217314,2.24521 -1.442283,3.77159 1.00483,7.83834 4.21676,9.001 4.713638,1.70625 9.480282,-2.13914 10.684762,-7.30198 1.60538,-6.88126 -2.773165,-13.64481 -8.683654,-15.19044 -7.437748,-1.94503 -14.63421,4.13854 -16.152218,12.35874 -1.83851,9.95576 4.537802,19.49389 13.150557,21.37989 10.14983,2.22258 19.808595,-6.13509 21.619665,-17.41551 0.77894,-4.85169 0.11511,-9.92818 -1.80917,-14.34608 m -54.081954,90.8695 c -3.180924,7.03066 6.802327,8.32272 10.322323,5.98505 9.538975,-6.33493 6.945126,-21.83697 0.251481,-29.3559 -11.973361,-13.4496 -31.65939,-8.34828 -41.540779,5.41568 -14.5013398,20.19916 -7.873962,50.05672 9.819365,64.69686 23.58242,19.51299 56.845543,9.51695 72.759224,-16.81642 1.11131,-1.83894 2.13916,-3.74243 3.07935,-5.69985 m 54.99123,-24.22542 c 3.18092,7.03066 -6.80233,8.32272 -10.32233,5.98505 -9.53897,-6.33493 -6.94512,-21.83697 -0.25148,-29.3559 11.97336,-13.4496 31.65939,-8.34828 41.54078,5.41568 14.50134,20.19916 7.87396,50.05672 -9.81936,64.69686 -23.58242,19.51299 -56.84555,9.51695 -72.75924,-16.81642 -1.1113,-1.83894 -2.13915,-3.74243 -3.07934,-5.69985 m 19.29096,-9.38785 c -1.49232,-0.19107 -0.96378,2.18299 -0.28053,2.80787 1.85156,1.69339 4.41216,-0.0756 5.24121,-2.17273 1.48296,-3.75131 -0.91998,-7.85167 -4.1191,-9.05876 -4.69482,-1.77146 -9.50271,2.00757 -10.76293,7.15333 -1.67969,6.85848 2.62538,13.68222 8.51871,15.30966 7.41615,2.04797 14.67787,-3.93539 16.28467,-12.13393 1.94605,-9.92954 -4.32662,-19.55532 -12.91833,-21.56056 -10.12504,-2.3631 -19.87347,5.86006 -21.80641,17.11454 -0.83135,4.84052 -0.22247,9.92583 1.65388,14.37008 M 90.675444,150.44442 c 1.494277,-0.17037 0.940092,2.19619 0.250138,2.81155 -1.869734,1.6676 -4.411012,-0.13672 -5.217314,-2.24521 -1.442283,-3.77159 1.00483,-7.83834 4.21676,-9.001 4.713638,-1.70625 9.480282,2.13914 10.684762,7.30198 1.60538,6.88126 -2.773165,13.64481 -8.683654,15.19044 -7.437748,1.94503 -14.63421,-4.13854 -16.152218,-12.35874 -1.83851,-9.95576 4.537802,-19.49389 13.150557,-21.37989 10.14983,-2.22258 19.808595,6.13509 21.619665,17.41551 0.77894,4.85169 0.11511,9.92818 -1.80917,14.34608 m 355.1739,-55.79753 c -1.18437,-0.97118 0.57208,-2.28647 1.42588,-2.22846 2.3137,0.15726 3.13041,3.33218 2.51113,5.45681 -1.10772,3.80048 -5.21338,4.96524 -8.21465,3.45703 -4.40448,-2.21335 -5.67271,-8.50386 -3.5964,-13.14207 2.7674,-6.18198 9.82022,-7.89291 15.00344,-4.68559 6.52256,4.0361 8.27831,13.73542 4.68166,20.82732 -4.35603,8.58928 -14.44873,10.85434 -21.79223,5.91418 -8.65406,-5.82182 -10.90044,-18.97987 -5.76692,-28.51259 5.92686,-11.00591 19.08412,-13.82721 28.58102,-7.14274 5.47011,3.85017 9.12063,10.33819 10.29756,17.70038 1.16049,7.25925 4.85756,13.60468 10.2508,17.40075 9.4969,6.68447 22.65417,3.86317 28.58102,-7.14275 5.13351,-9.53272 2.88715,-22.69077 -5.76692,-28.51258 -7.3435,-4.94015 -17.4362,-2.67511 -21.79223,5.91417 -3.59665,7.09192 -1.8409,16.79123 4.68166,20.82732 5.18321,3.20733 12.23604,1.4964 15.00344,-4.6856 2.07631,-4.6382 0.80808,-10.9287 -3.5964,-13.14207 -3.00126,-1.50819 -7.10692,-0.34344 -8.21466,3.45704 -0.61926,2.12463 0.19744,5.29955 2.51114,5.45681 0.85379,0.058 2.61026,-1.25728 1.42588,-2.22846 M 432.17488,71.65564 c -3.18092,-7.03066 6.80233,-8.32272 10.32233,-5.98505 9.53897,6.33493 6.94512,21.83697 0.25148,29.3559 -11.97336,13.4496 -31.65939,8.34828 -41.54078,-5.41568 -14.50134,-20.19916 -7.87396,-50.05672 9.81936,-64.69686 23.58242,-19.51299 56.84555,-9.51695 72.75924,16.81642 1.1113,1.83894 2.13915,3.74243 3.07934,5.69985 m 54.99123,24.22542 c 3.18092,-7.03066 -6.80233,-8.32272 -10.32233,-5.98505 -9.53897,6.33493 -6.94512,21.83697 -0.25148,29.3559 11.97336,13.4496 31.65939,8.34828 41.54078,-5.41568 14.50134,-20.19916 7.87396,-50.05672 -9.81936,-64.69686 -23.58242,-19.51299 -56.84555,-9.51695 -72.75924,16.81642 -1.1113,1.83894 -2.13915,3.74243 -3.07934,5.69985 m 19.29096,9.38785 c -1.49232,0.19107 -0.96378,-2.18299 -0.28053,-2.80787 1.85156,-1.69339 4.41216,0.0756 5.24121,2.17273 1.48296,3.75131 -0.91998,7.85167 -4.1191,9.05876 -4.69482,1.77146 -9.50271,-2.00757 -10.76293,-7.15333 -1.67969,-6.85848 2.62538,-13.68222 8.51871,-15.30966 7.41615,-2.04797 14.67787,3.93539 16.28467,12.13393 1.94605,9.92954 -4.32662,19.55532 -12.91833,21.56056 -10.12504,2.3631 -19.87347,-5.86006 -21.80641,-17.11454 -0.83135,-4.84052 -0.22247,-9.92583 1.65388,-14.37008 m -20.07093,13.01115 c 1.49428,0.17037 0.94009,-2.19619 0.25014,-2.81155 -1.86974,-1.6676 -4.41102,0.13672 -5.21732,2.24521 -1.44228,3.77159 1.00483,7.83834 4.21676,9.001 4.71364,1.70625 9.48029,-2.13914 10.68477,-7.30198 1.60538,-6.88126 -2.77317,-13.64481 -8.68366,-15.19044 -7.43775,-1.94503 -14.63421,4.13854 -16.15222,12.35874 -1.83851,9.95576 4.53781,19.49389 13.15056,21.37989 10.14983,2.22258 19.8086,-6.13509 21.61967,-17.41551 0.77894,-4.85169 0.11511,-9.92818 -1.80917,-14.34608 m -54.08196,90.8695 c -3.18092,7.03066 6.80233,8.32272 10.32233,5.98505 9.53897,-6.33493 6.94512,-21.83697 0.25148,-29.3559 -11.97336,-13.4496 -31.65939,-8.34828 -41.54078,5.41568 -14.50134,20.19916 -7.87396,50.05672 9.81936,64.69686 23.58242,19.51299 56.84555,9.51695 72.75924,-16.81642 1.1113,-1.83894 2.13915,-3.74243 3.07934,-5.69985 m 54.99123,-24.22542 c 3.18092,7.03066 -6.80233,8.32272 -10.32233,5.98505 -9.53897,-6.33493 -6.94512,-21.83697 -0.25148,-29.3559 11.97336,-13.4496 31.65939,-8.34828 41.54078,5.41568 14.50134,20.19916 7.87396,50.05672 -9.81936,64.69686 -23.58242,19.51299 -56.84555,9.51695 -72.75924,-16.81642 -1.1113,-1.83894 -2.13915,-3.74243 -3.07934,-5.69985 m 19.29096,-9.38785 c -1.49232,-0.19107 -0.96378,2.18299 -0.28053,2.80787 1.85156,1.69339 4.41216,-0.0756 5.24121,-2.17273 1.48296,-3.75131 -0.91998,-7.85167 -4.1191,-9.05876 -4.69482,-1.77146 -9.50271,2.00757 -10.76293,7.15333 -1.67969,6.85848 2.62538,13.68222 8.51871,15.30966 7.41615,2.04797 14.67787,-3.93539 16.28467,-12.13393 1.94605,-9.92954 -4.32662,-19.55532 -12.91833,-21.56056 -10.12504,-2.3631 -19.87347,5.86006 -21.80641,17.11454 -0.83135,4.84052 -0.22247,9.92583 1.65388,14.37008 m -20.07093,-13.01115 c 1.49428,-0.17037 0.94009,2.19619 0.25014,2.81155 -1.86974,1.6676 -4.41102,-0.13672 -5.21732,-2.24521 -1.44228,-3.77159 1.00483,-7.83834 4.21676,-9.001 4.71364,-1.70625 9.48029,2.13914 10.68477,7.30198 1.60538,6.88126 -2.77317,13.64481 -8.68366,15.19044 -7.43775,1.94503 -14.63421,-4.13854 -16.15222,-12.35874 -1.83851,-9.95576 4.53781,-19.49389 13.15056,-21.37989 10.14983,-2.22258 19.8086,6.13509 21.61967,17.41551 0.77894,4.85169 0.11511,9.92818 -1.80917,14.34608 M 275.14793,288.76356 c -1.18437,-0.97118 0.57209,-2.28647 1.42588,-2.22846 2.3137,0.15726 3.13041,3.33218 2.51113,5.45681 -1.10771,3.80048 -5.21338,4.96524 -8.21465,3.45703 -4.40447,-2.21335 -5.67271,-8.50387 -3.5964,-13.14208 2.76741,-6.18197 9.82022,-7.8929 15.00344,-4.68558 6.52256,4.0361 8.27831,13.73542 4.68166,20.82732 -4.35603,8.58927 -14.44873,10.85434 -21.79223,5.91418 -8.65406,-5.82182 -10.90044,-18.97987 -5.76692,-28.51259 5.92686,-11.00591 19.08412,-13.82721 28.58102,-7.14274 5.47011,3.85017 9.12063,10.33819 10.29756,17.70038 1.16049,7.25924 4.85756,13.60467 10.2508,17.40075 9.4969,6.68447 22.65417,3.86317 28.58102,-7.14275 5.13351,-9.53273 2.88716,-22.69077 -5.76692,-28.51258 -7.3435,-4.94016 -17.43619,-2.67511 -21.79222,5.91417 -3.59666,7.09191 -1.84091,16.79123 4.68165,20.82731 5.18321,3.20734 12.23604,1.49641 15.00344,-4.68559 2.07632,-4.6382 0.80808,-10.9287 -3.59639,-13.14207 -3.00126,-1.50819 -7.10693,-0.34345 -8.21467,3.45704 -0.61926,2.12463 0.19744,5.29955 2.51114,5.45681 0.85379,0.058 2.61026,-1.25728 1.42588,-2.22846 m -77.94821,-30.06088 c -3.18092,-7.03066 6.80233,-8.32272 10.32233,-5.98505 9.53897,6.33493 6.94512,21.83697 0.25148,29.3559 -11.97336,13.4496 -31.65939,8.34828 -41.54078,-5.41568 -14.50134,-20.19916 -7.87396,-50.05672 9.81936,-64.69686 23.58242,-19.51299 56.84555,-9.51695 72.75924,16.81642 1.1113,1.83894 2.13915,3.74243 3.07934,5.69985 m 54.99124,24.22542 c 3.18092,-7.03066 -6.80233,-8.32272 -10.32233,-5.98505 -9.53897,6.33493 -6.94512,21.83697 -0.25148,29.3559 11.97336,13.4496 31.65939,8.34828 41.54078,-5.41568 14.50134,-20.19916 7.87396,-50.05672 -9.81936,-64.69686 -23.58242,-19.51299 -56.84555,-9.51695 -72.75924,16.81642 -1.1113,1.83894 -2.13915,3.74243 -3.07934,5.69985 m 19.29095,9.38786 c -1.49232,0.19107 -0.96378,-2.18299 -0.28053,-2.80787 1.85156,-1.69339 4.41216,0.0756 5.24121,2.17273 1.48296,3.75131 -0.91998,7.85167 -4.1191,9.05876 -4.69482,1.77146 -9.50271,-2.00757 -10.76293,-7.15333 -1.67969,-6.85848 2.62538,-13.68222 8.51871,-15.30966 7.41615,-2.04797 14.67787,3.93539 16.28467,12.13393 1.94605,9.92954 -4.32662,19.55532 -12.91833,21.56056 -10.12504,2.3631 -19.87347,-5.86006 -21.80641,-17.11454 -0.83135,-4.84052 -0.22247,-9.92583 1.65388,-14.37008 m -20.07093,13.01115 c 1.49428,0.17037 0.94009,-2.19619 0.25014,-2.81155 -1.86974,-1.6676 -4.41102,0.13672 -5.21732,2.24521 -1.44228,3.77159 1.00483,7.83834 4.21676,9.001 4.71364,1.70625 9.48029,-2.13914 10.68477,-7.30198 1.60538,-6.88126 -2.77317,-13.64481 -8.68366,-15.19044 -7.43775,-1.94503 -14.63421,4.13854 -16.15222,12.35874 -1.83851,9.95576 4.53781,19.49389 13.15056,21.37989 10.14983,2.22258 19.8086,-6.13509 21.61967,-17.41551 0.77894,-4.85169 0.11511,-9.92818 -1.80917,-14.34608 m -54.08196,90.8695 c -3.18092,7.03066 6.80233,8.32272 10.32233,5.98505 9.53897,-6.33493 6.94512,-21.83697 0.25148,-29.3559 -11.97336,-13.4496 -31.65939,-8.34828 -41.54078,5.41568 -14.50134,20.19916 -7.87396,50.05672 9.81936,64.69686 23.58242,19.51299 56.84555,9.51695 72.75924,-16.81642 1.1113,-1.83894 2.13915,-3.74243 3.07934,-5.69985 m 54.99124,-24.22542 c 3.18092,7.03066 -6.80233,8.32272 -10.32233,5.98505 -9.53897,-6.33493 -6.94512,-21.83697 -0.25148,-29.3559 11.97336,-13.4496 31.65939,-8.34828 41.54078,5.41568 14.50134,20.19916 7.87396,50.05672 -9.81936,64.69686 -23.58242,19.51299 -56.84555,9.51695 -72.75924,-16.81642 -1.1113,-1.83894 -2.13915,-3.74243 -3.07934,-5.69985 m 19.29095,-9.38785 c -1.49232,-0.19107 -0.96378,2.18299 -0.28053,2.80787 1.85156,1.69339 4.41216,-0.0756 5.24121,-2.17273 1.48296,-3.75131 -0.91998,-7.85167 -4.1191,-9.05876 -4.69482,-1.77146 -9.50271,2.00757 -10.76293,7.15333 -1.67969,6.85848 2.62538,13.68222 8.51871,15.30966 7.41615,2.04797 14.67787,-3.93539 16.28467,-12.13393 1.94605,-9.92954 -4.32662,-19.55532 -12.91833,-21.56056 -10.12504,-2.3631 -19.87347,5.86006 -21.80641,17.11454 -0.83135,4.84052 -0.22247,9.92583 1.65388,14.37008 m -20.07093,-13.01115 c 1.49428,-0.17037 0.94009,2.19619 0.25014,2.81155 -1.86974,1.6676 -4.41102,-0.13672 -5.21732,-2.24521 -1.44228,-3.77159 1.00483,-7.83834 4.21676,-9.001 4.71364,-1.70625 9.48029,2.13914 10.68477,7.30198 1.60538,6.88126 -2.77317,13.64481 -8.68366,15.19044 -7.43775,1.94503 -14.63421,-4.13854 -16.15222,-12.35874 -1.83851,-9.95576 4.53781,-19.49389 13.15056,-21.37989 10.14983,-2.22258 19.8086,6.13509 21.61967,17.41551 0.77894,4.85169 0.11511,9.92818 -1.80917,14.34608 M 86.387003,288.76356 c -1.184367,-0.97118 0.572087,-2.28647 1.425883,-2.22846 2.313694,0.15726 3.130407,3.33218 2.511131,5.45681 -1.107718,3.80048 -5.213386,4.96524 -8.214655,3.45703 -4.404473,-2.21335 -5.672711,-8.50387 -3.596395,-13.14208 2.767401,-6.18197 9.820218,-7.8929 15.003435,-4.68558 6.522558,4.0361 8.278308,13.73542 4.681659,20.82732 -4.356029,8.58927 -14.448728,10.85434 -21.792224,5.91418 -8.654067,-5.82182 -10.900442,-18.97987 -5.766923,-28.51259 5.926859,-11.00591 19.084117,-13.82721 28.581021,-7.14274 5.470105,3.85017 9.120625,10.33819 10.297555,17.70038 1.16049,7.25924 4.85756,13.60467 10.2508,17.40075 9.4969,6.68447 22.65417,3.86317 28.58102,-7.14275 5.13351,-9.53273 2.88715,-22.69077 -5.76692,-28.51258 -7.3435,-4.94016 -17.4362,-2.67511 -21.79223,5.91417 -3.59665,7.09191 -1.8409,16.79123 4.68166,20.82731 5.18321,3.20734 12.23604,1.49641 15.00344,-4.68559 2.07631,-4.6382 0.80808,-10.9287 -3.5964,-13.14207 -3.00126,-1.50819 -7.10692,-0.34345 -8.21466,3.45704 -0.61926,2.12463 0.19744,5.29955 2.51114,5.45681 0.85379,0.058 2.61026,-1.25728 1.42588,-2.22846 M 54.653016,253.69158 c -3.180924,-7.03066 6.802327,-8.32272 10.322323,-5.98505 9.538975,6.33493 6.945126,21.83697 0.251481,29.3559 -11.973361,13.4496 -31.65939,8.34828 -41.540779,-5.41568 -14.5013398,-20.19916 -7.873962,-50.05672 9.819365,-64.69686 23.58242,-19.51299 56.845543,-9.51695 72.759224,16.81642 1.11131,1.83894 2.13916,3.74243 3.07935,5.69985 m 54.99123,24.22542 c 3.18092,-7.03066 -6.80233,-8.32272 -10.32233,-5.98505 -9.53897,6.33493 -6.94512,21.83697 -0.25148,29.3559 11.97336,13.4496 31.65939,8.34828 41.54078,-5.41568 14.50134,-20.19916 7.87396,-50.05672 -9.81936,-64.69686 -23.58242,-19.51299 -56.84555,-9.51695 -72.75924,16.81642 -1.1113,1.83894 -2.13915,3.74243 -3.07934,5.69985 m 19.29096,9.38786 c -1.49232,0.19107 -0.96378,-2.18299 -0.28053,-2.80787 1.85156,-1.69339 4.41216,0.0756 5.24121,2.17273 1.48296,3.75131 -0.91998,7.85167 -4.1191,9.05876 -4.69482,1.77146 -9.50271,-2.00757 -10.76293,-7.15333 -1.67969,-6.85848 2.62538,-13.68222 8.51871,-15.30966 7.41615,-2.04797 14.67787,3.93539 16.28467,12.13393 1.94605,9.92954 -4.32662,19.55532 -12.91833,21.56056 -10.12504,2.3631 -19.87347,-5.86006 -21.80641,-17.11454 -0.83135,-4.84052 -0.22247,-9.92583 1.65388,-14.37008 m -20.070926,13.01115 c 1.494277,0.17037 0.940092,-2.19619 0.250138,-2.81155 -1.869734,-1.6676 -4.411012,0.13672 -5.217314,2.24521 -1.442283,3.77159 1.00483,7.83834 4.21676,9.001 4.713638,1.70625 9.480282,-2.13914 10.684762,-7.30198 1.60538,-6.88126 -2.773165,-13.64481 -8.683654,-15.19044 -7.437748,-1.94503 -14.63421,4.13854 -16.152218,12.35874 -1.83851,9.95576 4.537802,19.49389 13.150557,21.37989 10.14983,2.22258 19.808595,-6.13509 21.619665,-17.41551 0.77894,-4.85169 0.11511,-9.92818 -1.80917,-14.34608 m -54.081954,90.8695 c -3.180924,7.03066 6.802327,8.32272 10.322323,5.98505 9.538975,-6.33493 6.945126,-21.83697 0.251481,-29.3559 -11.973361,-13.4496 -31.65939,-8.34828 -41.540779,5.41568 -14.5013398,20.19916 -7.873962,50.05672 9.819365,64.69686 23.58242,19.51299 56.845543,9.51695 72.759224,-16.81642 1.11131,-1.83894 2.13916,-3.74243 3.07935,-5.69985 m 54.99123,-24.22542 c 3.18092,7.03066 -6.80233,8.32272 -10.32233,5.98505 -9.53897,-6.33493 -6.94512,-21.83697 -0.25148,-29.3559 11.97336,-13.4496 31.65939,-8.34828 41.54078,5.41568 14.50134,20.19916 7.87396,50.05672 -9.81936,64.69686 -23.58242,19.51299 -56.84555,9.51695 -72.75924,-16.81642 -1.1113,-1.83894 -2.13915,-3.74243 -3.07934,-5.69985 m 19.29096,-9.38785 c -1.49232,-0.19107 -0.96378,2.18299 -0.28053,2.80787 1.85156,1.69339 4.41216,-0.0756 5.24121,-2.17273 1.48296,-3.75131 -0.91998,-7.85167 -4.1191,-9.05876 -4.69482,-1.77146 -9.50271,2.00757 -10.76293,7.15333 -1.67969,6.85848 2.62538,13.68222 8.51871,15.30966 7.41615,2.04797 14.67787,-3.93539 16.28467,-12.13393 1.94605,-9.92954 -4.32662,-19.55532 -12.91833,-21.56056 -10.12504,-2.3631 -19.87347,5.86006 -21.80641,17.11454 -0.83135,4.84052 -0.22247,9.92583 1.65388,14.37008 M 90.675444,332.48037 c 1.494277,-0.17037 0.940092,2.19619 0.250138,2.81155 -1.869734,1.6676 -4.411012,-0.13672 -5.217314,-2.24521 -1.442283,-3.77159 1.00483,-7.83834 4.21676,-9.001 4.713638,-1.70625 9.480282,2.13914 10.684762,7.30198 1.60538,6.88126 -2.773165,13.64481 -8.683654,15.19044 -7.437748,1.94503 -14.63421,-4.13854 -16.152218,-12.35874 -1.83851,-9.95576 4.537802,-19.49389 13.150557,-21.37989 10.14983,-2.22258 19.808595,6.13509 21.619665,17.41551 0.77894,4.85169 0.11511,9.92818 -1.80917,14.34608 m 355.1739,-55.79753 c -1.18437,-0.97118 0.57208,-2.28647 1.42588,-2.22846 2.3137,0.15726 3.13041,3.33218 2.51113,5.45681 -1.10772,3.80048 -5.21338,4.96524 -8.21465,3.45703 -4.40448,-2.21335 -5.67271,-8.50387 -3.5964,-13.14208 2.7674,-6.18197 9.82022,-7.8929 15.00344,-4.68558 6.52256,4.0361 8.27831,13.73542 4.68166,20.82732 -4.35603,8.58927 -14.44873,10.85434 -21.79223,5.91418 -8.65406,-5.82182 -10.90044,-18.97987 -5.76692,-28.51259 5.92686,-11.00591 19.08412,-13.82721 28.58102,-7.14274 5.47011,3.85017 9.12063,10.33819 10.29756,17.70038 1.16049,7.25924 4.85756,13.60467 10.2508,17.40075 9.4969,6.68447 22.65417,3.86317 28.58102,-7.14275 5.13351,-9.53273 2.88715,-22.69077 -5.76692,-28.51258 -7.3435,-4.94016 -17.4362,-2.67511 -21.79223,5.91417 -3.59665,7.09191 -1.8409,16.79123 4.68166,20.82731 5.18321,3.20734 12.23604,1.49641 15.00344,-4.68559 2.07631,-4.6382 0.80808,-10.9287 -3.5964,-13.14207 -3.00126,-1.50819 -7.10692,-0.34345 -8.21466,3.45704 -0.61926,2.12463 0.19744,5.29955 2.51114,5.45681 0.85379,0.058 2.61026,-1.25728 1.42588,-2.22846 m -77.94821,-30.06088 c -3.18092,-7.03066 6.80233,-8.32272 10.32233,-5.98505 9.53897,6.33493 6.94512,21.83697 0.25148,29.3559 -11.97336,13.4496 -31.65939,8.34828 -41.54078,-5.41568 -14.50134,-20.19916 -7.87396,-50.05672 9.81936,-64.69686 23.58242,-19.51299 56.84555,-9.51695 72.75924,16.81642 1.1113,1.83894 2.13915,3.74243 3.07934,5.69985 m 54.99123,24.22542 c 3.18092,-7.03066 -6.80233,-8.32272 -10.32233,-5.98505 -9.53897,6.33493 -6.94512,21.83697 -0.25148,29.3559 11.97336,13.4496 31.65939,8.34828 41.54078,-5.41568 14.50134,-20.19916 7.87396,-50.05672 -9.81936,-64.69686 -23.58242,-19.51299 -56.84555,-9.51695 -72.75924,16.81642 -1.1113,1.83894 -2.13915,3.74243 -3.07934,5.69985 m 19.29096,9.38786 c -1.49232,0.19107 -0.96378,-2.18299 -0.28053,-2.80787 1.85156,-1.69339 4.41216,0.0756 5.24121,2.17273 1.48296,3.75131 -0.91998,7.85167 -4.1191,9.05876 -4.69482,1.77146 -9.50271,-2.00757 -10.76293,-7.15333 -1.67969,-6.85848 2.62538,-13.68222 8.51871,-15.30966 7.41615,-2.04797 14.67787,3.93539 16.28467,12.13393 1.94605,9.92954 -4.32662,19.55532 -12.91833,21.56056 -10.12504,2.3631 -19.87347,-5.86006 -21.80641,-17.11454 -0.83135,-4.84052 -0.22247,-9.92583 1.65388,-14.37008 m -20.07093,13.01115 c 1.49428,0.17037 0.94009,-2.19619 0.25014,-2.81155 -1.86974,-1.6676 -4.41102,0.13672 -5.21732,2.24521 -1.44228,3.77159 1.00483,7.83834 4.21676,9.001 4.71364,1.70625 9.48029,-2.13914 10.68477,-7.30198 1.60538,-6.88126 -2.77317,-13.64481 -8.68366,-15.19044 -7.43775,-1.94503 -14.63421,4.13854 -16.15222,12.35874 -1.83851,9.95576 4.53781,19.49389 13.15056,21.37989 10.14983,2.22258 19.8086,-6.13509 21.61967,-17.41551 0.77894,-4.85169 0.11511,-9.92818 -1.80917,-14.34608 m -54.08196,90.8695 c -3.18092,7.03066 6.80233,8.32272 10.32233,5.98505 9.53897,-6.33493 6.94512,-21.83697 0.25148,-29.3559 -11.97336,-13.4496 -31.65939,-8.34828 -41.54078,5.41568 -14.50134,20.19916 -7.87396,50.05672 9.81936,64.69686 23.58242,19.51299 56.84555,9.51695 72.75924,-16.81642 1.1113,-1.83894 2.13915,-3.74243 3.07934,-5.69985 m 54.99123,-24.22542 c 3.18092,7.03066 -6.80233,8.32272 -10.32233,5.98505 -9.53897,-6.33493 -6.94512,-21.83697 -0.25148,-29.3559 11.97336,-13.4496 31.65939,-8.34828 41.54078,5.41568 14.50134,20.19916 7.87396,50.05672 -9.81936,64.69686 -23.58242,19.51299 -56.84555,9.51695 -72.75924,-16.81642 -1.1113,-1.83894 -2.13915,-3.74243 -3.07934,-5.69985 m 19.29096,-9.38785 c -1.49232,-0.19107 -0.96378,2.18299 -0.28053,2.80787 1.85156,1.69339 4.41216,-0.0756 5.24121,-2.17273 1.48296,-3.75131 -0.91998,-7.85167 -4.1191,-9.05876 -4.69482,-1.77146 -9.50271,2.00757 -10.76293,7.15333 -1.67969,6.85848 2.62538,13.68222 8.51871,15.30966 7.41615,2.04797 14.67787,-3.93539 16.28467,-12.13393 1.94605,-9.92954 -4.32662,-19.55532 -12.91833,-21.56056 -10.12504,-2.3631 -19.87347,5.86006 -21.80641,17.11454 -0.83135,4.84052 -0.22247,9.92583 1.65388,14.37008 m -20.07093,-13.01115 c 1.49428,-0.17037 0.94009,2.19619 0.25014,2.81155 -1.86974,1.6676 -4.41102,-0.13672 -5.21732,-2.24521 -1.44228,-3.77159 1.00483,-7.83834 4.21676,-9.001 4.71364,-1.70625 9.48029,2.13914 10.68477,7.30198 1.60538,6.88126 -2.77317,13.64481 -8.68366,15.19044 -7.43775,1.94503 -14.63421,-4.13854 -16.15222,-12.35874 -1.83851,-9.95576 4.53781,-19.49389 13.15056,-21.37989 10.14983,-2.22258 19.8086,6.13509 21.61967,17.41551 0.77894,4.85169 0.11511,9.92818 -1.80917,14.34608"
       inkscape:connector-curvature="0"
       sodipodi:nodetypes="ccccccsccccccccscscccccccccccccccccccccccccccccccccccccccccccccccccccccccsccccccscccscscccccccscsccsssccccccccsssssccsssssccccccsssscccssscsssccscsssccscsssccscccsssscccssscssscccccsscssccsssscsccccccssscccsssssccccccsssscccssscsssccscssccscccsssscccsssscccssscsssccccsccccsccsssccccccccsssssccsssssccccccsssscccssscsssccsssssccsssssccccccsssscccssscsssccccscccssscsssscscccccsssscccsssssccccccsssscccssscsssccsssscccsssssccccccsssscccssscssscccccccccsccsssscscccccsssssccsssssccccccsssscccssscsssccsssssccsssssccccccsssscccssscsssccccsccscsccsssccccccccsssssccsssssccccccsssscccssscsssccsssssccsssssccccccsssscccssscsssccccsccsssscsssscscccccsssscccsssssccccccsssscccssscsssccsssscccsssssccccccsssscccssscssscccccccscsccsssscscccccsssssccsssssccccccsssscccssscsssccsssssccsssssccccccsssscccssscsssc" />
  </g>
  <g
     inkscape:groupmode="layer"
     id="layer5"
     inkscape:label="Serpent"
     style="display:inline"
     sodipodi:insensitive="true">
    <g
       transform="matrix(0.5654029,0,0,0.6152898,-7.080509,-166.47427)"
       style="display:inline"
       inkscape:label="Borde 3px"
       id="layer6">
      <path
         id="path4753"
         d="m 527.16627,952.69428 c 69.56294,4.88271 138.64549,-18.41524 130.6701,-67.33002 -3.98209,-24.42298 13.8382,-129.33392 98.4979,-129.50074 -78.42854,31.51266 -39.357,136.06109 -38.82157,157.06092 0.45667,17.91047 -13.54966,35.67342 -27.05156,47.27221 -9.04984,-4.76559 -100.93007,27.08046 -117.30933,37.13388 0,0 -15.34892,2.94797 -37.51321,2.12991 -4.71037,-16.58785 -8.40444,-31.17744 -8.47233,-46.76616 z m 314.23627,92.05992 c 7.21256,79.6089 -102.33388,142.3404 -214.94861,119.7876 -251.60766,-60.408 -237.64018,-210.36676 -141.33153,-386.42815 42.88014,-78.38899 48.03818,-77.63428 133.55487,-154.36775 40.90119,-36.70033 61.46957,-122.20287 8.10167,-158.43889 -23.77949,-16.14593 -79.31263,-15.13943 -107.40153,-8.39947 -46.43344,9.86104 -88.47082,28.5257 -134.85394,29.2218 -8.60333,2.97552 -24.73269,11.01179 -32.94897,15.37422 -6.11935,7.63256 -11.34793,12.48191 -15.32842,17.71682 -3.97406,5.22668 -6.69844,10.84055 -15.25668,16.46675 -10.74787,3.28898 -23.30523,3.37922 -33.75028,-0.63275 -7.23588,-8.04406 6.3125,-17.45567 13.26549,-20.56802 -1.49249,3.28316 -5.66232,8.65035 -5.34468,12.19423 0.29537,3.29275 4.7764,4.91066 10.83826,4.34179 17.08293,-0.1721 22.54771,-18.29392 32.81387,-27.88182 7.34396,-9.10672 12.93845,-19.40357 20.27328,-28.4495 2.71338,-5.78999 4.86203,-10.35507 8.19159,-17.37348 -5.0686,-4.5745 -13.97178,-7.01283 -19.04522,-11.58546 -21.11187,-12.73964 -45.30414,-21.13055 -69.64084,-27.13434 -5.80646,-0.41955 -17.58421,-3.88405 -22.05481,-4.16455 -0.71093,1.92272 -2.32996,6.2068 -1.45243,9.87988 0.45656,3.56614 2.35559,8.05751 1.81479,8.75652 -1.80249,2.33079 -8.10418,-10.90562 -9.49838,-16.39825 -1.06202,-8.83358 0.89915,-18.83932 5.92862,-26.04096 4.76605,-1.47517 9.78257,-2.26135 14.88397,-2.64562 l 0.007,-0.005 c 1.70037,-0.12757 3.40233,-0.20891 5.11798,-0.25943 6.86271,-0.20121 13.79754,0.13442 20.45964,0.32022 12.73159,1.60207 27.65004,-1.22302 37.9339,8.05939 11.41129,7.33469 26.35489,9.48345 35.79364,19.70582 11.87065,0.6336 23.69564,4.49933 33.16701,11.15392 0.36059,0.10446 0.72211,0.19522 1.0828,0.30054 17.46588,3.81709 35.81414,2.0246 52.82718,-2.39142 30.08381,-6.64843 60.54311,-14.64386 91.49905,-16.7159 10.3174,-0.68926 20.68698,-0.72265 31.11806,0.17638 2.19048,0.11387 4.37844,0.27912 6.56594,0.43239 172.19312,19.65087 164.99921,166.34306 69.34832,264.3072 -104.23288,106.75368 -124.35429,199.7288 -125.96687,275.29581 -2.3625,110.70928 111.01331,143.36738 127.39755,147.95418 31.24078,8.7461 101.13291,4.8213 101.15209,-29.1687 0.0329,-58.3304 -101.12227,-57.6081 -164.19837,1.1 -11.44054,-8.4278 -35.57302,-26.7956 -48.62364,-52.1325 8.60334,-12.1155 104.21996,-53.36223 137.24705,-55.49804 96.85588,-6.26352 157.34845,40.94324 161.26158,84.13454 z M 313.13847,395.69469 c -1.65667,-0.0343 -3.36972,0.18665 -4.67698,1.20358 -2.31366,1.6042 -2.63782,4.50233 -2.17594,6.94511 0.43699,2.42806 2.52554,4.2083 4.81143,5.27643 2.62356,1.22593 5.95032,0.77145 8.08481,-1.08902 2.60362,-1.62553 4.65163,-4.70465 3.42329,-7.62657 -1.71137,-3.17751 -5.80097,-4.593 -9.4667,-4.70996 z m 190.11342,720.73701 c -11.50444,-9.8919 -40.89836,-29.8178 -48.21776,-44.9763 -212.20752,55.0401 -131.77898,-81.38762 -31.05204,-64.8614 -3.39576,-10.83072 -3.16837,-38.24147 -2.19892,-49.55953 -270.60382,25.63334 -180.75035,291.91293 81.46872,159.39723 z"
         inkscape:connector-curvature="0"
         style="fill:#ffffff;fill-opacity:1;stroke:#000000;stroke-width:3.15787578;stroke-linecap:round;stroke-linejoin:round;stroke-opacity:1"
         sodipodi:nodetypes="cscscsccscssscccccccccccccccccccccccccccccccssssccssccccccccccccc" />
      <path
         style="display:inline;overflow:visible;visibility:visible;fill:none;fill-opacity:1;fill-rule:evenodd;stroke:none;stroke-width:1;stroke-linecap:butt;stroke-linejoin:miter;stroke-miterlimit:4;stroke-dasharray:none;stroke-dashoffset:0;stroke-opacity:1;marker:none;marker-start:none;marker-mid:none;marker-end:none;enable-background:accumulate"
         d="m 45.210587,346.08351 c 0.213122,125.97067 -0.428913,251.95529 0.325744,377.91714 4.013376,113.04634 90.543539,216.29941 201.040079,240.17333 102.22362,24.90306 216.66055,-19.85061 274.35929,-108.10604 34.55565,-49.35838 47.2816,-110.44187 44.43223,-169.90085 0,-113.36119 0,-226.72239 0,-340.08358 -173.38574,0 -346.7715,0 -520.157343,0 z"
         id="path4560"
         inkscape:connector-curvature="0" />
      <path
         style="display:inline;overflow:visible;visibility:visible;fill:none;fill-opacity:1;fill-rule:evenodd;stroke:none;stroke-width:1;stroke-linecap:butt;stroke-linejoin:miter;stroke-miterlimit:4;stroke-dasharray:none;stroke-dashoffset:0;stroke-opacity:1;marker:none;marker-start:none;marker-mid:none;marker-end:none;enable-background:accumulate"
         d="m 48.106096,440.78105 c 0.203461,120.34389 -0.409481,240.70109 0.310978,361.03655 3.831554,107.99684 86.441346,206.6379 191.931686,229.4453 97.59223,23.7908 206.84444,-18.9638 261.92904,-103.27713 32.99007,-47.15367 45.13945,-105.50873 42.41917,-162.31182 0,-108.29764 0,-216.59526 0,-324.8929 -165.53026,0 -331.06052,0 -496.590874,0 z"
         id="path4198"
         inkscape:connector-curvature="0" />
      <g
         style="display:inline"
         transform="matrix(0.7299036,0,0,0.7299036,53.365391,384.47802)"
         inkscape:label="Timbre"
         id="g10237" />
      <g
         transform="matrix(0.7299036,0,0,0.7299036,53.365391,384.47802)"
         id="g10239"
         inkscape:label="Escudo" />
      <path
         id="path4849"
         style="opacity:0.63999999;fill:#009900;fill-opacity:1"
         d=""
         inkscape:connector-curvature="0" />
      <path
         id="path4851"
         style="opacity:0.63999999;fill:#009900;fill-opacity:1"
         d=""
         inkscape:connector-curvature="0" />
      <path
         id="path4853"
         style="opacity:0.63999999;fill:#009900;fill-opacity:1"
         d=""
         inkscape:connector-curvature="0" />
      <path
         d=""
         style="opacity:0.63999999;fill:#009900;fill-opacity:1"
         id="path5654"
         inkscape:connector-curvature="0" />
      <path
         d=""
         style="opacity:0.63999999;fill:#009900;fill-opacity:1"
         id="path5656"
         inkscape:connector-curvature="0" />
      <path
         d=""
         style="opacity:0.63999999;fill:#009900;fill-opacity:1"
         id="path5658"
         inkscape:connector-curvature="0" />
      <path
         id="path5344"
         style="opacity:0.63999999;fill:#009900;fill-opacity:1"
         d=""
         inkscape:connector-curvature="0" />
      <path
         id="path5346"
         style="opacity:0.63999999;fill:#009900;fill-opacity:1"
         d=""
         inkscape:connector-curvature="0" />
      <path
         id="path5348"
         style="opacity:0.63999999;fill:#009900;fill-opacity:1"
         d=""
         inkscape:connector-curvature="0" />
      <path
         id="path3467"
         style="opacity:0.63999999;fill:#009900;fill-opacity:1"
         d=""
         inkscape:connector-curvature="0" />
      <path
         id="path3469"
         style="opacity:0.63999999;fill:#009900;fill-opacity:1"
         d=""
         inkscape:connector-curvature="0" />
      <path
         id="path3471"
         style="opacity:0.63999999;fill:#009900;fill-opacity:1"
         d=""
         inkscape:connector-curvature="0" />
      <path
         d=""
         style="opacity:0.63999999;fill:#009900;fill-opacity:1"
         id="path3481"
         inkscape:connector-curvature="0" />
      <path
         d=""
         style="opacity:0.63999999;fill:#009900;fill-opacity:1"
         id="path3483"
         inkscape:connector-curvature="0" />
      <path
         d=""
         style="opacity:0.63999999;fill:#009900;fill-opacity:1"
         id="path3485"
         inkscape:connector-curvature="0" />
      <path
         id="path5741"
         style="opacity:0.63999999;fill:#009900;fill-opacity:1"
         d=""
         inkscape:connector-curvature="0" />
      <path
         id="path5743"
         style="opacity:0.63999999;fill:#009900;fill-opacity:1"
         d=""
         inkscape:connector-curvature="0" />
      <path
         id="path5745"
         style="opacity:0.63999999;fill:#009900;fill-opacity:1"
         d=""
         inkscape:connector-curvature="0" />
      <path
         d=""
         style="opacity:0.63999999;fill:#009900;fill-opacity:1"
         id="path5757"
         inkscape:connector-curvature="0" />
      <path
         d=""
         style="opacity:0.63999999;fill:#009900;fill-opacity:1"
         id="path5759"
         inkscape:connector-curvature="0" />
      <path
         d=""
         style="opacity:0.63999999;fill:#009900;fill-opacity:1"
         id="path5761"
         inkscape:connector-curvature="0" />
      <path
         id="path5771"
         style="opacity:0.63999999;fill:#009900;fill-opacity:1"
         d=""
         inkscape:connector-curvature="0" />
      <path
         id="path5773"
         style="opacity:0.63999999;fill:#009900;fill-opacity:1"
         d=""
         inkscape:connector-curvature="0" />
      <path
         id="path5775"
         style="opacity:0.63999999;fill:#009900;fill-opacity:1"
         d=""
         inkscape:connector-curvature="0" />
      <path
         id="path5783"
         style="opacity:0.63999999;fill:#009900;fill-opacity:1"
         d=""
         inkscape:connector-curvature="0" />
      <path
         id="path5785"
         style="opacity:0.63999999;fill:#009900;fill-opacity:1"
         d=""
         inkscape:connector-curvature="0" />
      <path
         id="path5787"
         style="opacity:0.63999999;fill:#009900;fill-opacity:1"
         d=""
         inkscape:connector-curvature="0" />
      <path
         d=""
         style="opacity:0.63999999;fill:#009900;fill-opacity:1"
         id="path5797"
         inkscape:connector-curvature="0" />
      <path
         d=""
         style="opacity:0.63999999;fill:#009900;fill-opacity:1"
         id="path5799"
         inkscape:connector-curvature="0" />
      <path
         d=""
         style="opacity:0.63999999;fill:#009900;fill-opacity:1"
         id="path5801"
         inkscape:connector-curvature="0" />
      <g
         style="display:inline"
         transform="matrix(0.7299036,0,0,0.7299036,94.552919,328.53796)"
         inkscape:label="Muebles"
         id="g10312">
        <g
           id="g3784"
           style="display:inline"
           transform="translate(-492.32361,16.91623)" />
        <path
           d=""
           style="opacity:0.63999999;fill:#009900;fill-opacity:1"
           id="path1887"
           inkscape:connector-curvature="0" />
        <path
           d=""
           style="opacity:0.63999999;fill:#009900;fill-opacity:1"
           id="path1883"
           inkscape:connector-curvature="0" />
        <path
           d=""
           style="opacity:0.63999999;fill:#009900;fill-opacity:1"
           id="path1881"
           inkscape:connector-curvature="0" />
        <g
           id="g3789"
           transform="translate(-435.89488,-59.72412)" />
        <g
           id="g3791"
           transform="translate(-435.89488,-59.72412)" />
        <g
           id="g3793"
           transform="translate(-435.89488,-59.72412)" />
        <g
           transform="translate(-1117.1118,-93.68079)"
           sodipodi:insensitive="true"
           style="display:inline"
           inkscape:label="Ornamentos"
           id="g4574" />
      </g>
      <g
         transform="matrix(0.7299036,0,0,0.7299036,94.552919,328.53796)"
         inkscape:label="Ornamentos"
         id="g10322" />
      <g
         transform="matrix(0.7299036,0,0,0.7299036,94.552919,328.53796)"
         style="display:inline"
         inkscape:label="Borde 3px"
         id="g10324">
        <path
           style="display:inline;overflow:visible;visibility:visible;fill:none;fill-opacity:1;fill-rule:evenodd;stroke:none;stroke-width:1;stroke-linecap:butt;stroke-linejoin:miter;stroke-miterlimit:4;stroke-dasharray:none;stroke-dashoffset:0;stroke-opacity:1;marker:none;marker-start:none;marker-mid:none;marker-end:none;enable-background:accumulate"
           d="m 25.551157,374.00002 c 0.20428,120.74473 -0.41112,241.50283 0.31223,362.2391 3.84688,108.35657 86.787303,207.32615 192.699853,230.20965 97.98283,23.86995 207.6723,-19.0271 262.97739,-103.62122 33.12209,-47.31073 45.3201,-105.86015 42.58894,-162.85245 0,-108.65836 0,-217.31672 0,-325.97508 -166.19277,0 -332.38555,0 -498.578413,0 z"
           id="path10326"
           inkscape:connector-curvature="0" />
      </g>
      <path
         id="path4771"
         d="m 258.06387,415.03635 c 16.09247,2.59639 32.00417,5.43868 47.02883,11.38853 12.4735,4.73753 26.60368,7.98276 37.08973,15.87767 10.10775,9.53311 12.75116,24.61364 8.42816,37.16492 -2.60819,16.25954 -15.56043,27.49224 -25.54612,39.83288 -2.11072,3.57299 -5.40609,7.54455 -9.42012,9.70949 -5.78568,3.12091 -12.91236,3.32922 -18.86259,0.25601 -5.49078,-4.01334 3.72761,-10.84227 5.45873,-15.16359 7.76772,-8.84385 6.99641,-21.04493 10.42548,-31.56184 1.30484,-4.12302 2.33528,-8.88666 1.25369,-12.97595 -0.39507,-1.49393 -2.10215,-2.1479 -3.15057,-3.39772 -0.86188,-1.02755 -0.94499,-2.70085 -2.35894,-3.48454 -13.18723,-5.66756 -26.26824,-12.18139 -38.30754,-19.66044 -2.84318,-1.76594 -6.00679,-3.88611 -8.82108,-5.6601 -6.61775,-5.48561 -7.22964,-14.79541 -4.22256,-22.2796 z"
         inkscape:connector-curvature="0"
         style="fill:#ffffff;fill-opacity:1;stroke-width:0.08457445;stroke-linecap:round;stroke-linejoin:round" />
      <path
         id="path4773"
         d="m 352.45138,458.4465 -3.31968,1.55772 -3.04491,0.5026 c 0,0 -3.30011,-1.19965 -3.67217,-1.16985 -0.37177,0.0257 -8.85304,-3.42435 -8.85304,-3.42435 l -6.21243,-4.2387 -0.20126,3.8052 -0.91313,2.22616 -1.9745,1.88325 -4.5088,0.87787 -6.84612,-0.0514 -2.62477,-0.99535 -1.56396,4.2589 4.07086,4.40823 6.20657,1.46191 c 2.74646,0.64045 4.03378,0.15497 5.94156,0.14812 2.2162,0.13186 3.78286,0.56938 4.5538,1.57278 8.25523,5.34168 6.64878,11.64797 0.69603,17.2108 0,0 10.82149,-0.52229 11.30228,-0.38872 0.48078,0.13357 6.69732,1.4441 6.69732,1.4441 l 5.20864,-13.24824 0.42395,-12.34663 z"
         inkscape:connector-curvature="0"
         style="fill:#ffffff;fill-opacity:1;fill-rule:evenodd;stroke-width:8.93190765px" />
      <path
         id="path4775"
         d="m 347.69939,445.17516 c 6.8532,4.15573 13.3214,8.86183 20.35528,12.78844 1.95968,1.42474 4.33176,2.05046 6.70561,2.54921 1.80082,1.83992 -1.84713,2.28336 -2.98024,3.17802 -6.66033,3.81367 -11.55758,9.70521 -15.99649,15.5446 -0.41277,1.18389 -2.91362,3.47213 -3.36842,1.24006 0.82648,-4.51808 2.4948,-9.00311 2.02882,-13.65922 0.0186,-7.07782 -3.40428,-13.68404 -7.72291,-19.38815 -0.91592,-0.86906 -0.67459,-2.62448 0.98012,-2.25005 z"
         inkscape:connector-curvature="0"
         style="fill:#ffffff;fill-opacity:1;stroke-width:0.05980269;stroke-linecap:round;stroke-linejoin:round" />
      <g
         id="g4787"
         transform="matrix(-5.9524693,0.47686954,0.51894493,5.4698507,-10.283623,204.587)"
         style="fill-rule:evenodd">
        <path
           id="path4777"
           d="m -44.469,37.044 c -1.2178,0.0251 -2.4061,0.1496 -3.5293,0.44531 -0.60877,0.16441 -1.3782,-0.0172 -2.168,0.16406 -2.2673,0.23974 -3.8263,1.3223 -4.6574,2.4999 -2.0186,1.0824 -3.7671,1.9202 -5.0873,3.4308 -2.4766,0.10721 -4.0052,1.1083 -5.0194,1.9105 -2.5874,1.3482 -3.7047,5.9736 -1.0123,6.8859 -2.0442,-2.2372 -0.30608,-5.074 1.5861,-6.3801 1.746,-1.1717 3.6512,-2.0557 4.8243,-1.5193 4.8e-4,-1.2661 3.0644,-2.8122 4.5861,-3.5995 -0.08041,0.35686 -0.11747,0.73815 -0.16797,1.1133 1.2085,-3.7088 5.2223,-4.3735 8.1119,-3.4176 -0.23788,-0.23579 -0.64099,-0.47176 -1.0957,-0.58203 2.5146,-0.72358 4.8759,-0.47082 7.0723,-0.28906 1.5394,2.3206 1.6234,5.5463 0.22461,7.4863 0.53285,-1.2779 0.19559,-2.4576 -0.05469,-3.1035 -0.0929,-0.23976 -0.08352,-0.56761 -0.09375,-0.65234 -1.1192,0.72759 -3.3525,0.9381 -4.561,1.2645 -2.884,1.0186 -5.0558,2.1951 -7.0664,3.3301 -0.90845,0.51282 -1.9502,1.06 -2.9004,1.8203 -1.1693,0.93562 -2.254,1.9384 -3.1992,2.7031 -0.4726,0.38238 -0.71992,0.91648 -1.0835,1.1163 -0.94144,0.45551 -1.0963,0.26241 -1.2832,0.05273 -0.21314,-0.20846 -0.27112,-0.45896 -0.23633,-0.57227 -0.10225,0.67294 0.13321,1.3077 0.58203,1.3711 0.20332,0.02873 0.54586,0.03639 0.81445,0.16602 0.40816,0.19699 0.82559,0.45461 1.3105,0.86328 0.82928,0.69884 1.6395,1.7184 2.4043,2.8555 1.3275,1.9737 3.0946,3.8936 4.6563,5.4004 0.78082,0.75341 1.2181,1.5153 1.912,1.919 0.69172,0.40245 1.6481,0.4585 2.1974,0.31535 0.73481,-0.08956 1.2152,-0.23919 1.4961,-0.51562 0.33128,-0.36503 0.33658,-0.60207 0.16211,-1.0645 -0.16645,-0.44113 -0.63236,-1.0469 -1.0195,-1.5898 0.35438,0.28268 0.71129,0.58533 1.0637,0.79247 0.70499,0.41436 1.2278,0.88874 1.4695,1.2315 0.1091,1.0072 -0.11651,1.2893 -0.96099,1.6323 -0.99,0.237 -1.944,0.362 -2.88,0.47 -2.377,0.358 -2.999,-1.382 -4.393,-2.997 -1.6596,-1.9215 -3.2328,-3.8409 -4.8444,-5.7119 -0.96799,-1.0003 -2.1618,-1.736 -3.0733,-2.6907 -0.26878,-0.24069 -0.44606,-0.45071 -0.71484,-0.69141 -0.26154,-0.24712 -0.61401,-0.40339 -0.88281,-0.55469 -0.29474,-0.1659 -0.4695,-0.31494 -0.55078,-0.60156 -0.10714,-0.31576 -0.10362,-0.69815 0.05078,-0.96094 -0.27227,0.23742 -0.48488,0.79665 -0.38018,1.1614 0.07276,0.32759 0.28487,0.61313 0.5803,0.80441 0.2816,0.18232 0.706,0.32747 0.93158,0.56819 0.24633,0.27676 0.3659,0.42329 0.59576,0.67791 0.88712,1.1311 2.1911,1.8054 2.9991,2.7259 1.1205,1.1925 2.2958,2.487 3.4419,3.849 0.48667,0.57834 1.122,1.2141 1.4952,1.7858 1.275,1.953 2.6403,3.6405 4.8104,3.0162 0.99994,-0.0917 2.0743,-0.31817 2.9009,-0.45784 1.2762,-0.31559 1.218,-1.1304 1.1523,-2.1992 -0.48842,-0.61787 -1.0364,-0.99461 -1.5898,-1.3125 -0.7608,-0.51437 -1.43,-0.98849 -1.8887,-1.6172 -1.6474,-2.4076 -2.3831,-6.7884 -2.1191,-7.1094 0.39708,-0.25132 0.56968,-0.61934 0.67578,-0.98633 0.86127,-0.24074 1.5238,-1.0232 2.2949,-1.5371 1.933,-1.2883 3.6559,-2.4208 5.1426,-3.7129 2.8995,-2.5201 2.2394,-6.5366 0.67187,-9.2461 -1.2398,-0.10512 -2.4872,-0.1794 -3.7051,-0.1543 z m 3.215,5.072 c 0.65345,1.3688 0.41344,3.1308 -0.57227,4.0371 -1.634,1.502 -3.23,2.653 -4.819,3.713 -0.99159,0.65991 -2.0097,1.5792 -2.6484,1.5098 -0.06685,0.97129 -1.0376,1.3037 -1.7441,1.5703 0.16307,-0.06523 0.65766,-0.07531 1,-0.15625 0.21824,2.2401 0.8224,4.4175 1.9375,6.5918 -0.37147,-0.1871 -0.70537,-0.50587 -0.99805,-0.74805 0.41233,0.60144 0.97985,1.0923 1.4824,1.623 0.65557,0.98671 1.4124,1.7782 1.6211,2.3398 0.12854,0.34594 -0.0091,0.51192 -0.19141,0.64453 -0.16736,0.16472 -0.56975,0.32564 -1.2852,0.41016 l -0.01367,0.002 -0.01367,0.0039 c -0.37888,0.10037 -1.2508,0.10172 -1.9005,-0.27629 -0.64972,-0.37801 -1.0697,-1.1212 -1.8358,-1.8604 -1.5322,-1.4784 -3.1709,-3.516 -4.4844,-5.4688 -0.7851,-1.1673 -1.6865,-2.1659 -2.5488,-2.8926 -0.6844,-0.57674 -1.335,-0.84041 -1.8633,-0.99805 0.15552,0.05172 0.41276,0.0464 0.60579,-0.08277 0.38069,-0.25475 0.79411,-0.61962 1.2396,-1.0493 0.89097,-0.85939 2.1178,-1.7532 3.2718,-2.6765 0.91109,-0.72899 1.898,-1.2355 2.8164,-1.7539 2.0064,-1.1326 4.1181,-2.2777 6.9707,-3.2852 1.1712,-0.41364 2.5761,-0.62915 3.9727,-1.1973 z"
           style="color:#000000;stroke-width:0.40000001"
           inkscape:connector-curvature="0" />
        <path
           id="path4779"
           d="m -45.911,38.267 c 0.718,-0.412 2.25,0.236 1.844,1.15 -0.08271,0.18608 -0.40822,0.59387 -0.64988,0.51126 -0.51305,-0.17539 -2.29257,-1.32082 -2.28539,-1.35099 -0.08163,-0.49684 1.55057,0.81066 1.50771,0.46173 0.1114,-0.26155 -0.14696,-0.42231 -0.41651,-0.77177 z"
           inkscape:connector-curvature="0"
           style="fill:#313131;fill-opacity:1;stroke:#000000;stroke-width:0.25989333;stroke-miterlimit:4;stroke-dasharray:none;stroke-opacity:1"
           sodipodi:nodetypes="ccccccc" />
        <path
           id="path4781"
           d="m -50.672,39.231 c -0.86202,-0.01843 -2.0048,0.63203 -1.9114,1.5041 0.08217,0.76736 1.0515,1.4013 1.6469,1.369 0.73601,-0.03991 1.4939,-0.74984 1.4624,-1.5155 -0.02768,-0.67282 -0.33591,-1.3392 -1.1979,-1.3576 z"
           inkscape:connector-curvature="0"
           style="fill:#ffffff;fill-opacity:1;stroke:#000000;stroke-width:0.303" />
        <path
           id="path4783"
           d="m -50.81,42.227 c -1.0359,-0.3534 -0.96773,-2.3903 -0.19531,-2.9248 0.84236,0.36917 0.77848,2.6928 0.19531,2.9248 z"
           inkscape:connector-curvature="0"
           style="stroke-width:0.97108001px" />
        <path
           id="path4785"
           d="m -56.369,54.104 c 2.9085,-0.81179 4.4855,0.71852 7.7221,0.8608 3.467,0.1524 5.4261,-1.884 7.4865,-2.3581 0.7417,-0.17064 1.6854,-0.49122 2.3464,-0.58936 0.80737,-0.11986 1.3911,-0.27678 1.8893,-0.7458 0.36209,-0.34085 0.66605,-0.76258 0.94606,-1.2487 0.28133,0.74577 0.21833,2.3308 -1.8836,2.8491 3.3694,1.0569 2.9741,2.9783 2.9811,4.0395 -1.7129,-2.7058 -2.0751,-2.1006 -3.9074,-2.8688 -1.911,-0.402 -5.708,1.86 -8.817,1.866 -2.532,0.005 -6.205,-1.553 -8.301,-0.466 -0.184,-0.431 -0.337,-0.878 -0.462,-1.339 z"
           inkscape:connector-curvature="0"
           style="fill:#ffffff;fill-opacity:1;stroke:#000000;stroke-width:0.40000001" />
      </g>
      <g
         id="g4795"
         transform="matrix(-5.9524693,0.47686954,0.51894493,5.4698507,-10.283623,204.587)">
        <path
           id="path4789"
           d="m -54.877,47.789 c -1.7984,2.2785 -2.1781,4.1422 -1.8506,5.8513 0.32755,1.7091 1.2636,3.1554 2.2012,4.627 l 0.24219,-0.12891 c -0.9239,-1.5608 -1.6636,-3.0211 -1.9512,-4.5918 -0.28938,-1.5806 -0.12988,-3.35 1.6054,-5.5484 z"
           style="color:#000000;fill-rule:evenodd;stroke-width:0.5"
           inkscape:connector-curvature="0" />
        <path
           id="path4791"
           d="m -55.065,56.901 c 0.0055,-0.0023 0.13872,0.27679 0.14394,0.27466 1.0072,-0.41084 2.1985,-0.69206 3.4923,-0.29477 1.1969,0.36756 1.8846,1.1363 2.0939,1.4634 -0.1975,-0.30862 -0.77128,-1.2088 -1.984,-1.7532 -1.328,-0.59619 -2.7327,-0.43693 -3.8353,0.01286 -0.0057,0.0023 0.09475,0.29483 0.08928,0.29709 z"
           inkscape:connector-curvature="0"
           style="stroke-width:1px" />
      </g>
      <path
         id="path4797"
         d="m 260.76598,421.28673 c 1.06501,1.01641 2.3841,2.01245 4.23607,2.96584 l 15.83437,4.17132 c 0,0 12.11011,3.6801 12.58345,3.7283 0.38016,0.0428 7.25609,3.82498 10.43853,5.56858 0.0373,-0.0428 0.0559,-0.0865 0.0932,-0.12587 0.61497,-1.11616 1.7697,-0.009 2.63866,0.15498 7.25191,3.38222 13.59255,8.18902 19.55023,13.20285 1.74342,1.79908 2.4798,2.74888 0.66715,4.75662 -8.11248,8.2821 -23.65185,-5.43106 -28.41316,-7.78711 -7.6589,-1.73547 -15.92195,-8.36395 -21.84516,-11.60515 -3.03531,-1.66106 -7.88085,-3.48823 -11.55851,-5.8674 -3.88498,-2.51316 -6.49205,-5.66815 -5.26996,-10.90476 0.0466,-0.21234 1.05867,1.97092 1.05019,1.7436 z"
         inkscape:connector-curvature="0"
         style="fill:#ffffff;fill-opacity:1;stroke-width:0.05980269;stroke-linecap:round;stroke-linejoin:round" />
      <path
         id="path4799"
         d="m 352.45138,456.90532 c -0.0466,0.0976 -0.38389,0.79542 -0.37737,0.92574 0.13231,2.98742 -2.43115,3.70279 -6.86308,2.9292 -11.29202,-2.30596 -20.13351,-10.16757 -28.50726,-16.38198 -3.88889,-3.15362 -11.34327,-6.77807 -20.02077,-10.08281 -8.60222,-3.27725 -17.75287,-5.99839 -24.67213,-7.47827 -7.93992,-1.88548 -10.48885,-3.87541 -12.60861,-7.62966 2.13169,3.7754 5.06078,5.391 12.84621,6.61136 7.05409,1.27148 16.35149,3.77668 25.14546,6.85401 8.77767,3.07202 15.48403,7.01344 19.87728,10.25576 9.43689,6.68439 16.46424,13.53677 27.93423,16.35115 2.96496,0.46065 6.24765,-0.57195 5.54389,-2.54544 -0.0466,-0.13443 1.65556,0.2894 1.70187,0.19265 z"
         inkscape:connector-curvature="0"
         style="stroke-width:8.93190765px" />
      <path
         id="path4805"
         d="m 327.01427,450.56932 c 0.028,0.0916 0.5749,0.66014 0.60565,0.76289 1.82159,5.62234 -1.10684,8.1266 -5.81131,9.19747 -4.35757,0.99261 -10.55873,0.37502 -14.92776,-1.68469 -5.12917,-2.44758 -18.40883,-9.70007 -30.11455,-16.20475 l -1.0911,0.18323 c -0.0186,-0.13014 -0.0932,-0.25686 -0.0745,-0.38615 0.19288,-1.42337 -0.60751,-0.13018 -2.62049,-1.09411 -2.43756,-1.20379 -4.27797,-2.63846 -5.81578,-3.825 -0.0745,-0.0599 -0.14908,-0.11816 -0.22362,-0.1781 -6.18848,-3.81983 -9.1746,-8.61524 -8.73564,-15.39305 1.34303,9.54131 7.93495,13.95633 15.4079,18.43883 1.79671,0.99552 3.35294,-0.72826 4.11186,0.99342 11.91165,6.24533 25.90579,14.30224 31.21869,16.59775 3.71885,1.61191 9.53286,2.35066 13.03722,1.37611 5.1218,-1.42431 5.88454,-5.68767 3.76096,-8.14792 -0.0559,-0.0599 1.30438,-0.54456 1.27251,-0.63617 z"
         inkscape:connector-curvature="0"
         style="stroke-width:8.93190765px"
         sodipodi:nodetypes="cccccccccccccccccc" />
      <path
         id="path4803"
         d="m 264.77051,429.39218 c -8.17118,7.3025 -5.48072,17.54301 -4.20169,26.95968 -9.1185,-8.66919 -11.58926,-21.82838 -5.48519,-32.03875 3.67357,-1.8651 10.10683,3.16954 9.68846,5.07702 z"
         inkscape:connector-curvature="0"
         style="fill:#ffffff;fill-opacity:1;fill-rule:evenodd;stroke:#000000;stroke-width:2.17652726" />
      <path
         id="path4807"
         d="m 289.64716,426.61539 c -5.5701,3.46189 -9.64001,20.73156 -9.54031,31.33751 -7.91038,-10.86624 -8.68822,-25.34914 -1.42159,-35.80953 4.10497,-1.93265 10.96218,4.47339 10.96218,4.47339 z"
         inkscape:connector-curvature="0"
         style="fill:#f5f5f5;fill-rule:evenodd;stroke:#000000;stroke-width:2.10873413"
         sodipodi:nodetypes="ccccc" />
    </g>
  </g>
  <g
     inkscape:groupmode="layer"
     id="layer2"
     inkscape:label="Reflet final"
     style="display:inline"
     sodipodi:insensitive="true">
    <path
       sodipodi:nodetypes="cccccc"
       d="m 300.00001,658.5 c 0,0 298.5,-112.32031 298.5,-397.77183 0,-285.451504 0,-258.5516835 0,-258.5516835 H 1.5 V 260.72817 C 1.5,546.17969 300.00001,658.5 300.00001,658.5 Z"
       style="opacity:1;fill:url(#radialGradient3163);fill-opacity:1;fill-rule:evenodd;stroke:#000000;stroke-width:2;stroke-linecap:butt;stroke-linejoin:miter;stroke-miterlimit:4;stroke-dasharray:none;stroke-opacity:1"
       id="path2875"
       inkscape:export-xdpi="144"
       inkscape:export-ydpi="144"
       inkscape:connector-curvature="0" />
  </g>
</svg>
